<?xml version="1.0" encoding="utf-8"?>
<!-- Generator: Adobe Illustrator 23.0.2, SVG Export Plug-In . SVG Version: 6.00 Build 0)  -->
<svg version="1.1" id="Calque_1" xmlns="http://www.w3.org/2000/svg" xmlns:xlink="http://www.w3.org/1999/xlink" x="0px" y="0px"
	 viewBox="0 0 114.31 65.14" style="enable-background:new 0 0 114.31 65.14;" xml:space="preserve">
<style type="text/css">
	.st0{fill:#30374B;}
</style>
<g>
	<path class="st0" d="M65.62,42.87L65.62,42.87c0,3.53-1.84,5.26-5.51,5.26c-3.59,0-5.51-1.73-5.51-5.26v-8.94h2.52v8.94
		c0,1.95,0.99,2.85,2.98,2.85c2.07,0,2.98-0.9,2.98-2.85v-8.94h2.52v8.94H65.62z"/>
	<path class="st0" d="M75.11,47.82v-7.21c0-1.43-0.76-1.95-2.22-1.95c-0.84,0-1.76,0.3-2.22,0.98v8.19H68.3V36.71l1.68-0.08
		l0.38,1.05c0.84-0.75,1.99-1.2,3.21-1.2c2.37,0,3.9,1.43,3.9,4.13v7.21H75.11z"/>
	<path class="st0" d="M82.99,38.51v6.16c0,1.05,0.54,1.43,1.53,1.43c0.23,0,0.69-0.07,0.92-0.15l0.15,1.8
		c-0.38,0.15-1.07,0.3-1.76,0.3c-2.22,0-3.21-1.28-3.21-3.3v-6.23h-1.46v-1.8h1.53l0.46-2.63l1.84-0.23v2.85h2.68v1.8H82.99z"/>
	<path class="st0" d="M94.31,41.22L94.31,41.22c-0.08-1.95-0.99-2.7-2.37-2.7c-1.68,0-2.37,0.83-2.45,2.7H94.31z M87.04,42.04
		L87.04,42.04c0-3.53,1.61-5.56,4.9-5.56c2.75,0,4.51,1.65,4.51,5.18c0,0.38,0,0.75-0.08,1.13h-6.88c0.15,2.33,1.15,3.15,3.29,3.15
		c1.15,0,2.14-0.23,3.06-0.6l0.31,1.95c-0.99,0.45-2.22,0.75-3.59,0.75C88.72,48.05,87.04,46.02,87.04,42.04"/>
	<path class="st0" d="M106.01,39.11L106.01,39.11c-0.61-0.3-1.38-0.45-2.07-0.45c-2.29,0-3.06,1.05-3.06,3.53
		c0,2.78,1.07,3.83,2.98,3.83c0.84,0,1.61-0.23,2.22-0.53l0.15,1.88c-0.61,0.45-1.68,0.68-2.83,0.68c-3.29,0-5.05-1.88-5.05-5.86
		c0-3.68,1.53-5.63,5.05-5.63c0.99,0,2.07,0.15,2.75,0.45L106.01,39.11z"/>
	<path class="st0" d="M30.87,38.22c0-3.26,0-7.39-0.22-11.95c-0.22-6.95-0.22-11.3,0-13.68c0.22-0.87,0.44-1.74,0.66-2.17
		c0.88,1.95,4.2,8.91,6.42,17.59l-2.88-1.74c0,0,0,2.61,0.22,11.3c0,6.52-0.22,9.56-0.44,10.64C34.41,47.78,33.3,46.26,30.87,38.22
		 M16.49,54.29c-2.21-1.09-4.65-3.26-7.52-6.08c3.54-0.43,7.52,0,7.52,0V37.57c0.22,0.43,0.66,0.87,1.33,1.52
		c0.44,0.65,1.11,1.3,1.99,2.17v5.65c0,3.26-0.22,5.21-0.22,6.52l-0.44,1.51C18.48,55.16,17.82,54.94,16.49,54.29 M45.69,33
		l-7.08-4.56c-2.88-10.86-7.08-18.9-7.08-18.9l-0.22-0.22l-11.06,8.25c-0.66,4.34-0.66,14.77-0.66,23.24
		c-1.99-2.17-3.1-3.69-3.1-3.69l-0.22-0.43L8.08,48.21l0.22,0.22c7.3,7.17,10.62,7.39,10.84,7.39h0.22l0.22-0.43
		c7.52-4.78,11.06-6.95,11.06-6.95s0.22-3.26,0.44-8.47c1.77,5.65,3.1,8.69,3.98,8.69c0,0,0.22,0,0.22-0.22h10.18
		C46.36,46.91,45.69,33,45.69,33"/>
</g>
</svg>
