<?xml version="1.0" encoding="utf-8"?>
<!-- Generator: Adobe Illustrator 23.0.2, SVG Export Plug-In . SVG Version: 6.00 Build 0)  -->
<svg version="1.1" id="Calque_1" xmlns="http://www.w3.org/2000/svg" xmlns:xlink="http://www.w3.org/1999/xlink" x="0px" y="0px"
	 viewBox="0 0 110.07 35.64" style="enable-background:new 0 0 110.07 35.64;" xml:space="preserve">
<style type="text/css">
	.st0{fill:#30374B;}
</style>
<g>
	<polygon class="st0" points="10.16,6.51 5.77,8.81 5.77,10.74 10.16,10.74 	"/>
	<polygon class="st0" points="16.15,12.1 16.15,16.33 11.77,16.33 11.77,14.39 	"/>
	<polygon class="st0" points="17.76,12.1 17.76,16.33 22.14,16.33 22.14,14.39 	"/>
	<polygon class="st0" points="11.77,6.51 11.77,10.74 16.15,10.74 16.15,8.81 	"/>
	<rect x="5.77" y="12.17" class="st0" width="4.38" height="4.09"/>
	<rect x="5.77" y="17.77" class="st0" width="4.38" height="4.09"/>
	<rect x="11.77" y="17.77" class="st0" width="4.38" height="4.09"/>
	<rect x="17.76" y="17.77" class="st0" width="4.38" height="4.09"/>
	<g>
		<path class="st0" d="M26.98,12.87v3.94h0.27c0.41,0,0.74-0.06,1-0.19c0.26-0.13,0.48-0.34,0.66-0.64c0.18-0.3,0.3-0.71,0.35-1.22
			h0.24v4.81h-0.24c-0.09-0.91-0.32-1.51-0.71-1.8s-0.82-0.43-1.31-0.43h-0.27v2.93c0,0.49,0.03,0.8,0.08,0.92s0.15,0.23,0.31,0.32
			c0.15,0.09,0.36,0.14,0.62,0.14h0.31v0.26h-4.84v-0.26h0.31c0.27,0,0.49-0.05,0.65-0.15c0.12-0.07,0.21-0.18,0.27-0.34
			c0.05-0.11,0.08-0.41,0.08-0.89v-6.32c0-0.49-0.03-0.8-0.08-0.92s-0.15-0.23-0.3-0.32s-0.36-0.14-0.62-0.14h-0.31v-0.26h7.82v2.75
			h-0.28c-0.06-0.65-0.23-1.12-0.49-1.43s-0.64-0.53-1.14-0.66c-0.27-0.07-0.78-0.11-1.52-0.11L26.98,12.87L26.98,12.87z"/>
		<path class="st0" d="M36.74,12.63c-0.82,0-1.45,0.45-1.87,1.34c-0.35,0.73-0.52,1.79-0.52,3.17c0,1.63,0.27,2.84,0.81,3.62
			c0.38,0.55,0.9,0.82,1.58,0.82c0.45,0,0.83-0.12,1.14-0.35c0.39-0.3,0.69-0.78,0.91-1.44s0.32-1.52,0.32-2.59
			c0-1.27-0.11-2.21-0.33-2.84s-0.5-1.07-0.84-1.33C37.58,12.76,37.19,12.63,36.74,12.63 M36.66,12.18
			c1.43-0.06,2.59,0.39,3.49,1.34c0.89,0.95,1.34,2.13,1.34,3.55c0,1.22-0.33,2.28-1,3.21c-0.88,1.22-2.13,1.84-3.74,1.84
			c-1.62,0-2.86-0.58-3.75-1.75c-0.7-0.92-1.05-2.02-1.05-3.29c0-1.42,0.45-2.61,1.36-3.56C34.22,12.57,35.34,12.12,36.66,12.18"/>
		<path class="st0" d="M45.11,12.31l5.04,5.94v-4.12c0-0.57-0.09-0.96-0.26-1.17c-0.24-0.27-0.65-0.41-1.21-0.4V12.3h3.38v0.26
			c-0.43,0.05-0.72,0.12-0.87,0.2c-0.15,0.08-0.26,0.22-0.35,0.4c-0.08,0.19-0.12,0.51-0.12,0.96v7.98h-0.26l-6.91-7.98v6.09
			c0,0.55,0.13,0.92,0.4,1.12c0.27,0.19,0.58,0.29,0.92,0.29h0.24v0.26h-3.63v-0.26c0.56,0,0.95-0.11,1.18-0.32
			c0.22-0.21,0.33-0.57,0.33-1.08v-6.76l-0.22-0.25c-0.22-0.25-0.41-0.42-0.57-0.5c-0.17-0.08-0.4-0.12-0.72-0.13v-0.26h3.63V12.31z
			"/>
		<path class="st0" d="M60.6,12.1v3.32h-0.26c-0.19-0.87-0.56-1.53-1.09-1.99c-0.53-0.46-1.13-0.69-1.81-0.69
			c-0.56,0-1.08,0.17-1.55,0.52c-0.47,0.34-0.6,0.77-0.81,1.33c-0.28,0.71-0.42,1.5-0.42,2.37c0,0.86,0.1,1.64,0.31,2.34
			c0.2,0.7,0.31,1.26,0.74,1.62s1,0.54,1.69,0.54c0.57,0,1.09-0.13,1.56-0.4c0.47-0.26,0.97-0.72,1.49-1.36v0.83
			c-0.5,0.56-1.03,0.97-1.58,1.22c-0.55,0.25-1.19,0.38-1.92,0.38c-0.96,0-1.81-0.2-2.56-0.61s-1.32-1-1.73-1.77
			s-0.61-1.58-0.61-2.45c0-0.91,0.22-1.78,0.67-2.6c0.45-0.82,1.06-1.46,1.82-1.91s1.57-0.68,2.43-0.68c0.63,0,1.3,0.15,2.01,0.44
			c0.41,0.17,0.67,0.25,0.78,0.25c0.14,0,0.26-0.06,0.37-0.17c0.1-0.11,0.17-0.29,0.2-0.53C60.33,12.1,60.6,12.1,60.6,12.1z"/>
		<path class="st0" d="M66.44,21.63v0.26h-5.12v-0.26h0.32c0.28,0,0.51-0.05,0.69-0.15c0.13-0.07,0.22-0.18,0.29-0.34
			c0.05-0.11,0.08-0.41,0.08-0.89v-6.3c0-0.49-0.03-0.8-0.08-0.92c-0.05-0.12-0.16-0.23-0.32-0.32s-0.38-0.14-0.65-0.14h-0.32v-0.26
			h5.12v0.26h-0.32c-0.28,0-0.51,0.05-0.69,0.15c-0.13,0.07-0.22,0.18-0.3,0.34c-0.05,0.11-0.08,0.41-0.08,0.89v6.3
			c0,0.49,0.03,0.8,0.08,0.92c0.06,0.12,0.16,0.23,0.33,0.32c0.16,0.09,0.38,0.14,0.65,0.14H66.44z"/>
		<path class="st0" d="M72.35,18.64l-1.45-3.3l-1.49,3.3H72.35z M72.59,19.17h-3.43l-0.41,0.93c-0.13,0.31-0.2,0.57-0.2,0.77
			c0,0.27,0.11,0.47,0.33,0.59c0.13,0.08,0.45,0.13,0.95,0.17v0.26H66.6v-0.26c0.35-0.05,0.64-0.19,0.86-0.43
			c0.22-0.23,0.5-0.71,0.83-1.44l3.48-7.64h0.14l3.5,7.86c0.33,0.74,0.61,1.21,0.82,1.41c0.16,0.15,0.39,0.23,0.69,0.25v0.26h-4.7
			v-0.26h0.19c0.38,0,0.64-0.05,0.8-0.16c0.11-0.08,0.16-0.18,0.16-0.33c0-0.08-0.01-0.17-0.04-0.26c-0.01-0.04-0.08-0.22-0.22-0.53
			L72.59,19.17z"/>
		<path class="st0" d="M84.64,21.66v0.26h-4.6v-0.26h0.29c0.26,0,0.46-0.05,0.62-0.15c0.11-0.07,0.2-0.18,0.26-0.34
			c0.05-0.11,0.07-0.41,0.07-0.89v-6.32c0-0.49-0.02-0.8-0.07-0.92s-0.14-0.23-0.29-0.32c-0.14-0.09-0.34-0.14-0.59-0.14h-0.29
			v-0.26h4.6v0.26h-0.3c-0.26,0-0.46,0.05-0.62,0.15c-0.11,0.07-0.2,0.18-0.27,0.34c-0.05,0.11-0.07,0.41-0.07,0.89v6.32
			c0,0.49,0.02,0.8,0.07,0.92s0.15,0.23,0.29,0.32s0.34,0.14,0.59,0.14H84.64z"/>
		<path class="st0" d="M88.47,12.87v4.15c0.14,0.01,0.25,0.01,0.32,0.01c0.52,0,0.93-0.17,1.21-0.51s0.42-0.87,0.42-1.59
			c0-0.71-0.14-1.23-0.42-1.57c-0.28-0.33-0.71-0.5-1.27-0.5L88.47,12.87L88.47,12.87z M88.47,17.57v2.66
			c0,0.52,0.03,0.85,0.09,0.98s0.16,0.24,0.31,0.32c0.15,0.08,0.42,0.12,0.81,0.12v0.26h-4.44v-0.26c0.4,0,0.68-0.04,0.82-0.12
			c0.14-0.08,0.24-0.19,0.3-0.32s0.09-0.46,0.09-0.98V14c0-0.52-0.03-0.85-0.09-0.98s-0.16-0.24-0.31-0.32
			c-0.15-0.08-0.42-0.12-0.82-0.12v-0.26h3.81c1.25,0,2.15,0.25,2.7,0.74c0.54,0.49,0.82,1.11,0.82,1.84c0,0.62-0.18,1.16-0.53,1.6
			s-0.84,0.75-1.45,0.91C90.16,17.51,89.46,17.57,88.47,17.57"/>
		<path class="st0" d="M98.59,18.65l2.37-6.33h3.56v0.26h-0.28c-0.26,0-0.46,0.05-0.62,0.15c-0.11,0.07-0.19,0.18-0.26,0.33
			c-0.05,0.11-0.07,0.41-0.07,0.89v6.33c0,0.49,0.02,0.8,0.07,0.92s0.14,0.23,0.29,0.32s0.34,0.14,0.59,0.14h0.28v0.26h-4.57v-0.26
			h0.28c0.26,0,0.46-0.05,0.62-0.15c0.11-0.07,0.19-0.18,0.26-0.34c0.05-0.11,0.07-0.41,0.07-0.89v-7.12l-3.35,8.76h-0.15l-3.41-8.7
			v6.76c0,0.47,0.01,0.76,0.03,0.87c0.06,0.24,0.18,0.43,0.36,0.58c0.19,0.15,0.48,0.22,0.88,0.22v0.26h-2.99v-0.26h0.09
			c0.19,0,0.37-0.03,0.54-0.1s0.29-0.17,0.38-0.29c0.09-0.12,0.15-0.3,0.2-0.52c0.01-0.05,0.01-0.29,0.01-0.72v-6.08
			c0-0.49-0.02-0.79-0.07-0.91s-0.14-0.23-0.29-0.32s-0.34-0.14-0.59-0.14h-0.28v-0.26h3.57L98.59,18.65z"/>
	</g>
	<rect x="5.77" y="23.27" class="st0" width="98.75" height="0.57"/>
	<g>
		<path class="st0" d="M8.07,28.93v0.11H5.56v-0.11h0.16c0.14,0,0.25-0.02,0.34-0.06c0.06-0.03,0.11-0.07,0.14-0.14
			c0.03-0.05,0.04-0.17,0.04-0.37v-2.6c0-0.2-0.01-0.33-0.04-0.38c-0.03-0.04-0.08-0.09-0.16-0.12c-0.08-0.04-0.19-0.06-0.32-0.06
			H5.56v-0.11h2.51v0.11H7.91c-0.14,0-0.25,0.02-0.34,0.06c-0.06,0.03-0.11,0.07-0.15,0.14c-0.03,0.05-0.04,0.17-0.04,0.37v2.6
			c0,0.2,0.01,0.33,0.04,0.38c0.03,0.05,0.08,0.09,0.16,0.13s0.19,0.06,0.32,0.06h0.17V28.93z"/>
		<path class="st0" d="M9.32,26.67l1.42,1.47v-1.02c0-0.14-0.02-0.24-0.07-0.29c-0.07-0.07-0.18-0.1-0.34-0.1v-0.06h0.95v0.06
			c-0.12,0.02-0.2,0.03-0.24,0.05s-0.07,0.05-0.1,0.1c-0.02,0.05-0.04,0.12-0.04,0.24v1.97h-0.07l-1.95-1.97v1.51
			c0,0.14,0.04,0.23,0.11,0.28c0.08,0.05,0.16,0.07,0.26,0.07h0.07v0.06H8.3v-0.06c0.16,0,0.27-0.03,0.33-0.08
			c0.06-0.05,0.09-0.14,0.09-0.27v-1.68l-0.06-0.06c-0.06-0.06-0.11-0.1-0.16-0.12c-0.05-0.02-0.11-0.03-0.2-0.03v-0.06L9.32,26.67
			L9.32,26.67z"/>
		<path class="st0" d="M13.43,26.62l0.02,0.79h-0.08c-0.04-0.2-0.14-0.36-0.3-0.48c-0.17-0.12-0.34-0.18-0.53-0.18
			c-0.14,0-0.26,0.03-0.34,0.1c-0.08,0.06-0.13,0.14-0.13,0.22c0,0.05,0.01,0.1,0.04,0.14c0.04,0.05,0.11,0.11,0.2,0.16
			c0.07,0.04,0.22,0.11,0.46,0.2c0.35,0.13,0.57,0.26,0.69,0.38s0.17,0.26,0.17,0.42c0,0.2-0.09,0.37-0.28,0.51
			s-0.43,0.21-0.72,0.21c-0.09,0-0.18-0.01-0.26-0.02c-0.08-0.02-0.18-0.04-0.3-0.09c-0.06-0.02-0.12-0.03-0.16-0.03
			s-0.08,0.01-0.12,0.03s-0.07,0.06-0.1,0.11h-0.08V28.2h0.08c0.06,0.25,0.18,0.44,0.36,0.58c0.18,0.13,0.37,0.2,0.58,0.2
			c0.16,0,0.29-0.04,0.38-0.11s0.14-0.15,0.14-0.25c0-0.06-0.02-0.11-0.05-0.16c-0.04-0.05-0.09-0.1-0.16-0.15
			c-0.07-0.05-0.2-0.11-0.39-0.18c-0.26-0.11-0.45-0.2-0.57-0.27c-0.11-0.07-0.2-0.16-0.26-0.25s-0.09-0.19-0.09-0.3
			c0-0.19,0.08-0.35,0.25-0.48s0.38-0.2,0.64-0.2c0.09,0,0.18,0.01,0.27,0.03c0.07,0.01,0.15,0.04,0.24,0.08
			c0.1,0.04,0.16,0.06,0.2,0.06s0.07-0.01,0.09-0.03s0.04-0.06,0.06-0.13h0.05V26.62z"/>
		<path class="st0" d="M16.56,26.67v0.64h-0.08c-0.05-0.15-0.1-0.25-0.15-0.32c-0.06-0.06-0.13-0.12-0.23-0.15
			c-0.05-0.02-0.15-0.03-0.28-0.03h-0.21v1.83c0,0.12,0.01,0.2,0.02,0.23c0.02,0.03,0.05,0.06,0.1,0.08s0.11,0.03,0.19,0.03h0.1
			v0.06h-1.51v-0.06h0.1c0.08,0,0.15-0.01,0.2-0.04c0.04-0.02,0.07-0.04,0.09-0.08c0.02-0.03,0.02-0.1,0.02-0.22v-1.83h-0.21
			c-0.19,0-0.34,0.03-0.42,0.1c-0.12,0.09-0.2,0.23-0.23,0.4h-0.09v-0.64C13.97,26.67,16.56,26.67,16.56,26.67z"/>
		<path class="st0" d="M18.31,28.97v0.06H16.8v-0.06h0.1c0.08,0,0.15-0.01,0.2-0.04c0.04-0.02,0.07-0.04,0.09-0.08
			c0.02-0.03,0.02-0.1,0.02-0.22v-1.56c0-0.12-0.01-0.2-0.02-0.23c-0.02-0.03-0.05-0.06-0.09-0.08c-0.05-0.02-0.11-0.03-0.19-0.03
			h-0.1v-0.06h1.51v0.06h-0.1c-0.08,0-0.15,0.01-0.2,0.04c-0.04,0.02-0.07,0.04-0.09,0.08c-0.02,0.03-0.02,0.1-0.02,0.22v1.56
			c0,0.12,0.01,0.2,0.02,0.23c0.02,0.03,0.05,0.06,0.1,0.08c0.05,0.02,0.11,0.03,0.19,0.03H18.31z"/>
		<path class="st0" d="M21.16,26.67v0.64h-0.08c-0.05-0.15-0.1-0.25-0.15-0.32c-0.06-0.06-0.13-0.12-0.23-0.15
			c-0.05-0.02-0.15-0.03-0.28-0.03h-0.21v1.83c0,0.12,0.01,0.2,0.02,0.23c0.02,0.03,0.05,0.06,0.1,0.08
			c0.05,0.02,0.11,0.03,0.19,0.03h0.1v0.06h-1.51v-0.06h0.1c0.08,0,0.15-0.01,0.2-0.04c0.04-0.02,0.07-0.04,0.09-0.08
			c0.02-0.03,0.02-0.1,0.02-0.22v-1.83h-0.21c-0.19,0-0.34,0.03-0.42,0.1c-0.12,0.09-0.2,0.23-0.23,0.4h-0.08v-0.64
			C18.58,26.67,21.16,26.67,21.16,26.67z"/>
		<path class="st0" d="M21.42,26.67h1.49v0.06h-0.07c-0.11,0-0.19,0.01-0.23,0.03c-0.04,0.02-0.07,0.05-0.09,0.08
			c-0.02,0.03-0.03,0.12-0.03,0.25v1.16c0,0.21,0.02,0.35,0.06,0.42c0.04,0.07,0.1,0.13,0.19,0.17c0.09,0.05,0.2,0.07,0.34,0.07
			c0.16,0,0.29-0.03,0.4-0.09c0.11-0.06,0.19-0.14,0.25-0.24c0.05-0.1,0.08-0.28,0.08-0.53v-0.97c0-0.11-0.01-0.18-0.04-0.23
			s-0.06-0.08-0.1-0.09c-0.06-0.03-0.15-0.04-0.27-0.04v-0.06h1v0.06h-0.06c-0.08,0-0.15,0.01-0.2,0.04
			c-0.05,0.03-0.09,0.07-0.12,0.12c-0.02,0.04-0.03,0.1-0.03,0.2v0.9c0,0.28-0.02,0.48-0.07,0.6c-0.04,0.12-0.15,0.24-0.33,0.34
			c-0.17,0.1-0.41,0.16-0.71,0.16c-0.25,0-0.44-0.03-0.58-0.08c-0.19-0.07-0.32-0.17-0.39-0.29c-0.08-0.12-0.11-0.27-0.11-0.47
			v-1.16c0-0.14-0.01-0.22-0.03-0.25s-0.05-0.06-0.1-0.08c-0.05-0.02-0.13-0.03-0.25-0.03C21.42,26.72,21.42,26.67,21.42,26.67z"/>
		<path class="st0" d="M27.21,26.67v0.64h-0.07c-0.05-0.15-0.1-0.25-0.15-0.32c-0.06-0.06-0.13-0.12-0.23-0.15
			c-0.05-0.02-0.15-0.03-0.28-0.03h-0.21v1.83c0,0.12,0.01,0.2,0.02,0.23c0.02,0.03,0.05,0.06,0.1,0.08
			c0.05,0.02,0.11,0.03,0.19,0.03h0.1v0.06h-1.51v-0.06h0.1c0.08,0,0.15-0.01,0.2-0.04c0.04-0.02,0.07-0.04,0.09-0.08
			c0.02-0.03,0.02-0.1,0.02-0.22v-1.83h-0.21c-0.19,0-0.34,0.03-0.42,0.1c-0.12,0.09-0.2,0.23-0.23,0.4h-0.08v-0.64
			C24.64,26.67,27.21,26.67,27.21,26.67z"/>
		<path class="st0" d="M28.97,28.97v0.06h-1.51v-0.06h0.1c0.08,0,0.15-0.01,0.2-0.04c0.04-0.02,0.07-0.04,0.09-0.08
			c0.02-0.03,0.02-0.1,0.02-0.22v-1.56c0-0.12-0.01-0.2-0.02-0.23c-0.02-0.03-0.05-0.06-0.09-0.08c-0.05-0.02-0.11-0.03-0.19-0.03
			h-0.1v-0.06h1.51v0.06h-0.1c-0.08,0-0.15,0.01-0.2,0.04c-0.04,0.02-0.07,0.04-0.09,0.08c-0.02,0.03-0.02,0.1-0.02,0.22v1.56
			c0,0.12,0.01,0.2,0.02,0.23c0.02,0.03,0.05,0.06,0.1,0.08c0.05,0.02,0.11,0.03,0.19,0.03H28.97z"/>
		<path class="st0" d="M30.77,26.75c-0.26,0-0.46,0.11-0.6,0.33C30.06,27.26,30,27.52,30,27.86c0,0.4,0.09,0.7,0.26,0.9
			c0.12,0.13,0.29,0.2,0.51,0.2c0.15,0,0.27-0.03,0.37-0.09c0.12-0.07,0.22-0.19,0.29-0.36c0.07-0.16,0.1-0.38,0.1-0.64
			c0-0.31-0.04-0.55-0.11-0.7c-0.07-0.16-0.16-0.27-0.27-0.33C31.04,26.78,30.92,26.75,30.77,26.75 M30.75,26.64
			c0.46-0.01,0.83,0.1,1.12,0.33c0.29,0.23,0.43,0.53,0.43,0.88c0,0.3-0.11,0.56-0.32,0.79c-0.28,0.3-0.68,0.45-1.2,0.45
			s-0.92-0.14-1.2-0.43c-0.22-0.23-0.34-0.5-0.34-0.81c0-0.35,0.15-0.65,0.44-0.88C29.96,26.73,30.32,26.62,30.75,26.64"/>
		<path class="st0" d="M33.54,26.67l1.42,1.47v-1.02c0-0.14-0.02-0.24-0.07-0.29c-0.07-0.07-0.18-0.1-0.34-0.1v-0.06h0.95v0.06
			c-0.12,0.01-0.2,0.03-0.25,0.05c-0.04,0.02-0.07,0.05-0.1,0.1c-0.02,0.05-0.04,0.12-0.04,0.24v1.97h-0.07l-1.95-1.97v1.51
			c0,0.14,0.04,0.23,0.11,0.28c0.08,0.05,0.16,0.07,0.26,0.07h0.07v0.06h-1.02v-0.06c0.16,0,0.27-0.03,0.33-0.08
			c0.06-0.05,0.09-0.14,0.09-0.27v-1.68l-0.06-0.06c-0.06-0.06-0.11-0.1-0.16-0.12s-0.11-0.03-0.2-0.03v-0.06L33.54,26.67
			L33.54,26.67z"/>
		<path class="st0" d="M37.34,28.24l-0.43-0.82l-0.44,0.82H37.34z M37.41,28.36h-1.02l-0.12,0.23c-0.04,0.08-0.06,0.14-0.06,0.19
			c0,0.07,0.03,0.12,0.1,0.15c0.04,0.02,0.13,0.03,0.28,0.04v0.06h-0.95v-0.06c0.1-0.01,0.19-0.05,0.26-0.11s0.15-0.18,0.25-0.36
			l1.03-1.89h0.04l1.04,1.94c0.1,0.18,0.18,0.3,0.24,0.35c0.05,0.04,0.12,0.06,0.2,0.06v0.06h-1.4v-0.06h0.06
			c0.11,0,0.19-0.01,0.24-0.04c0.03-0.02,0.05-0.05,0.05-0.08c0-0.02,0-0.04-0.01-0.06c0-0.01-0.02-0.05-0.06-0.13L37.41,28.36z"/>
		<path class="st0" d="M41.5,28.21l-0.11,0.83h-2.56v-0.06h0.1c0.08,0,0.15-0.01,0.2-0.04c0.04-0.02,0.07-0.04,0.09-0.08
			c0.02-0.03,0.02-0.1,0.02-0.22v-1.56c0-0.12-0.01-0.2-0.02-0.23c-0.02-0.03-0.05-0.06-0.09-0.08c-0.05-0.02-0.11-0.03-0.19-0.03
			h-0.1v-0.06h1.54v0.06h-0.14c-0.08,0-0.15,0.01-0.2,0.04c-0.04,0.02-0.07,0.04-0.09,0.08c-0.02,0.03-0.02,0.1-0.02,0.22v1.51
			c0,0.12,0.01,0.2,0.03,0.23s0.05,0.06,0.1,0.07c0.04,0.01,0.12,0.02,0.26,0.02h0.24c0.15,0,0.28-0.02,0.38-0.07
			c0.1-0.04,0.19-0.11,0.26-0.21s0.15-0.24,0.21-0.42H41.5z"/>
		<path class="st0" d="M44.46,25.32v1.71c0.08,0,0.14,0.01,0.18,0.01c0.29,0,0.51-0.07,0.67-0.21s0.23-0.36,0.23-0.65
			s-0.08-0.51-0.23-0.64c-0.16-0.14-0.39-0.2-0.7-0.2h-0.15V25.32z M44.46,27.25v1.09c0,0.21,0.02,0.35,0.05,0.4
			c0.03,0.06,0.09,0.1,0.17,0.13c0.08,0.03,0.23,0.05,0.45,0.05v0.11h-2.44v-0.11c0.22,0,0.37-0.02,0.45-0.05s0.13-0.08,0.17-0.13
			c0.03-0.05,0.05-0.19,0.05-0.4v-2.56c0-0.21-0.02-0.35-0.05-0.4c-0.03-0.06-0.09-0.1-0.17-0.13c-0.08-0.03-0.23-0.05-0.45-0.05
			v-0.11h2.1c0.69,0,1.19,0.1,1.49,0.3c0.3,0.2,0.45,0.45,0.45,0.76c0,0.26-0.1,0.48-0.29,0.66c-0.19,0.18-0.46,0.31-0.8,0.37
			C45.4,27.23,45.01,27.25,44.46,27.25"/>
		<path class="st0" d="M48.1,26.8v1.04h0.12c0.2,0,0.34-0.01,0.44-0.04c0.1-0.03,0.17-0.08,0.23-0.16c0.06-0.08,0.08-0.18,0.08-0.3
			c0-0.18-0.05-0.31-0.15-0.4c-0.1-0.09-0.27-0.13-0.5-0.13L48.1,26.8L48.1,26.8z M48.1,27.96v0.66c0,0.13,0.01,0.21,0.03,0.24
			c0.02,0.03,0.05,0.06,0.1,0.08s0.14,0.03,0.27,0.03v0.06h-1.48v-0.06c0.13,0,0.22-0.01,0.27-0.03s0.08-0.05,0.1-0.08
			c0.02-0.03,0.03-0.11,0.03-0.24v-1.54c0-0.13-0.01-0.21-0.03-0.24c-0.02-0.03-0.05-0.06-0.1-0.08s-0.14-0.03-0.27-0.03v-0.06h1.34
			c0.35,0,0.6,0.02,0.77,0.06c0.16,0.04,0.29,0.11,0.4,0.22c0.1,0.11,0.15,0.23,0.15,0.37c0,0.17-0.08,0.32-0.23,0.43
			c-0.1,0.07-0.23,0.13-0.41,0.16l0.69,0.8c0.09,0.1,0.16,0.17,0.19,0.19c0.06,0.04,0.13,0.06,0.2,0.06v0.06h-0.91l-0.93-1.08H48.1
			V27.96z"/>
		<path class="st0" d="M51.79,26.75c-0.26,0-0.46,0.11-0.6,0.33c-0.11,0.18-0.17,0.44-0.17,0.78c0,0.4,0.09,0.7,0.26,0.9
			c0.12,0.13,0.29,0.2,0.51,0.2c0.15,0,0.27-0.03,0.37-0.09c0.12-0.07,0.22-0.19,0.29-0.36c0.07-0.16,0.1-0.38,0.1-0.64
			c0-0.31-0.04-0.55-0.11-0.7c-0.07-0.16-0.16-0.27-0.27-0.33C52.06,26.78,51.94,26.75,51.79,26.75 M51.77,26.64
			c0.46-0.01,0.83,0.1,1.12,0.33c0.29,0.23,0.43,0.53,0.43,0.88c0,0.3-0.11,0.56-0.32,0.79c-0.28,0.3-0.68,0.45-1.2,0.45
			s-0.92-0.14-1.2-0.43c-0.22-0.23-0.34-0.5-0.34-0.81c0-0.35,0.15-0.65,0.44-0.88C50.99,26.73,51.34,26.62,51.77,26.64"/>
		<path class="st0" d="M54.65,26.81v1.02c0.05,0,0.08,0,0.11,0c0.17,0,0.31-0.04,0.4-0.13c0.09-0.08,0.14-0.22,0.14-0.39
			c0-0.18-0.05-0.3-0.14-0.39c-0.09-0.08-0.23-0.12-0.42-0.12L54.65,26.81L54.65,26.81z M54.65,27.97v0.66
			c0,0.13,0.01,0.21,0.03,0.24c0.02,0.03,0.05,0.06,0.1,0.08s0.14,0.03,0.27,0.03v0.06h-1.47v-0.06c0.13,0,0.22-0.01,0.27-0.03
			s0.08-0.05,0.1-0.08c0.02-0.03,0.03-0.11,0.03-0.24v-1.54c0-0.13-0.01-0.21-0.03-0.24c-0.02-0.03-0.05-0.06-0.1-0.08
			s-0.14-0.03-0.27-0.03v-0.06h1.26c0.41,0,0.71,0.06,0.89,0.18S56,27.13,56,27.31c0,0.15-0.06,0.29-0.17,0.39
			c-0.12,0.11-0.28,0.18-0.48,0.22C55.21,27.95,54.98,27.97,54.65,27.97"/>
		<path class="st0" d="M57.32,26.81v0.96h0.06c0.18,0,0.32-0.05,0.4-0.14s0.13-0.23,0.16-0.42h0.08v1.24h-0.08
			c-0.02-0.14-0.05-0.25-0.11-0.33s-0.12-0.14-0.19-0.17s-0.18-0.04-0.31-0.04v0.67c0,0.13,0.01,0.21,0.02,0.24
			c0.01,0.03,0.04,0.05,0.08,0.07s0.1,0.03,0.18,0.03h0.17c0.27,0,0.49-0.05,0.65-0.15c0.16-0.1,0.28-0.26,0.35-0.47h0.08
			l-0.13,0.75h-2.49v-0.06h0.1c0.08,0,0.15-0.01,0.2-0.04c0.04-0.02,0.07-0.04,0.09-0.08c0.02-0.03,0.02-0.1,0.02-0.22v-1.56
			c0-0.11,0-0.17-0.01-0.2c-0.01-0.04-0.04-0.07-0.08-0.09c-0.05-0.03-0.13-0.05-0.22-0.05h-0.1v-0.06h2.41v0.7h-0.08
			c-0.04-0.17-0.1-0.29-0.17-0.37c-0.07-0.07-0.18-0.13-0.32-0.16c-0.08-0.02-0.23-0.03-0.45-0.03h-0.31V26.81z"/>
		<path class="st0" d="M60.2,26.8v1.04h0.12c0.2,0,0.34-0.01,0.44-0.04c0.1-0.03,0.17-0.08,0.23-0.16c0.06-0.08,0.08-0.18,0.08-0.3
			c0-0.18-0.05-0.31-0.15-0.4c-0.1-0.09-0.27-0.13-0.5-0.13L60.2,26.8L60.2,26.8z M60.2,27.96v0.66c0,0.13,0.01,0.21,0.03,0.24
			c0.02,0.03,0.05,0.06,0.1,0.08s0.14,0.03,0.27,0.03v0.06h-1.48v-0.06c0.13,0,0.22-0.01,0.27-0.03s0.08-0.05,0.1-0.08
			c0.02-0.03,0.03-0.11,0.03-0.24v-1.54c0-0.13-0.01-0.21-0.03-0.24c-0.02-0.03-0.05-0.06-0.1-0.08s-0.14-0.03-0.27-0.03v-0.06h1.34
			c0.35,0,0.6,0.02,0.77,0.06c0.16,0.04,0.29,0.11,0.4,0.22c0.1,0.11,0.15,0.23,0.15,0.37c0,0.17-0.08,0.32-0.23,0.43
			c-0.1,0.07-0.23,0.13-0.41,0.16l0.69,0.8c0.09,0.1,0.16,0.17,0.19,0.19c0.06,0.04,0.13,0.06,0.2,0.06v0.06h-0.91l-0.93-1.08H60.2
			V27.96z"/>
		<path class="st0" d="M64.79,26.67v0.64h-0.08c-0.05-0.15-0.1-0.25-0.15-0.32c-0.06-0.06-0.13-0.12-0.23-0.15
			c-0.05-0.02-0.15-0.03-0.28-0.03h-0.21v1.83c0,0.12,0.01,0.2,0.02,0.23c0.02,0.03,0.05,0.06,0.1,0.08
			c0.05,0.02,0.11,0.03,0.19,0.03h0.1v0.06h-1.51v-0.06h0.1c0.08,0,0.15-0.01,0.2-0.04c0.04-0.02,0.07-0.04,0.09-0.08
			c0.02-0.03,0.02-0.1,0.02-0.22v-1.83h-0.21c-0.19,0-0.34,0.03-0.42,0.1c-0.12,0.09-0.2,0.23-0.23,0.4h-0.08v-0.64
			C62.21,26.67,64.79,26.67,64.79,26.67z"/>
		<path class="st0" d="M68.04,26.67v0.06c-0.1,0.01-0.17,0.03-0.22,0.07c-0.07,0.05-0.18,0.18-0.34,0.4l-0.63,0.86v0.57
			c0,0.12,0.01,0.2,0.02,0.23c0.02,0.03,0.05,0.06,0.09,0.08c0.05,0.02,0.11,0.03,0.18,0.03h0.16v0.06h-1.62v-0.06h0.15
			c0.09,0,0.15-0.01,0.2-0.04c0.04-0.02,0.07-0.04,0.09-0.08c0.02-0.03,0.02-0.1,0.02-0.22v-0.48l-0.68-1.01
			c-0.13-0.2-0.23-0.32-0.28-0.35c-0.06-0.04-0.13-0.05-0.22-0.06v-0.06h1.38v0.06h-0.06c-0.08,0-0.14,0.01-0.18,0.03
			c-0.03,0.02-0.05,0.04-0.05,0.06c0,0.04,0.06,0.15,0.17,0.32l0.52,0.78l0.52-0.71c0.13-0.17,0.19-0.29,0.19-0.35
			c0-0.03-0.02-0.06-0.06-0.08c-0.05-0.03-0.14-0.05-0.27-0.05v-0.06H68.04z"/>
		<path class="st0" d="M72.48,27.69l1.3-2.6h1.96v0.11h-0.16c-0.14,0-0.26,0.02-0.34,0.06c-0.06,0.03-0.11,0.07-0.14,0.14
			c-0.03,0.05-0.04,0.17-0.04,0.36v2.6c0,0.2,0.01,0.33,0.04,0.38s0.08,0.09,0.16,0.13s0.19,0.06,0.32,0.06h0.16v0.11h-2.51v-0.11
			h0.16c0.14,0,0.26-0.02,0.34-0.06c0.06-0.03,0.11-0.07,0.14-0.14c0.03-0.05,0.04-0.17,0.04-0.37v-2.93l-1.84,3.6h-0.09l-1.87-3.58
			v2.78c0,0.19,0.01,0.31,0.02,0.36c0.03,0.1,0.1,0.18,0.2,0.24s0.26,0.09,0.48,0.09v0.11h-1.65v-0.11h0.05
			c0.11,0,0.21-0.01,0.3-0.04c0.09-0.03,0.16-0.07,0.21-0.12c0.05-0.05,0.08-0.12,0.11-0.21c0-0.02,0.01-0.12,0.01-0.3v-2.5
			c0-0.2-0.01-0.32-0.04-0.37s-0.08-0.09-0.16-0.13s-0.19-0.06-0.32-0.06h-0.15v-0.11h1.96L72.48,27.69z"/>
		<path class="st0" d="M77.61,28.24l-0.43-0.82l-0.44,0.82H77.61z M77.68,28.36h-1.02l-0.12,0.23c-0.04,0.08-0.06,0.14-0.06,0.19
			c0,0.07,0.03,0.12,0.1,0.15c0.04,0.02,0.13,0.03,0.28,0.04v0.06H75.9v-0.06c0.1-0.01,0.19-0.05,0.26-0.11s0.15-0.18,0.25-0.36
			l1.03-1.89h0.04l1.04,1.94c0.1,0.18,0.18,0.3,0.24,0.35c0.05,0.04,0.12,0.06,0.2,0.06v0.06h-1.4v-0.06h0.06
			c0.11,0,0.19-0.01,0.24-0.04c0.03-0.02,0.05-0.05,0.05-0.08c0-0.02,0-0.04-0.01-0.06c0-0.01-0.02-0.05-0.06-0.13L77.68,28.36z"/>
		<path class="st0" d="M80.1,26.67l1.42,1.47v-1.02c0-0.14-0.02-0.24-0.07-0.29c-0.07-0.07-0.18-0.1-0.34-0.1v-0.06h0.95v0.06
			c-0.12,0.01-0.2,0.03-0.25,0.05c-0.04,0.02-0.07,0.05-0.1,0.1c-0.02,0.05-0.04,0.12-0.04,0.24v1.97H81.6l-1.95-1.97v1.51
			c0,0.14,0.04,0.23,0.11,0.28c0.09,0.04,0.18,0.06,0.28,0.06h0.07v0.06h-1.02v-0.06c0.16,0,0.27-0.03,0.33-0.08
			c0.06-0.05,0.09-0.14,0.09-0.27v-1.67l-0.06-0.06c-0.06-0.06-0.11-0.1-0.16-0.12s-0.11-0.03-0.2-0.03v-0.06L80.1,26.67L80.1,26.67
			z"/>
		<path class="st0" d="M83.91,28.24l-0.43-0.82l-0.44,0.82H83.91z M83.98,28.36h-1.02l-0.12,0.23c-0.04,0.08-0.06,0.14-0.06,0.19
			c0,0.07,0.03,0.12,0.1,0.15c0.04,0.02,0.13,0.03,0.28,0.04v0.06H82.2v-0.06c0.1-0.01,0.19-0.05,0.26-0.11s0.15-0.18,0.25-0.36
			l1.03-1.89h0.04l1.04,1.94c0.1,0.18,0.18,0.3,0.24,0.35c0.05,0.04,0.12,0.06,0.2,0.06v0.06h-1.4v-0.06h0.06
			c0.11,0,0.19-0.01,0.24-0.04c0.03-0.02,0.05-0.05,0.05-0.08c0-0.02,0-0.04-0.01-0.06c0-0.01-0.02-0.05-0.06-0.13L83.98,28.36z"/>
		<path class="st0" d="M88.32,26.62v0.84h-0.08c-0.1-0.23-0.24-0.4-0.43-0.52s-0.4-0.18-0.62-0.18s-0.39,0.05-0.54,0.15
			c-0.14,0.1-0.24,0.24-0.3,0.42c-0.06,0.18-0.09,0.36-0.09,0.55c0,0.23,0.03,0.43,0.1,0.6s0.17,0.3,0.32,0.38s0.32,0.12,0.52,0.12
			c0.07,0,0.14-0.01,0.21-0.02c0.07-0.01,0.15-0.03,0.22-0.05v-0.49c0-0.09-0.01-0.15-0.02-0.18c-0.02-0.03-0.05-0.05-0.1-0.07
			c-0.05-0.02-0.11-0.03-0.18-0.03h-0.07v-0.06h1.4v0.06c-0.11,0.01-0.18,0.02-0.22,0.04s-0.07,0.05-0.1,0.09
			c-0.01,0.02-0.02,0.08-0.02,0.16v0.49c-0.18,0.07-0.38,0.12-0.58,0.15c-0.2,0.03-0.41,0.05-0.62,0.05c-0.27,0-0.5-0.03-0.68-0.09
			s-0.34-0.14-0.48-0.24c-0.14-0.1-0.25-0.21-0.32-0.34c-0.1-0.16-0.15-0.34-0.15-0.54c0-0.36,0.15-0.66,0.46-0.9
			c0.3-0.25,0.69-0.37,1.15-0.37c0.14,0,0.27,0.01,0.39,0.03c0.06,0.01,0.16,0.04,0.3,0.08s0.22,0.07,0.25,0.07
			c0.04,0,0.08-0.01,0.11-0.04c0.03-0.02,0.07-0.07,0.09-0.14h0.08V26.62z"/>
		<path class="st0" d="M89.89,26.81v0.96h0.06c0.18,0,0.32-0.05,0.4-0.14s0.13-0.23,0.16-0.42h0.08v1.24h-0.08
			c-0.02-0.14-0.05-0.25-0.11-0.33c-0.05-0.09-0.12-0.14-0.19-0.17s-0.18-0.04-0.31-0.04v0.67c0,0.13,0.01,0.21,0.02,0.24
			c0.01,0.03,0.04,0.05,0.08,0.07s0.1,0.03,0.18,0.03h0.17c0.27,0,0.49-0.05,0.65-0.15c0.16-0.1,0.28-0.26,0.35-0.47h0.08
			l-0.13,0.75h-2.49v-0.06h0.1c0.08,0,0.15-0.01,0.2-0.04c0.04-0.02,0.07-0.04,0.09-0.08c0.02-0.03,0.02-0.1,0.02-0.22v-1.56
			c0-0.11,0-0.17-0.01-0.2c-0.01-0.04-0.04-0.07-0.08-0.09c-0.05-0.03-0.13-0.05-0.22-0.05h-0.1v-0.06h2.41v0.7h-0.08
			c-0.04-0.17-0.1-0.29-0.17-0.37c-0.07-0.07-0.18-0.13-0.32-0.16c-0.08-0.02-0.23-0.03-0.45-0.03h-0.31V26.81z"/>
		<path class="st0" d="M93.68,28.23l0.78-1.56h1.17v0.06h-0.09c-0.09,0-0.15,0.01-0.2,0.04c-0.04,0.02-0.06,0.04-0.09,0.08
			c-0.02,0.03-0.02,0.1-0.02,0.22v1.56c0,0.12,0.01,0.2,0.02,0.23c0.02,0.03,0.05,0.06,0.1,0.08c0.05,0.02,0.11,0.03,0.19,0.03h0.09
			v0.06h-1.51v-0.06h0.09c0.09,0,0.15-0.01,0.2-0.04c0.04-0.02,0.06-0.04,0.09-0.08c0.02-0.03,0.02-0.1,0.02-0.22v-1.76l-1.11,2.16
			h-0.05l-1.12-2.15v1.67c0,0.12,0,0.19,0.01,0.21c0.02,0.06,0.06,0.11,0.12,0.14c0.06,0.04,0.16,0.06,0.29,0.06v0.06h-0.99v-0.06
			h0.03c0.06,0,0.12-0.01,0.18-0.03s0.1-0.04,0.13-0.07s0.05-0.07,0.07-0.13c0-0.01,0-0.07,0-0.18v-1.5c0-0.12-0.01-0.19-0.02-0.22
			s-0.05-0.06-0.1-0.08c-0.05-0.02-0.11-0.03-0.19-0.03h-0.09v-0.06h1.18L93.68,28.23z"/>
		<path class="st0" d="M96.91,26.81v0.96h0.06c0.18,0,0.32-0.05,0.4-0.14s0.13-0.23,0.16-0.42h0.08v1.24h-0.08
			c-0.02-0.14-0.05-0.25-0.11-0.33c-0.05-0.09-0.12-0.14-0.19-0.17s-0.18-0.04-0.31-0.04v0.67c0,0.13,0.01,0.21,0.02,0.24
			c0.01,0.03,0.04,0.05,0.08,0.07s0.1,0.03,0.18,0.03h0.17c0.27,0,0.49-0.05,0.65-0.15c0.16-0.1,0.28-0.26,0.35-0.47h0.08
			l-0.13,0.75h-2.49v-0.06h0.1c0.08,0,0.15-0.01,0.2-0.04c0.04-0.02,0.07-0.04,0.09-0.08c0.02-0.03,0.02-0.1,0.02-0.22v-1.56
			c0-0.11,0-0.17-0.01-0.2c-0.01-0.04-0.04-0.07-0.08-0.09c-0.05-0.03-0.13-0.05-0.22-0.05h-0.1v-0.06h2.41v0.7h-0.1
			c-0.04-0.17-0.1-0.29-0.17-0.37c-0.07-0.07-0.18-0.13-0.32-0.16c-0.08-0.02-0.23-0.03-0.45-0.03h-0.29V26.81z"/>
		<path class="st0" d="M99.71,26.67l1.42,1.47v-1.02c0-0.14-0.02-0.24-0.07-0.29c-0.07-0.07-0.18-0.1-0.34-0.1v-0.06h0.95v0.06
			c-0.12,0.01-0.2,0.03-0.25,0.05c-0.04,0.02-0.07,0.05-0.1,0.1c-0.02,0.05-0.04,0.12-0.04,0.24v1.97h-0.07l-1.95-1.97v1.51
			c0,0.14,0.04,0.23,0.11,0.28c0.08,0.05,0.16,0.07,0.26,0.07h0.07v0.06h-1.02v-0.06c0.16,0,0.27-0.03,0.33-0.08
			c0.06-0.05,0.09-0.14,0.09-0.27v-1.68l-0.06-0.06c-0.06-0.06-0.11-0.1-0.16-0.12s-0.11-0.03-0.2-0.03v-0.06L99.71,26.67
			L99.71,26.67z"/>
		<path class="st0" d="M104.52,26.67v0.64h-0.08c-0.05-0.15-0.1-0.25-0.15-0.32c-0.06-0.06-0.13-0.12-0.23-0.15
			c-0.05-0.02-0.15-0.03-0.28-0.03h-0.21v1.83c0,0.12,0.01,0.2,0.02,0.23c0.02,0.03,0.05,0.06,0.1,0.08
			c0.05,0.02,0.11,0.03,0.19,0.03h0.1v0.06h-1.51v-0.06h0.1c0.08,0,0.15-0.01,0.2-0.04c0.04-0.02,0.07-0.04,0.09-0.08
			c0.02-0.03,0.02-0.1,0.02-0.22v-1.83h-0.21c-0.19,0-0.34,0.03-0.42,0.1c-0.12,0.09-0.2,0.23-0.23,0.4h-0.08v-0.64
			C101.94,26.67,104.52,26.67,104.52,26.67z"/>
	</g>
</g>
</svg>
