<?xml version="1.0" encoding="utf-8"?>
<!-- Generator: Adobe Illustrator 23.0.2, SVG Export Plug-In . SVG Version: 6.00 Build 0)  -->
<svg version="1.1" id="Calque_1" xmlns="http://www.w3.org/2000/svg" xmlns:xlink="http://www.w3.org/1999/xlink" x="0px" y="0px"
	 viewBox="0 0 100 100" style="enable-background:new 0 0 100 100;" xml:space="preserve">
<style type="text/css">
	.st0{fill:#30374B;}
</style>
<g>
	<path class="st0" d="M46.12,50.18c-6.05,0-10.95-4.9-10.95-10.95c0-6.05,4.9-10.95,10.95-10.95c3.45,0,6.53,1.6,8.53,4.09
		l8.27-6.65c-3.95-4.91-10.01-8.05-16.8-8.05c-11.9,0-21.55,9.65-21.55,21.55c0,11.9,9.65,21.55,21.55,21.55
		c6.73,0,12.74-3.09,16.7-7.92l-8.22-6.71C52.59,48.61,49.54,50.18,46.12,50.18z"/>
	<path class="st0" d="M54.6,46.16c1.54-1.89,2.47-4.3,2.47-6.92c0-2.6-0.91-4.98-2.42-6.86l-8.53,6.86L54.6,46.16z"/>
	<path class="st0" d="M78.46,39.23c0-7.67-2.67-14.72-7.13-20.26l-8.41,6.76c2.97,3.7,4.76,8.39,4.76,13.5
		c0,5.17-1.82,9.92-4.86,13.63l8.36,6.82C75.73,54.11,78.46,46.99,78.46,39.23z"/>
	<g>
		<path class="st0" d="M19.05,75c0.62,0.28,1.58,0.55,2.57,0.55c1.06,0,1.62-0.38,1.62-0.96c0-0.55-0.49-0.87-1.72-1.25
			c-1.7-0.51-2.81-1.33-2.81-2.62c0-1.52,1.46-2.68,3.87-2.68c1.15,0,2,0.21,2.61,0.45l-0.52,1.62c-0.41-0.17-1.14-0.42-2.14-0.42
			s-1.49,0.4-1.49,0.86c0,0.57,0.58,0.82,1.9,1.25c1.81,0.58,2.66,1.4,2.66,2.65c0,1.49-1.32,2.75-4.13,2.75
			c-1.17,0-2.32-0.26-2.9-0.54L19.05,75z"/>
		<path class="st0" d="M36.54,72.53c0,2.91-2.03,4.68-5.02,4.68c-3.04,0-4.81-1.99-4.81-4.52c0-2.66,1.96-4.65,4.98-4.65
			C34.82,68.04,36.54,70.08,36.54,72.53z M29.15,72.65c0,1.74,0.94,2.97,2.49,2.97c1.56,0,2.46-1.29,2.46-3.02
			c0-1.59-0.88-2.97-2.47-2.97C30.06,69.63,29.15,70.92,29.15,72.65z"/>
		<path class="st0" d="M45.57,76.82c-0.42,0.18-1.38,0.38-2.63,0.38c-3.54,0-5.36-1.91-5.36-4.44c0-3.03,2.49-4.72,5.59-4.72
			c1.2,0,2.11,0.21,2.52,0.4l-0.47,1.59c-0.47-0.17-1.12-0.33-1.94-0.33c-1.84,0-3.26,0.96-3.26,2.94c0,1.78,1.21,2.9,3.28,2.9
			c0.7,0,1.47-0.13,1.93-0.29L45.57,76.82z"/>
		<path class="st0" d="M56,72.53c0,2.91-2.03,4.68-5.02,4.68c-3.04,0-4.81-1.99-4.81-4.52c0-2.66,1.96-4.65,4.98-4.65
			C54.28,68.04,56,70.08,56,72.53z M48.6,72.65c0,1.74,0.94,2.97,2.49,2.97c1.56,0,2.46-1.29,2.46-3.02c0-1.59-0.88-2.97-2.47-2.97
			C49.52,69.63,48.6,70.92,48.6,72.65z"/>
		<path class="st0" d="M59.06,69.87h-2.75v-1.69h7.86v1.69h-2.79v7.2h-2.32V69.87z"/>
		<path class="st0" d="M71.49,73.31h-3.76v2.11h4.2v1.65h-6.53v-8.88h6.31v1.65h-3.99v1.85h3.76V73.31z"/>
		<path class="st0" d="M81.03,76.82C80.6,77,79.65,77.2,78.4,77.2c-3.54,0-5.36-1.91-5.36-4.44c0-3.03,2.49-4.72,5.59-4.72
			c1.2,0,2.11,0.21,2.52,0.4l-0.47,1.59c-0.47-0.17-1.12-0.33-1.94-0.33c-1.84,0-3.26,0.96-3.26,2.94c0,1.78,1.21,2.9,3.28,2.9
			c0.7,0,1.47-0.13,1.93-0.29L81.03,76.82z"/>
	</g>
</g>
</svg>
