<?xml version="1.0" encoding="utf-8"?>
<!-- Generator: Adobe Illustrator 23.0.2, SVG Export Plug-In . SVG Version: 6.00 Build 0)  -->
<svg version="1.1" id="Calque_1" xmlns="http://www.w3.org/2000/svg" xmlns:xlink="http://www.w3.org/1999/xlink" x="0px" y="0px"
	 viewBox="0 0 32 34" style="enable-background:new 0 0 32 34;" xml:space="preserve">
<style type="text/css">
	.st0{fill-rule:evenodd;clip-rule:evenodd;fill:#F9C72C;}
</style>
<title>Group 8</title>
<desc>Created with Sketch.</desc>
<g id="Landing">
	<g transform="translate(-425.000000, -1621.000000)">
		<g id="Group-19" transform="translate(168.000000, 1230.000000)">
			<g id="Group-18" transform="translate(0.000000, 288.000000)">
				<g id="Group-8" transform="translate(257.000000, 102.000000)">
					<polygon id="Fill-1" class="st0" points="1.53,16.85 0,16.85 0,18.38 0,28.83 0,30.36 1.53,30.36 6.52,30.36 4.62,32.26 
						5.68,33.33 8.35,30.66 9.42,29.59 8.35,28.53 5.68,25.86 4.62,26.92 6.52,28.83 1.53,28.83 1.53,18.38 8.36,18.38 8.36,16.85 
											"/>
					<polygon id="Fill-2" class="st0" points="29.98,5.31 23.15,5.31 23.15,6.84 29.98,6.84 29.98,17.29 24.99,17.29 26.9,15.39 
						25.83,14.32 23.16,16.99 22.1,18.06 23.16,19.12 25.83,21.79 26.9,20.72 24.99,18.82 29.98,18.82 31.51,18.82 31.51,5.31 					
						"/>
					<g id="Group-7" transform="translate(9.600000, 0.466240)">
						<path id="Fill-3" class="st0" d="M2.77,6.72h6.81V4.5H2.77V6.72z M11.05,1.13H1.3c-0.4,0-0.72,0.32-0.72,0.72v7.51
							c0,0.4,0.32,0.72,0.72,0.72h9.76c0.4,0,0.72-0.32,0.72-0.72V1.85C11.77,1.46,11.45,1.13,11.05,1.13L11.05,1.13z"/>
						<path id="Fill-5" class="st0" d="M2.77,18.7h6.81v-2.21H2.77V18.7z M11.05,13.12H1.3c-0.4,0-0.72,0.32-0.72,0.72v7.51
							c0,0.4,0.32,0.72,0.72,0.72h9.76c0.4,0,0.72-0.32,0.72-0.72v-7.51C11.77,13.44,11.45,13.12,11.05,13.12L11.05,13.12z"/>
						<path id="Fill-6" class="st0" d="M2.77,30.23h6.81v-2.21H2.77V30.23z M11.05,24.65H1.3c-0.4,0-0.72,0.32-0.72,0.72v7.51
							c0,0.4,0.32,0.72,0.72,0.72h9.76c0.4,0,0.72-0.32,0.72-0.72v-7.51C11.77,24.97,11.45,24.65,11.05,24.65L11.05,24.65z"/>
					</g>
				</g>
			</g>
		</g>
	</g>
</g>
</svg>
