<svg version="1.1" id="Calque_1" xmlns="http://www.w3.org/2000/svg" x="0" y="0" viewBox="0 0 32 34" xml:space="preserve"><style>.st0{fill-rule:evenodd;clip-rule:evenodd;fill:#f9c72c}</style><g transform="translate(-425 -1621)" id="Landing"><g id="Group-19" transform="translate(168 1230)"><g id="Group-18" transform="translate(0 288)"><g id="Group-8" transform="translate(257 102)"><path id="Fill-1" class="st0" d="M1.53 16.85H0V30.36H6.52l-1.9 1.9 1.06 1.07 2.67-2.67 1.07-1.07-1.07-1.06-2.67-2.67-1.06 1.06 1.9 1.91H1.53V18.38h6.83v-1.53z"/><path id="Fill-2" class="st0" d="M29.98 5.31h-6.83v1.53h6.83v10.45h-4.99l1.91-1.9-1.07-1.07-2.67 2.67-1.06 1.07 1.06 1.06 2.67 2.67 1.07-1.07-1.91-1.9H31.51V5.31z"/><g id="Group-7" transform="translate(9.6 .466)"><path id="Fill-3" class="st0" d="M2.77 6.72h6.81V4.5H2.77v2.22zm8.28-5.59H1.3c-.4 0-.72.32-.72.72v7.51c0 .4.32.72.72.72h9.76c.4 0 .72-.32.72-.72V1.85a.739.739 0 0 0-.73-.72z"/><path id="Fill-5" class="st0" d="M2.77 18.7h6.81v-2.21H2.77v2.21zm8.28-5.58H1.3c-.4 0-.72.32-.72.72v7.51c0 .4.32.72.72.72h9.76c.4 0 .72-.32.72-.72v-7.51a.732.732 0 0 0-.73-.72z"/><path id="Fill-6" class="st0" d="M2.77 30.23h6.81v-2.21H2.77v2.21zm8.28-5.58H1.3c-.4 0-.72.32-.72.72v7.51c0 .4.32.72.72.72h9.76c.4 0 .72-.32.72-.72v-7.51a.732.732 0 0 0-.73-.72z"/></g></g></g></g></g></svg>