<svg version="1.1" id="Calque_1" xmlns="http://www.w3.org/2000/svg" x="0" y="0" viewBox="0 0 72 97" xml:space="preserve"><style>.st1{fill:#cfe7ff}.st3{fill:#c7e3f9}.st8{opacity:.26;fill:#f5feff}.st9{fill:#b5d2ea}.st10{fill:#e3f2ff}.st11{fill:#eef5ff}</style><linearGradient id="SVGID_1_" gradientUnits="userSpaceOnUse" x1=".438" y1="69.036" x2="71.575" y2="69.036"><stop offset="0" stop-color="#e1efff"/><stop offset="1" stop-color="#cfe7ff"/></linearGradient><path fill="url(#SVGID_1_)" d="M.44 69.04l35.57 20.53 35.57-20.53L36.01 48.5z"/><path class="st1" d="M36.01 89.57v6.83l35.57-20.54v-6.82z"/><linearGradient id="SVGID_2_" gradientUnits="userSpaceOnUse" x1="4.036" y1="74.339" x2="34.68" y2="92.456"><stop offset="0" stop-color="#eef5ff"/><stop offset="1" stop-color="#cfe7ff"/></linearGradient><path fill="url(#SVGID_2_)" d="M.44 69.04v6.84L36.01 96.4v-6.83z"/><path class="st1" d="M12.29 69.04l23.72 13.69 23.71-13.69-23.71-13.69zM12.29 34.76l23.72 13.69 23.71-13.69-23.71-13.69z"/><path class="st3" d="M36.01 48.45v34.28l23.71-13.69V34.76zM12.29 34.76v34.28l23.72 13.69V48.45z"/><linearGradient id="SVGID_3_" gradientUnits="userSpaceOnUse" x1=".438" y1="21.14" x2="71.576" y2="21.14"><stop offset="0" stop-color="#e1efff"/><stop offset="1" stop-color="#cfe7ff"/></linearGradient><path fill="url(#SVGID_3_)" d="M.44 21.14l35.57 20.54 35.57-20.54L36.01.6z"/><path class="st1" d="M36.01 41.68v6.82l35.57-20.54v-6.82z"/><linearGradient id="SVGID_4_" gradientUnits="userSpaceOnUse" x1="4.036" y1="26.443" x2="34.68" y2="44.559"><stop offset="0" stop-color="#eef5ff"/><stop offset="1" stop-color="#cfe7ff"/></linearGradient><path fill="url(#SVGID_4_)" d="M.44 21.14v6.84L36.01 48.5v-6.82z"/><linearGradient id="SVGID_5_" gradientUnits="userSpaceOnUse" x1="36.007" y1="58.768" x2="71.576" y2="58.768"><stop offset="0" stop-color="#e1efff"/><stop offset="1" stop-color="#cfe7ff"/></linearGradient><path opacity=".34" fill="url(#SVGID_5_)" d="M71.58 27.96v41.08L36.01 89.57V48.5z"/><linearGradient id="SVGID_6_" gradientUnits="userSpaceOnUse" x1=".471" y1="58.768" x2="36.039" y2="58.768"><stop offset="0" stop-color="#e1efff"/><stop offset="1" stop-color="#cfe7ff"/></linearGradient><path opacity=".34" fill="url(#SVGID_6_)" d="M.47 27.96v41.08l35.57 20.53V48.5z"/><path class="st8" d="M18.21 38.49l5.93 3.42-20.9 29.01-2.78-1.63-.04-5.36zM25.93 42.95l5.93 3.43-20.9 29-2.78-1.62-2.7-1.54 2.67-3.83z"/><path class="st9" d="M16.25 43.96l.61.36v20.53l-.61-.35zM19.25 45.72l.61.35V66.6l-.61-.35zM28.14 50.83l.61.35v20.53l-.61-.35zM31.14 52.59l.61.35v20.53l-.61-.35zM22.17 47.4l.62.35v20.53l-.62-.35zM25.12 49.13l.62.36v20.53l-.62-.35z"/><path class="st10" d="M41.93 51.92l11.86-6.84v.59l-11.86 6.96zM41.93 55.27l11.86-6.85v.6l-11.86 6.95zM41.94 58.76l11.86-6.84v.59l-11.86 6.96zM41.94 62.11l11.86-6.85v.6l-11.86 6.95zM41.95 65.6l11.86-6.84v.59l-11.86 6.96zM41.95 68.95l11.86-6.85v.6l-11.86 6.95zM41.95 72.43l11.86-6.85v.6l-11.86 6.95z"/><path class="st11" d="M36.01 7.43l1.17.67-23.62 13.75-1.27-.73zM38.47 8.81l1.17.68-23.61 13.74-1.27-.73zM40.71 10.13l1.17.68-23.62 13.75-1.27-.74zM43.15 11.55l1.17.67-23.61 13.75-1.27-.73zM45.62 12.93l1.17.68-23.61 13.75-1.27-.74zM47.85 14.25l1.17.68-23.61 13.75-1.27-.74zM50.17 15.54l1.17.68-23.61 13.74-1.27-.73zM52.64 16.92l1.17.68L30.2 31.35l-1.27-.74zM54.87 18.25l1.17.67-23.61 13.75-1.27-.73zM57.32 19.73l1.16.67-23.61 13.75-1.27-.73z"/><linearGradient id="SVGID_7_" gradientUnits="userSpaceOnUse" x1="5.753" y1="20.85" x2="53.943" y2="20.85"><stop offset="0" stop-color="#eef5ff"/><stop offset="1" stop-color="#eef5ff"/></linearGradient><path fill="url(#SVGID_7_)" d="M35.77 38.52L5.75 20.58l29.87-17.4.31.54L6.98 20.59l28.8 17.21 17.86-9.91.3.55z"/></svg>