<svg version="1.1" id="Calque_1" xmlns="http://www.w3.org/2000/svg" x="0" y="0" viewBox="0 0 100 100" xml:space="preserve"><style>.st0{fill:#30374b}</style><path class="st0" d="M46.12 50.18c-6.05 0-10.95-4.9-10.95-10.95 0-6.05 4.9-10.95 10.95-10.95 3.45 0 6.53 1.6 8.53 4.09l8.27-6.65c-3.95-4.91-10.01-8.05-16.8-8.05-11.9 0-21.55 9.65-21.55 21.55s9.65 21.55 21.55 21.55c6.73 0 12.74-3.09 16.7-7.92l-8.22-6.71a10.899 10.899 0 0 1-8.48 4.04z"/><path class="st0" d="M54.6 46.16a10.927 10.927 0 0 0 .05-13.78l-8.53 6.86 8.48 6.92zM78.46 39.23c0-7.67-2.67-14.72-7.13-20.26l-8.41 6.76c2.97 3.7 4.76 8.39 4.76 13.5 0 5.17-1.82 9.92-4.86 13.63l8.36 6.82a32.214 32.214 0 0 0 7.28-20.45zM19.05 75c.62.28 1.58.55 2.57.55 1.06 0 1.62-.38 1.62-.96 0-.55-.49-.87-1.72-1.25-1.7-.51-2.81-1.33-2.81-2.62 0-1.52 1.46-2.68 3.87-2.68 1.15 0 2 .21 2.61.45l-.52 1.62c-.41-.17-1.14-.42-2.14-.42s-1.49.4-1.49.86c0 .57.58.82 1.9 1.25 1.81.58 2.66 1.4 2.66 2.65 0 1.49-1.32 2.75-4.13 2.75-1.17 0-2.32-.26-2.9-.54l.48-1.66zM36.54 72.53c0 2.91-2.03 4.68-5.02 4.68-3.04 0-4.81-1.99-4.81-4.52 0-2.66 1.96-4.65 4.98-4.65 3.13 0 4.85 2.04 4.85 4.49zm-7.39.12c0 1.74.94 2.97 2.49 2.97 1.56 0 2.46-1.29 2.46-3.02 0-1.59-.88-2.97-2.47-2.97-1.57 0-2.48 1.29-2.48 3.02zM45.57 76.82c-.42.18-1.38.38-2.63.38-3.54 0-5.36-1.91-5.36-4.44 0-3.03 2.49-4.72 5.59-4.72 1.2 0 2.11.21 2.52.4l-.47 1.59c-.47-.17-1.12-.33-1.94-.33-1.84 0-3.26.96-3.26 2.94 0 1.78 1.21 2.9 3.28 2.9.7 0 1.47-.13 1.93-.29l.34 1.57zM56 72.53c0 2.91-2.03 4.68-5.02 4.68-3.04 0-4.81-1.99-4.81-4.52 0-2.66 1.96-4.65 4.98-4.65 3.13 0 4.85 2.04 4.85 4.49zm-7.4.12c0 1.74.94 2.97 2.49 2.97 1.56 0 2.46-1.29 2.46-3.02 0-1.59-.88-2.97-2.47-2.97-1.56 0-2.48 1.29-2.48 3.02zM59.06 69.87h-2.75v-1.69h7.86v1.69h-2.79v7.2h-2.32v-7.2zM71.49 73.31h-3.76v2.11h4.2v1.65H65.4v-8.88h6.31v1.65h-3.99v1.85h3.76v1.62zM81.03 76.82c-.43.18-1.38.38-2.63.38-3.54 0-5.36-1.91-5.36-4.44 0-3.03 2.49-4.72 5.59-4.72 1.2 0 2.11.21 2.52.4l-.47 1.59c-.47-.17-1.12-.33-1.94-.33-1.84 0-3.26.96-3.26 2.94 0 1.78 1.21 2.9 3.28 2.9.7 0 1.47-.13 1.93-.29l.34 1.57z"/></svg>