<svg version="1.1" id="Calque_1" xmlns="http://www.w3.org/2000/svg" x="0" y="0" viewBox="0 0 114.31 65.14" xml:space="preserve"><style>.st0{fill:#30374b}</style><path class="st0" d="M65.62 42.87c0 3.53-1.84 5.26-5.51 5.26-3.59 0-5.51-1.73-5.51-5.26v-8.94h2.52v8.94c0 1.95.99 2.85 2.98 2.85 2.07 0 2.98-.9 2.98-2.85v-8.94h2.52v8.94h.02zM75.11 47.82v-7.21c0-1.43-.76-1.95-2.22-1.95-.84 0-1.76.3-2.22.98v8.19H68.3V36.71l1.68-.08.38 1.05c.84-.75 1.99-1.2 3.21-1.2 2.37 0 3.9 1.43 3.9 4.13v7.21h-2.36zM82.99 38.51v6.16c0 1.05.54 1.43 1.53 1.43.23 0 .69-.07.92-.15l.15 1.8c-.38.15-1.07.3-1.76.3-2.22 0-3.21-1.28-3.21-3.3v-6.23h-1.46v-1.8h1.53l.46-2.63 1.84-.23v2.85h2.68v1.8h-2.68zM94.31 41.22c-.08-1.95-.99-2.7-2.37-2.7-1.68 0-2.37.83-2.45 2.7h4.82zm-7.27.82c0-3.53 1.61-5.56 4.9-5.56 2.75 0 4.51 1.65 4.51 5.18 0 .38 0 .75-.08 1.13h-6.88c.15 2.33 1.15 3.15 3.29 3.15 1.15 0 2.14-.23 3.06-.6l.31 1.95c-.99.45-2.22.75-3.59.75-3.84.01-5.52-2.02-5.52-6M106.01 39.11c-.61-.3-1.38-.45-2.07-.45-2.29 0-3.06 1.05-3.06 3.53 0 2.78 1.07 3.83 2.98 3.83.84 0 1.61-.23 2.22-.53l.15 1.88c-.61.45-1.68.68-2.83.68-3.29 0-5.05-1.88-5.05-5.86 0-3.68 1.53-5.63 5.05-5.63.99 0 2.07.15 2.75.45l-.14 2.1zM30.87 38.22c0-3.26 0-7.39-.22-11.95-.22-6.95-.22-11.3 0-13.68.22-.87.44-1.74.66-2.17.88 1.95 4.2 8.91 6.42 17.59l-2.88-1.74s0 2.61.22 11.3c0 6.52-.22 9.56-.44 10.64-.22-.43-1.33-1.95-3.76-9.99M16.49 54.29c-2.21-1.09-4.65-3.26-7.52-6.08 3.54-.43 7.52 0 7.52 0V37.57c.22.43.66.87 1.33 1.52.44.65 1.11 1.3 1.99 2.17v5.65c0 3.26-.22 5.21-.22 6.52l-.44 1.51c-.67.22-1.33 0-2.66-.65M45.69 33l-7.08-4.56c-2.88-10.86-7.08-18.9-7.08-18.9l-.22-.22-11.06 8.25c-.66 4.34-.66 14.77-.66 23.24-1.99-2.17-3.1-3.69-3.1-3.69l-.22-.43-8.19 11.52.22.22c7.3 7.17 10.62 7.39 10.84 7.39h.22l.22-.43c7.52-4.78 11.06-6.95 11.06-6.95s.22-3.26.44-8.47c1.77 5.65 3.1 8.69 3.98 8.69 0 0 .22 0 .22-.22h10.18c.9-1.53.23-15.44.23-15.44"/></svg>