<?xml version="1.0" encoding="utf-8"?>
<!-- Generator: Adobe Illustrator 23.0.2, SVG Export Plug-In . SVG Version: 6.00 Build 0)  -->
<svg version="1.1" id="Calque_1" xmlns="http://www.w3.org/2000/svg" xmlns:xlink="http://www.w3.org/1999/xlink" x="0px" y="0px"
	 viewBox="0 0 32 21" style="enable-background:new 0 0 32 21;" xml:space="preserve">
<style type="text/css">
	.st0{fill-rule:evenodd;clip-rule:evenodd;fill:#F9C72C;}
</style>
<title>Fill 1</title>
<desc>Created with Sketch.</desc>
<g id="Landing">
	<g transform="translate(-168.000000, -1628.000000)">
		<g id="Group-19" transform="translate(168.000000, 1230.000000)">
			<g id="Group-18" transform="translate(0.000000, 288.000000)">
				<path id="Fill-1" class="st0" d="M21.82,121.64c-0.42,0-0.9,0.03-1.41,0.07c1.69,1.22,2.87,2.87,2.87,5.02v3.64H32v-3.64
					C32,123.34,25.21,121.64,21.82,121.64 M10.18,121.64c-3.39,0-10.18,1.7-10.18,5.09v3.64h20.36v-3.64
					C20.36,123.34,13.57,121.64,10.18,121.64 M10.18,118.73c2.41,0,4.35-1.95,4.35-4.36c0-2.41-1.93-4.36-4.35-4.36
					s-4.36,1.95-4.36,4.36C5.82,116.78,7.77,118.73,10.18,118.73 M21.82,118.73c2.41,0,4.35-1.95,4.35-4.36
					c0-2.41-1.93-4.36-4.35-4.36s-4.36,1.95-4.36,4.36C17.45,116.78,19.4,118.73,21.82,118.73"/>
			</g>
		</g>
	</g>
</g>
</svg>
