<svg version="1.1" id="Calque_1" xmlns="http://www.w3.org/2000/svg" x="0" y="0" viewBox="0 0 73 54" xml:space="preserve"><style>.st0{fill:#cfe7ff}.st1{fill:#f7f9fc}.st2{fill:#eef5ff}</style><path class="st0" d="M35.35 10.3v6.16l-4.09-2.23z"/><path class="st1" d="M50.76 44.5v6.06l4.88 2.91v-5.86z"/><path class="st0" d="M72.61 37.68v5.94l-16.97 9.85v-5.86z"/><path class="st2" d="M59.75 39.5l-8.99 5 4.88 3.12 16.97-9.94-10.92-6.29 8.78-5.08-4.88-2.85-8.63 5.19-5.82-3.45 8.61-5.09-5.01-2.94-8.53 5.26-14.02-7.78-6.42 4.99z"/><path class="st0" d="M59.75 20.11V26l-3.62 2.16-4.99-2.96zM70.47 26.31v6.09l-3.6 1.98-5.18-2.99z"/><path class="st1" d="M54.57 42.38l-28.8-16.73v-6.01L59.75 39.5z"/><path class="st0" d="M28.27 13.85s-3.16-4.07-10.97-3.63c-7.81.44-9.39 3.77-9.39 3.77s-4.17-4.75 2.46-8.31S25 5.03 25.3 5.17s6.9 3.06 2.97 8.68z"/><path class="st1" d="M.59 11.02v6.61s.5 4.21 5.85 6.54 12.67 3.21 19.33 1.53v-6.06s-8.52 1.84-14.57 0C5.15 17.8 2.08 15.55.59 11.02z"/><path class="st2" d="M18.07.53C8.41.53.58 5.03.58 10.57s7.83 10.04 17.49 10.04 17.49-4.5 17.49-10.04S27.73.53 18.07.53zm0 16.56c-6.27 0-11.35-2.92-11.35-6.52s5.08-6.52 11.35-6.52 11.35 2.92 11.35 6.52-5.08 6.52-11.35 6.52z"/><path class="st2" d="M25.13 19.76l.75-.21v.03l-.11.06-.61.12-.11.02z"/></svg>