<svg version="1.1" id="Calque_1" xmlns="http://www.w3.org/2000/svg" x="0" y="0" viewBox="0 0 68.67 87.75" xml:space="preserve"><style>.st0{fill:#7a8599}.st1{fill:#c7d6e2}.st2{fill:#eef5ff}.st3{fill:#cfe7ff}.st5{fill:#e1efff}.st6{fill:#bfd9ef}</style><path class="st1" d="M15.19 57.03l12.13 7 11.91-6.88-11.91-6.88z"/><path class="st2" d="M15.4 10.37l11.92 6.88v46.78l-12.13-7z"/><path class="st3" d="M39.23 10.37l-11.91 6.88v46.78l11.91-6.88z"/><linearGradient id="SVGID_1_" gradientUnits="userSpaceOnUse" x1="15.4" y1="10.369" x2="39.233" y2="10.369"><stop offset="0" stop-color="#eef5ff"/><stop offset="1" stop-color="#cfe7ff"/></linearGradient><path fill="url(#SVGID_1_)" d="M39.23 10.37L27.32 3.49 15.4 10.37l11.92 6.88z"/><path class="st6" d="M29.18 18.93l1.23-.71v2.76l-1.23.7z"/><path class="st5" d="M30.41 20.98l-.11-.06-1.12.61v.15z"/><path class="st2" d="M30.41 18.22v2.76l-.11-.06v-2.64z"/><path class="st6" d="M31.57 17.55l1.22-.71v2.76l-1.22.7z"/><path class="st5" d="M32.79 19.6l-.1-.06-1.12.61v.15z"/><path class="st2" d="M32.79 16.84v2.76l-.1-.06V16.9z"/><path class="st6" d="M33.95 16.18l1.22-.71v2.76l-1.22.7z"/><path class="st5" d="M35.17 18.23l-.1-.06-1.12.61v.15z"/><path class="st2" d="M35.17 15.47v2.76l-.1-.06v-2.64z"/><path class="st6" d="M36.33 14.8l1.23-.71v2.76l-1.23.7z"/><path class="st5" d="M37.56 16.85l-.1-.06-1.13.61v.15z"/><path class="st2" d="M37.56 14.09v2.76l-.1-.06v-2.64z"/><path class="st6" d="M29.19 23.13l1.22-.71v2.76l-1.22.7z"/><path class="st5" d="M30.41 25.18l-.1-.06-1.12.61v.15z"/><path class="st2" d="M30.41 22.42v2.76l-.1-.06v-2.64z"/><path class="st6" d="M31.58 21.75l1.22-.71v2.77l-1.22.69z"/><path class="st5" d="M32.8 23.81l-.1-.07-1.12.61v.15z"/><path class="st2" d="M32.8 21.04v2.77l-.1-.07V21.1z"/><path class="st6" d="M33.96 20.38l1.22-.71v2.76l-1.22.7z"/><path class="st5" d="M35.18 22.43l-.1-.06-1.12.61v.15z"/><path class="st2" d="M35.18 19.67v2.76l-.1-.06v-2.64z"/><path class="st6" d="M36.34 19l1.23-.71v2.76l-1.23.7z"/><path class="st5" d="M37.57 21.05l-.11-.06-1.12.61v.15z"/><path class="st2" d="M37.57 18.29v2.76l-.11-.06v-2.64z"/><path class="st6" d="M29.19 27.17l1.22-.71v2.76l-1.22.7z"/><path class="st5" d="M30.41 29.22l-.1-.06-1.12.61v.15z"/><path class="st2" d="M30.41 26.46v2.76l-.1-.06v-2.64z"/><path class="st6" d="M31.58 25.79l1.22-.71v2.76l-1.22.7z"/><path class="st5" d="M32.8 27.84l-.1-.06-1.12.61v.15z"/><path class="st2" d="M32.8 25.08v2.76l-.1-.06v-2.64z"/><path class="st6" d="M33.96 24.42l1.22-.71v2.76l-1.22.7z"/><path class="st5" d="M35.18 26.47l-.1-.06-1.12.61v.15z"/><path class="st2" d="M35.18 23.71v2.76l-.1-.06v-2.64z"/><path class="st6" d="M36.34 23.04l1.23-.71v2.76l-1.23.7z"/><path class="st5" d="M37.57 25.09l-.11-.06-1.12.61v.15z"/><path class="st2" d="M37.57 22.33v2.76l-.11-.06v-2.64z"/><path class="st6" d="M29.19 31.36l1.22-.71v2.76l-1.22.7z"/><path class="st5" d="M30.41 33.41l-.1-.06-1.12.61v.15z"/><path class="st2" d="M30.41 30.65v2.76l-.1-.06v-2.64z"/><path class="st6" d="M31.58 29.98l1.22-.71v2.77l-1.22.69z"/><path class="st5" d="M32.8 32.04l-.1-.07-1.12.61v.15z"/><path class="st2" d="M32.8 29.27v2.77l-.1-.07v-2.64z"/><path class="st6" d="M33.96 28.61l1.22-.71v2.76l-1.22.7z"/><path class="st5" d="M35.18 30.66l-.1-.06-1.12.61v.15z"/><path class="st2" d="M35.18 27.9v2.76l-.1-.06v-2.64z"/><path class="st6" d="M36.34 27.23l1.23-.71v2.77l-1.23.69z"/><path class="st5" d="M37.57 29.29l-.11-.07-1.12.61v.15z"/><path class="st2" d="M37.57 26.52v2.77l-.11-.07v-2.64z"/><path class="st6" d="M29.19 35.45l1.22-.71v2.76l-1.22.7z"/><path class="st5" d="M30.41 37.5l-.1-.06-1.12.61v.15z"/><path class="st2" d="M30.41 34.74v2.76l-.1-.06V34.8z"/><path class="st6" d="M31.58 34.07l1.22-.71v2.77l-1.22.69z"/><path class="st5" d="M32.8 36.13l-.1-.07-1.12.61v.15z"/><path class="st2" d="M32.8 33.36v2.77l-.1-.07v-2.64z"/><path class="st6" d="M33.96 32.7l1.22-.71v2.76l-1.22.7z"/><path class="st5" d="M35.18 34.75l-.1-.06-1.12.61v.15z"/><path class="st2" d="M35.18 31.99v2.76l-.1-.06v-2.64z"/><path class="st6" d="M36.34 31.32l1.23-.71v2.76l-1.23.7z"/><path class="st5" d="M37.57 33.37l-.11-.06-1.12.61v.15z"/><path class="st2" d="M37.57 30.61v2.76l-.11-.06v-2.64z"/><path class="st6" d="M29.19 39.59l1.22-.71v2.76l-1.22.7z"/><path class="st5" d="M30.41 41.64l-.1-.06-1.12.61v.15z"/><path class="st2" d="M30.41 38.88v2.76l-.1-.06v-2.64z"/><path class="st6" d="M31.58 38.21l1.22-.71v2.77l-1.22.69z"/><path class="st5" d="M32.8 40.27l-.1-.07-1.12.61v.15z"/><path class="st2" d="M32.8 37.5v2.77l-.1-.07v-2.64z"/><path class="st6" d="M33.96 36.84l1.22-.71v2.76l-1.22.7z"/><path class="st5" d="M35.18 38.89l-.1-.06-1.12.61v.15z"/><path class="st2" d="M35.18 36.13v2.76l-.1-.06v-2.64z"/><path class="st6" d="M36.34 35.46l1.23-.71v2.77l-1.23.69z"/><path class="st5" d="M37.57 37.52l-.11-.07-1.12.61v.15z"/><path class="st2" d="M37.57 34.75v2.77l-.11-.07v-2.64z"/><path class="st6" d="M29.19 43.68l1.22-.71v2.76l-1.22.7z"/><path class="st5" d="M30.41 45.73l-.1-.06-1.12.61v.15z"/><path class="st2" d="M30.41 42.97v2.76l-.1-.06v-2.64z"/><path class="st6" d="M31.58 42.3l1.22-.71v2.77l-1.22.69z"/><path class="st5" d="M32.8 44.36l-.1-.07-1.12.61v.15z"/><path class="st2" d="M32.8 41.59v2.77l-.1-.07v-2.64z"/><path class="st6" d="M33.96 40.93l1.22-.71v2.76l-1.22.7z"/><path class="st5" d="M35.18 42.98l-.1-.06-1.12.61v.15z"/><path class="st2" d="M35.18 40.22v2.76l-.1-.06v-2.64z"/><path class="st6" d="M36.34 39.55l1.23-.71v2.76l-1.23.7z"/><path class="st5" d="M37.57 41.6l-.11-.06-1.12.61v.15z"/><path class="st2" d="M37.57 38.84v2.76l-.11-.06V38.9z"/><path class="st6" d="M29.19 47.77l1.22-.7v2.76l-1.22.7z"/><path class="st5" d="M30.41 49.83l-.1-.07-1.12.62v.15z"/><path class="st2" d="M30.41 47.07v2.76l-.1-.07v-2.63z"/><path class="st6" d="M31.58 46.39l1.22-.7v2.76l-1.22.7z"/><path class="st5" d="M32.8 48.45l-.1-.07-1.12.62v.15z"/><path class="st2" d="M32.8 45.69v2.76l-.1-.07v-2.63z"/><path class="st6" d="M33.96 45.02l1.22-.7v2.76l-1.22.69z"/><path class="st5" d="M35.18 47.08l-.1-.07-1.12.61v.15z"/><path class="st2" d="M35.18 44.32v2.76l-.1-.07v-2.63z"/><path class="st6" d="M36.34 43.64l1.23-.7v2.76l-1.23.7z"/><path class="st5" d="M37.57 45.7l-.11-.07-1.12.62v.15z"/><path class="st2" d="M37.57 42.94v2.76l-.11-.07V43z"/><path class="st6" d="M29.18 51.95l1.23-.71V54l-1.23.7z"/><path class="st5" d="M30.41 54l-.11-.06-1.12.61v.15z"/><path class="st2" d="M30.41 51.24V54l-.11-.06V51.3z"/><path class="st6" d="M31.57 50.57l1.22-.71v2.76l-1.22.7z"/><path class="st5" d="M32.79 52.62l-.1-.06-1.12.61v.15z"/><path class="st2" d="M32.79 49.86v2.76l-.1-.06v-2.64z"/><path class="st6" d="M33.95 49.2l1.22-.71v2.76l-1.22.7z"/><path class="st5" d="M35.17 51.25l-.1-.06-1.12.61v.15z"/><path class="st2" d="M35.17 48.49v2.76l-.1-.06v-2.64z"/><path class="st6" d="M36.34 47.82l1.22-.71v2.76l-1.22.7z"/><path class="st5" d="M37.56 49.87l-.1-.06-1.12.61v.15z"/><path class="st2" d="M37.56 47.11v2.76l-.1-.06v-2.64z"/><path class="st6" d="M29.19 56l1.23-.71v2.76l-1.23.7z"/><path class="st5" d="M30.42 58.05l-.1-.06-1.13.61v.15z"/><path class="st2" d="M30.42 55.29v2.76l-.1-.06v-2.64z"/><path class="st6" d="M31.58 54.62l1.23-.71v2.77l-1.23.69z"/><path class="st5" d="M32.81 56.68l-.11-.07-1.12.61v.15z"/><path class="st2" d="M32.81 53.91v2.77l-.11-.07v-2.64z"/><path class="st6" d="M33.96 53.25l1.23-.71v2.76l-1.23.7z"/><path class="st5" d="M35.19 55.3l-.11-.06-1.12.61V56z"/><path class="st2" d="M35.19 52.54v2.76l-.11-.06V52.6z"/><path class="st6" d="M36.35 51.87l1.22-.71v2.76l-1.22.7z"/><path class="st5" d="M37.57 53.92l-.1-.06-1.12.61v.15z"/><path class="st2" d="M37.57 51.16v2.76l-.1-.06v-2.64z"/><path class="st6" d="M25.5 18.96l-1.23-.71v2.76l1.23.7z"/><path class="st5" d="M24.27 21.01l.11-.06 1.12.61v.15z"/><path class="st3" d="M24.27 18.25v2.76l.11-.06v-2.64z"/><path class="st6" d="M23.11 17.58l-1.22-.71v2.77l1.22.69z"/><path class="st5" d="M21.89 19.64l.1-.07 1.12.61v.15z"/><path class="st3" d="M21.89 16.87v2.77l.1-.07v-2.64z"/><path class="st6" d="M20.73 16.21l-1.22-.71v2.76l1.22.7z"/><path class="st5" d="M19.51 18.26l.1-.06 1.12.61v.15z"/><path class="st3" d="M19.51 15.5v2.76l.1-.06v-2.64z"/><path class="st6" d="M18.35 14.83l-1.23-.71v2.76l1.23.7z"/><path class="st5" d="M17.12 16.88l.1-.06 1.13.61v.15z"/><path class="st3" d="M17.12 14.12v2.76l.1-.06v-2.64z"/><path class="st6" d="M25.49 23.16l-1.22-.71v2.77l1.22.69z"/><path class="st5" d="M24.27 25.22l.1-.07 1.12.61v.15z"/><path class="st3" d="M24.27 22.45v2.77l.1-.07v-2.64z"/><path class="st6" d="M23.1 21.78l-1.22-.7v2.76l1.22.69z"/><path class="st5" d="M21.88 23.84l.1-.07 1.12.61v.15z"/><path class="st3" d="M21.88 21.08v2.76l.1-.07v-2.63z"/><path class="st6" d="M20.72 20.41l-1.22-.71v2.77l1.22.69z"/><path class="st5" d="M19.5 22.47l.1-.07 1.12.61v.15z"/><path class="st3" d="M19.5 19.7v2.77l.1-.07v-2.64z"/><path class="st6" d="M18.34 19.03l-1.23-.7v2.76l1.23.69z"/><path class="st5" d="M17.11 21.09l.11-.07 1.12.61v.15z"/><path class="st3" d="M17.11 18.33v2.76l.11-.07v-2.63z"/><path class="st6" d="M25.49 27.2l-1.22-.71v2.76l1.22.7z"/><path class="st5" d="M24.27 29.25l.1-.06 1.12.61v.15z"/><path class="st3" d="M24.27 26.49v2.76l.1-.06v-2.64z"/><path class="st6" d="M23.1 25.82l-1.22-.71v2.76l1.22.7z"/><path class="st5" d="M21.88 27.87l.1-.06 1.12.61v.15z"/><path class="st3" d="M21.88 25.11v2.76l.1-.06v-2.64z"/><path class="st6" d="M20.72 24.45l-1.22-.71v2.76l1.22.7z"/><path class="st5" d="M19.5 26.5l.1-.06 1.12.61v.15z"/><path class="st3" d="M19.5 23.74v2.76l.1-.06V23.8z"/><path class="st6" d="M18.34 23.07l-1.23-.71v2.76l1.23.7z"/><path class="st5" d="M17.11 25.12l.11-.06 1.12.61v.15z"/><path class="st3" d="M17.11 22.36v2.76l.11-.06v-2.64z"/><path class="st6" d="M25.49 31.39l-1.22-.71v2.77l1.22.69z"/><path class="st5" d="M24.27 33.45l.1-.07 1.12.61v.15z"/><path class="st3" d="M24.27 30.68v2.77l.1-.07v-2.64z"/><path class="st6" d="M23.1 30.01l-1.22-.7v2.76l1.22.7z"/><path class="st5" d="M21.88 32.07l.1-.07 1.12.62v.15z"/><path class="st3" d="M21.88 29.31v2.76l.1-.07v-2.63z"/><path class="st6" d="M20.72 28.64l-1.22-.71v2.77l1.22.69z"/><path class="st5" d="M19.5 30.7l.1-.07 1.12.61v.15z"/><path class="st3" d="M19.5 27.93v2.77l.1-.07v-2.64z"/><path class="st6" d="M18.34 27.26l-1.23-.7v2.76l1.23.69z"/><path class="st5" d="M17.11 29.32l.11-.07 1.12.61v.15z"/><path class="st3" d="M17.11 26.56v2.76l.11-.07v-2.63z"/><path class="st6" d="M25.49 35.48l-1.22-.71v2.77l1.22.69z"/><path class="st5" d="M24.27 37.54l.1-.07 1.12.61v.15z"/><path class="st3" d="M24.27 34.77v2.77l.1-.07v-2.64z"/><path class="st6" d="M23.1 34.1l-1.22-.7v2.76l1.22.69z"/><path class="st5" d="M21.88 36.16l.1-.07 1.12.61v.15z"/><path class="st3" d="M21.88 33.4v2.76l.1-.07v-2.63z"/><path class="st6" d="M20.72 32.73l-1.22-.71v2.76l1.22.7z"/><path class="st5" d="M19.5 34.78l.1-.06 1.12.61v.15z"/><path class="st3" d="M19.5 32.02v2.76l.1-.06v-2.64z"/><path class="st6" d="M18.34 31.35l-1.23-.71v2.77l1.23.69z"/><path class="st5" d="M17.11 33.41l.11-.07 1.12.61v.15z"/><path class="st3" d="M17.11 30.64v2.77l.11-.07V30.7z"/><path class="st6" d="M25.49 39.62l-1.22-.7v2.76l1.22.69z"/><path class="st5" d="M24.27 41.68l.1-.07 1.12.61v.15z"/><path class="st3" d="M24.27 38.92v2.76l.1-.07v-2.63z"/><path class="st6" d="M23.1 38.24l-1.22-.7v2.76l1.22.7z"/><path class="st5" d="M21.88 40.3l.1-.07 1.12.62V41z"/><path class="st3" d="M21.88 37.54v2.76l.1-.07V37.6z"/><path class="st6" d="M20.72 36.87l-1.22-.71v2.77l1.22.69z"/><path class="st5" d="M19.5 38.93l.1-.07 1.12.61v.15z"/><path class="st3" d="M19.5 36.16v2.77l.1-.07v-2.64z"/><path class="st6" d="M18.34 35.49l-1.23-.7v2.76l1.23.69z"/><path class="st5" d="M17.11 37.55l.11-.07 1.12.61v.15z"/><path class="st3" d="M17.11 34.79v2.76l.11-.07v-2.63z"/><path class="st6" d="M25.49 43.71L24.27 43v2.77l1.22.69z"/><path class="st5" d="M24.27 45.77l.1-.07 1.12.61v.15z"/><path class="st3" d="M24.27 43v2.77l.1-.07v-2.64z"/><path class="st6" d="M23.1 42.33l-1.22-.7v2.76l1.22.69z"/><path class="st5" d="M21.88 44.39l.1-.07 1.12.61v.15z"/><path class="st3" d="M21.88 41.63v2.76l.1-.07v-2.63z"/><path class="st6" d="M20.72 40.96l-1.22-.71v2.77l1.22.69z"/><path class="st5" d="M19.5 43.02l.1-.07 1.12.61v.15z"/><path class="st3" d="M19.5 40.25v2.77l.1-.07v-2.64z"/><path class="st6" d="M18.34 39.58l-1.23-.7v2.76l1.23.69z"/><path class="st5" d="M17.11 41.64l.11-.07 1.12.61v.15z"/><path class="st3" d="M17.11 38.88v2.76l.11-.07v-2.63z"/><path class="st6" d="M25.49 47.81l-1.22-.71v2.76l1.22.7z"/><path class="st5" d="M24.27 49.86l.1-.07 1.12.62v.15z"/><path class="st3" d="M24.27 47.1v2.76l.1-.07v-2.63z"/><path class="st6" d="M23.1 46.43l-1.22-.71v2.76l1.22.7z"/><path class="st5" d="M21.88 48.48l.1-.06 1.12.61v.15z"/><path class="st3" d="M21.88 45.72v2.76l.1-.06v-2.64z"/><path class="st6" d="M20.72 45.05l-1.22-.7v2.76l1.22.7z"/><path class="st5" d="M19.5 47.11l.1-.07 1.12.62v.15z"/><path class="st3" d="M19.5 44.35v2.76l.1-.07v-2.63z"/><path class="st6" d="M18.34 43.68l-1.23-.71v2.76l1.23.7z"/><path class="st5" d="M17.11 45.73l.11-.06 1.12.61v.15z"/><path class="st3" d="M17.11 42.97v2.76l.11-.06v-2.64z"/><path class="st6" d="M25.5 51.98l-1.23-.71v2.76l1.23.7z"/><path class="st5" d="M24.27 54.03l.11-.06 1.12.61v.15z"/><path class="st3" d="M24.27 51.27v2.76l.11-.06v-2.64z"/><path class="st6" d="M23.11 50.6l-1.22-.71v2.77l1.22.69z"/><path class="st5" d="M21.89 52.66l.1-.07 1.12.61v.15z"/><path class="st3" d="M21.89 49.89v2.77l.1-.07v-2.64z"/><path class="st6" d="M20.73 49.23l-1.22-.71v2.76l1.22.7z"/><path class="st5" d="M19.51 51.28l.1-.06 1.12.61v.15z"/><path class="st3" d="M19.51 48.52v2.76l.1-.06v-2.64z"/><path class="st6" d="M18.34 47.85l-1.22-.71v2.77l1.22.69z"/><path class="st5" d="M17.12 49.91l.1-.07 1.12.61v.15z"/><path class="st3" d="M17.12 47.14v2.77l.1-.07V47.2z"/><path class="st6" d="M25.49 56.03l-1.23-.71v2.77l1.23.69z"/><path class="st5" d="M24.26 58.09l.1-.07 1.13.61v.15z"/><path class="st3" d="M24.26 55.32v2.77l.1-.07v-2.64z"/><path class="st6" d="M23.1 54.65l-1.23-.7v2.76l1.23.69z"/><path class="st5" d="M21.87 56.71l.11-.07 1.12.61v.15z"/><path class="st3" d="M21.87 53.95v2.76l.11-.07v-2.63z"/><path class="st6" d="M20.72 53.28l-1.23-.71v2.77l1.23.69z"/><path class="st5" d="M19.49 55.34l.11-.07 1.12.61v.15z"/><path class="st3" d="M19.49 52.57v2.77l.11-.07v-2.64z"/><path class="st6" d="M18.33 51.9l-1.22-.7v2.76l1.22.69z"/><path class="st5" d="M17.11 53.96l.1-.07 1.12.61v.15z"/><path class="st3" d="M17.11 51.2v2.76l.1-.07v-2.63z"/><g><path class="st1" d="M1.22 65.57l12.12 7 11.92-6.88-11.92-6.88z"/><path class="st2" d="M1.43 18.91l11.91 6.88v46.78l-12.12-7z"/><path class="st3" d="M25.26 18.91l-11.92 6.88v46.78l11.92-6.88z"/><linearGradient id="SVGID_2_" gradientUnits="userSpaceOnUse" x1="1.425" y1="18.91" x2="25.258" y2="18.91"><stop offset="0" stop-color="#eef5ff"/><stop offset="1" stop-color="#cfe7ff"/></linearGradient><path fill="url(#SVGID_2_)" d="M25.26 18.91l-11.92-6.88-11.91 6.88 11.91 6.88z"/><path class="st3" d="M13.34 24.16v-3.87l8.65-5v3.79z"/><path class="st2" d="M13.34 20.29l-9-5.2v3.96l9 5.11z"/><linearGradient id="SVGID_3_" gradientUnits="userSpaceOnUse" x1="4.339" y1="15.234" x2="21.993" y2="15.234"><stop offset="0" stop-color="#eef5ff"/><stop offset="1" stop-color="#cfe7ff"/></linearGradient><path fill="url(#SVGID_3_)" d="M21.99 15.29l-8.65-5.11-9 4.91 9 5.2z"/><path class="st2" d="M6.19 15.22v-1.81l7.15 4.12v1.87z"/><path class="st3" d="M20.49 13.41l-7.15 4.12v1.87l7.15-4.04z"/><linearGradient id="SVGID_4_" gradientUnits="userSpaceOnUse" x1="6.192" y1="13.406" x2="20.491" y2="13.406"><stop offset="0" stop-color="#eef5ff"/><stop offset="1" stop-color="#cfe7ff"/></linearGradient><path fill="url(#SVGID_4_)" d="M20.49 13.41l-7.15-4.13-7.15 4.13 7.15 4.12z"/><path class="st3" d="M13.34 16.19l5.29-2.89-5.49-12.06z"/><path class="st2" d="M13.34 16.19l-5.95-3.47 5.75-11.48z"/><path class="st6" d="M15.21 27.47l1.22-.71v2.76l-1.22.7z"/><path class="st5" d="M16.43 29.52l-.1-.06-1.12.61v.15z"/><path class="st2" d="M16.43 26.76v2.76l-.1-.06v-2.64z"/><path class="st6" d="M17.59 26.09l1.23-.71v2.76l-1.23.7z"/><path class="st5" d="M18.82 28.14l-.11-.06-1.12.61v.15z"/><path class="st2" d="M18.82 25.38v2.76l-.11-.06v-2.64z"/><path class="st6" d="M19.97 24.72l1.23-.71v2.76l-1.23.7z"/><path class="st5" d="M21.2 26.77l-.11-.06-1.12.61v.15z"/><path class="st2" d="M21.2 24.01v2.76l-.11-.06v-2.64z"/><path class="st6" d="M22.36 23.34l1.22-.71v2.76l-1.22.7z"/><path class="st5" d="M23.58 25.39l-.1-.06-1.12.61v.15z"/><path class="st2" d="M23.58 22.63v2.76l-.1-.06v-2.64z"/><path class="st6" d="M15.21 31.67l1.23-.71v2.76l-1.23.7z"/><path class="st5" d="M16.44 33.72l-.1-.06-1.13.61v.15z"/><path class="st2" d="M16.44 30.96v2.76l-.1-.06v-2.64z"/><path class="st6" d="M17.6 30.29l1.23-.71v2.77l-1.23.69z"/><path class="st5" d="M18.83 32.35l-.11-.07-1.12.61v.15z"/><path class="st2" d="M18.83 29.58v2.77l-.11-.07v-2.64z"/><path class="st6" d="M19.98 28.92l1.23-.71v2.76l-1.23.7z"/><path class="st5" d="M21.21 30.97l-.11-.06-1.12.61v.15z"/><path class="st2" d="M21.21 28.21v2.76l-.11-.06v-2.64z"/><path class="st6" d="M22.37 27.54l1.22-.71v2.77l-1.22.69z"/><path class="st5" d="M23.59 29.6l-.1-.07-1.12.61v.15z"/><path class="st2" d="M23.59 26.83v2.77l-.1-.07v-2.64z"/><path class="st6" d="M15.21 35.71l1.23-.71v2.76l-1.23.7z"/><path class="st5" d="M16.44 37.76l-.1-.06-1.13.61v.15z"/><path class="st2" d="M16.44 35v2.76l-.1-.06v-2.64z"/><path class="st6" d="M17.6 34.33l1.23-.71v2.76l-1.23.7z"/><path class="st5" d="M18.83 36.38l-.11-.06-1.12.61v.15z"/><path class="st2" d="M18.83 33.62v2.76l-.11-.06v-2.64z"/><path class="st6" d="M19.98 32.96l1.23-.71v2.76l-1.23.7z"/><path class="st5" d="M21.21 35.01l-.11-.06-1.12.61v.15z"/><path class="st2" d="M21.21 32.25v2.76l-.11-.06v-2.64z"/><path class="st6" d="M22.37 31.58l1.22-.71v2.76l-1.22.7z"/><path class="st5" d="M23.59 33.63l-.1-.06-1.12.61v.15z"/><path class="st2" d="M23.59 30.87v2.76l-.1-.06v-2.64z"/><path class="st6" d="M15.21 39.9l1.23-.71v2.76l-1.23.7z"/><path class="st5" d="M16.44 41.95l-.1-.06-1.13.61v.15z"/><path class="st2" d="M16.44 39.19v2.76l-.1-.06v-2.64z"/><path class="st6" d="M17.6 38.52l1.23-.71v2.77l-1.23.69z"/><path class="st5" d="M18.83 40.58l-.11-.07-1.12.61v.15z"/><path class="st2" d="M18.83 37.81v2.77l-.11-.07v-2.64z"/><g><path class="st6" d="M19.98 37.15l1.23-.71v2.76l-1.23.7z"/><path class="st5" d="M21.21 39.2l-.11-.06-1.12.61v.15z"/><path class="st2" d="M21.21 36.44v2.76l-.11-.06V36.5z"/></g><g><path class="st6" d="M22.37 35.77l1.22-.71v2.77l-1.22.69z"/><path class="st5" d="M23.59 37.83l-.1-.07-1.12.61v.15z"/><path class="st2" d="M23.59 35.06v2.77l-.1-.07v-2.64z"/></g><g><path class="st6" d="M15.21 43.99l1.23-.71v2.76l-1.23.7z"/><path class="st5" d="M16.44 46.04l-.1-.06-1.13.61v.15z"/><path class="st2" d="M16.44 43.28v2.76l-.1-.06v-2.64z"/></g><g><path class="st6" d="M17.6 42.61l1.23-.71v2.77l-1.23.69z"/><path class="st5" d="M18.83 44.67l-.11-.07-1.12.61v.15z"/><path class="st2" d="M18.83 41.9v2.77l-.11-.07v-2.64z"/></g><g><path class="st6" d="M19.98 41.24l1.23-.71v2.76l-1.23.7z"/><path class="st5" d="M21.21 43.29l-.11-.06-1.12.61v.15z"/><path class="st2" d="M21.21 40.53v2.76l-.11-.06v-2.64z"/></g><g><path class="st6" d="M22.37 39.86l1.22-.71v2.76l-1.22.7z"/><path class="st5" d="M23.59 41.91l-.1-.06-1.12.61v.15z"/><path class="st2" d="M23.59 39.15v2.76l-.1-.06v-2.64z"/></g><g><path class="st6" d="M15.21 48.13l1.23-.71v2.77l-1.23.69z"/><path class="st5" d="M16.44 50.19l-.1-.07-1.13.61v.15z"/><path class="st2" d="M16.44 47.42v2.77l-.1-.07v-2.64z"/></g><g><path class="st6" d="M17.6 46.75l1.23-.7v2.76l-1.23.69z"/><path class="st5" d="M18.83 48.81l-.11-.07-1.12.61v.15z"/><path class="st2" d="M18.83 46.05v2.76l-.11-.07v-2.63z"/></g><g><path class="st6" d="M19.98 45.38l1.23-.71v2.76l-1.23.7z"/><path class="st5" d="M21.21 47.43l-.11-.06-1.12.61v.15z"/><path class="st2" d="M21.21 44.67v2.76l-.11-.06v-2.64z"/></g><g><path class="st6" d="M22.37 44l1.22-.71v2.77l-1.22.69z"/><path class="st5" d="M23.59 46.06l-.1-.07-1.12.61v.15z"/><path class="st2" d="M23.59 43.29v2.77l-.1-.07v-2.64z"/></g><g><path class="st6" d="M15.21 52.22l1.23-.71v2.76l-1.23.7z"/><path class="st5" d="M16.44 54.27l-.1-.06-1.13.61v.15z"/><path class="st2" d="M16.44 51.51v2.76l-.1-.06v-2.64z"/></g><g><path class="st6" d="M17.6 50.84l1.23-.71v2.77l-1.23.69z"/><path class="st5" d="M18.83 52.9l-.11-.07-1.12.61v.15z"/><path class="st2" d="M18.83 50.13v2.77l-.11-.07v-2.64z"/></g><g><path class="st6" d="M19.98 49.47l1.23-.71v2.76l-1.23.7z"/><path class="st5" d="M21.21 51.52l-.11-.06-1.12.61v.15z"/><path class="st2" d="M21.21 48.76v2.76l-.11-.06v-2.64z"/></g><g><path class="st6" d="M22.37 48.09l1.22-.71v2.77l-1.22.69z"/><path class="st5" d="M23.59 50.15l-.1-.07-1.12.61v.15z"/><path class="st2" d="M23.59 47.38v2.77l-.1-.07v-2.64z"/></g><g><path class="st6" d="M15.21 56.31l1.23-.7v2.76l-1.23.7z"/><path class="st5" d="M16.44 58.37l-.1-.07-1.13.62v.15z"/><path class="st2" d="M16.44 55.61v2.76l-.1-.07v-2.63z"/></g><g><path class="st6" d="M17.6 54.94l1.23-.71v2.76l-1.23.7z"/><path class="st5" d="M18.83 56.99l-.11-.07-1.12.62v.15z"/><path class="st2" d="M18.83 54.23v2.76l-.11-.07v-2.63z"/></g><g><path class="st6" d="M19.98 53.56l1.23-.7v2.76l-1.23.7z"/><path class="st5" d="M21.21 55.62l-.11-.07-1.12.62v.15z"/><path class="st2" d="M21.21 52.86v2.76l-.11-.07v-2.63z"/></g><g><path class="st6" d="M22.37 52.18l1.22-.7v2.76l-1.22.7z"/><path class="st5" d="M23.59 54.24l-.1-.07-1.12.62v.15z"/><path class="st2" d="M23.59 51.48v2.76l-.1-.07v-2.63z"/></g><g><path class="st6" d="M15.21 60.49l1.22-.71v2.76l-1.22.7z"/><path class="st5" d="M16.43 62.54l-.1-.06-1.12.61v.15z"/><path class="st2" d="M16.43 59.78v2.76l-.1-.06v-2.64z"/></g><g><path class="st6" d="M17.59 59.11l1.23-.71v2.76l-1.23.7z"/><path class="st5" d="M18.82 61.16l-.1-.06-1.13.61v.15z"/><path class="st2" d="M18.82 58.4v2.76l-.1-.06v-2.64z"/></g><g><path class="st6" d="M19.97 57.74l1.23-.71v2.76l-1.23.7z"/><path class="st5" d="M21.2 59.79l-.1-.06-1.13.61v.15z"/><path class="st2" d="M21.2 57.03v2.76l-.1-.06v-2.64z"/></g><g><path class="st6" d="M22.36 56.36l1.23-.71v2.76l-1.23.7z"/><path class="st5" d="M23.59 58.41l-.11-.06-1.12.61v.15z"/><path class="st2" d="M23.59 55.65v2.76l-.11-.06v-2.64z"/></g><g><path class="st6" d="M15.22 64.54l1.22-.71v2.76l-1.22.7z"/><path class="st5" d="M16.44 66.59l-.1-.06-1.12.61v.15z"/><path class="st2" d="M16.44 63.83v2.76l-.1-.06v-2.64z"/></g><g><path class="st6" d="M17.61 63.16l1.22-.71v2.77l-1.22.69z"/><path class="st5" d="M18.83 65.22l-.1-.07-1.12.61v.15z"/><path class="st2" d="M18.83 62.45v2.77l-.1-.07v-2.64z"/></g><g><path class="st6" d="M19.99 61.79l1.22-.71v2.76l-1.22.7z"/><path class="st5" d="M21.21 63.84l-.1-.06-1.12.61v.15z"/><path class="st2" d="M21.21 61.08v2.76l-.1-.06v-2.64z"/></g><g><path class="st6" d="M22.37 60.41l1.23-.71v2.77l-1.23.69z"/><path class="st5" d="M23.6 62.47l-.11-.07-1.12.61v.15z"/><path class="st2" d="M23.6 59.7v2.77l-.11-.07v-2.64z"/></g><g><path class="st6" d="M11.52 27.5l-1.22-.71v2.76l1.22.7z"/><path class="st5" d="M10.3 29.55l.1-.06 1.12.61v.15z"/><path class="st2" d="M10.3 26.79v2.76l.1-.06v-2.64z"/><path class="st6" d="M9.14 26.12l-1.23-.71v2.77l1.23.69z"/><path class="st5" d="M7.91 28.18l.11-.07 1.12.61v.15z"/><path class="st2" d="M7.91 25.41v2.77l.11-.07v-2.64z"/><path class="st6" d="M6.76 24.75l-1.23-.71v2.76l1.23.7z"/><path class="st5" d="M5.53 26.8l.11-.06 1.12.61v.15z"/><path class="st2" d="M5.53 24.04v2.76l.11-.06V24.1z"/><path class="st6" d="M4.37 23.37l-1.22-.71v2.77l1.22.69z"/><path class="st5" d="M3.15 25.43l.1-.07 1.12.61v.15z"/><path class="st2" d="M3.15 22.66v2.77l.1-.07v-2.64z"/><path class="st6" d="M11.52 31.7l-1.23-.71v2.77l1.23.69z"/><path class="st5" d="M10.29 33.76l.1-.07 1.13.61v.15z"/><path class="st2" d="M10.29 30.99v2.77l.1-.07v-2.63z"/><path class="st6" d="M9.13 30.32l-1.23-.7v2.76l1.23.7z"/><path class="st5" d="M7.9 32.38l.11-.07 1.12.62v.15z"/><path class="st2" d="M7.9 29.62v2.76l.11-.07v-2.63z"/><path class="st6" d="M6.75 28.95l-1.23-.71v2.77l1.23.69z"/><path class="st5" d="M5.52 31.01l.11-.07 1.12.61v.15z"/><path class="st2" d="M5.52 28.24v2.77l.11-.07V28.3z"/><path class="st6" d="M4.36 27.57l-1.22-.7v2.76l1.22.69z"/><path class="st5" d="M3.14 29.63l.1-.07 1.12.61v.15z"/><path class="st2" d="M3.14 26.87v2.76l.1-.07v-2.63z"/><path class="st6" d="M11.52 35.74l-1.23-.71v2.76l1.23.7z"/><path class="st5" d="M10.29 37.79l.1-.06 1.13.61v.15z"/><path class="st2" d="M10.29 35.03v2.76l.1-.06v-2.64z"/><path class="st6" d="M9.13 34.36l-1.23-.71v2.77l1.23.69z"/><path class="st5" d="M7.9 36.42l.11-.07 1.12.61v.15z"/><path class="st2" d="M7.9 33.65v2.77l.11-.07v-2.64z"/><path class="st6" d="M6.75 32.99l-1.23-.71v2.76l1.23.7z"/><path class="st5" d="M5.52 35.04l.11-.06 1.12.61v.15z"/><path class="st2" d="M5.52 32.28v2.76l.11-.06v-2.64z"/><path class="st6" d="M4.36 31.61l-1.22-.71v2.76l1.22.7z"/><path class="st5" d="M3.14 33.66l.1-.06 1.12.61v.15z"/><path class="st2" d="M3.14 30.9v2.76l.1-.06v-2.64z"/><path class="st6" d="M11.52 39.93l-1.23-.7v2.76l1.23.69z"/><path class="st5" d="M10.29 41.99l.1-.07 1.13.61v.15z"/><path class="st2" d="M10.29 39.23v2.76l.1-.07v-2.63z"/><path class="st6" d="M9.13 38.55l-1.23-.7v2.76l1.23.7z"/><path class="st5" d="M7.9 40.61l.11-.07 1.12.62v.15z"/><path class="st2" d="M7.9 37.85v2.76l.11-.07v-2.63z"/><g><path class="st6" d="M6.75 37.18l-1.23-.71v2.77l1.23.69z"/><path class="st5" d="M5.52 39.24l.11-.07 1.12.61v.15z"/><path class="st2" d="M5.52 36.47v2.77l.11-.07v-2.64z"/></g><g><path class="st6" d="M4.36 35.8l-1.22-.7v2.76l1.22.69z"/><path class="st5" d="M3.14 37.86l.1-.07 1.12.62v.14z"/><path class="st2" d="M3.14 35.1v2.76l.1-.07v-2.63z"/></g><g><path class="st6" d="M11.52 44.02l-1.23-.71v2.77l1.23.69z"/><path class="st5" d="M10.29 46.08l.1-.07 1.13.61v.15z"/><path class="st2" d="M10.29 43.31v2.77l.1-.07v-2.64z"/></g><g><path class="st6" d="M9.13 42.64l-1.23-.7v2.76l1.23.69z"/><path class="st5" d="M7.9 44.7l.11-.07 1.12.62v.14z"/><path class="st2" d="M7.9 41.94v2.76l.11-.07V42z"/></g><g><path class="st6" d="M6.75 41.27l-1.23-.71v2.77l1.23.69z"/><path class="st5" d="M5.52 43.33l.11-.07 1.12.61v.15z"/><path class="st2" d="M5.52 40.56v2.77l.11-.07v-2.64z"/></g><g><path class="st6" d="M4.36 39.89l-1.22-.7v2.76l1.22.69z"/><path class="st5" d="M3.14 41.95l.1-.07 1.12.61v.15z"/><path class="st2" d="M3.14 39.19v2.76l.1-.07v-2.63z"/></g><g><path class="st6" d="M11.52 48.16l-1.23-.7v2.76l1.23.69z"/><path class="st5" d="M10.29 50.22l.1-.07 1.13.61v.15z"/><path class="st2" d="M10.29 47.46v2.76l.1-.07v-2.63z"/></g><g><path class="st6" d="M9.13 46.78l-1.23-.7v2.76l1.23.7z"/><path class="st5" d="M7.9 48.84l.11-.07 1.12.62v.15z"/><path class="st2" d="M7.9 46.08v2.76l.11-.07v-2.63z"/></g><g><path class="st6" d="M6.75 45.41l-1.23-.71v2.77l1.23.69z"/><path class="st5" d="M5.52 47.47l.11-.07 1.12.61v.15z"/><path class="st2" d="M5.52 44.7v2.77l.11-.07v-2.64z"/></g><g><path class="st6" d="M4.36 44.03l-1.22-.7v2.76l1.22.7z"/><path class="st5" d="M3.14 46.09l.1-.07 1.12.62v.15z"/><path class="st2" d="M3.14 43.33v2.76l.1-.07v-2.63z"/></g><g><path class="st6" d="M11.52 52.25l-1.23-.71v2.77l1.23.69z"/><path class="st5" d="M10.29 54.31l.1-.07 1.13.61V55z"/><path class="st2" d="M10.29 51.54v2.77l.1-.07V51.6z"/></g><g><path class="st6" d="M9.13 50.87l-1.23-.7v2.76l1.23.7z"/><path class="st5" d="M7.9 52.93l.11-.07 1.12.62v.15z"/><path class="st2" d="M7.9 50.17v2.76l.11-.07v-2.63z"/></g><g><path class="st6" d="M6.75 49.5l-1.23-.71v2.77l1.23.69z"/><path class="st5" d="M5.52 51.56l.11-.07 1.12.61v.15z"/><path class="st2" d="M5.52 48.79v2.77l.11-.07v-2.64z"/></g><g><path class="st6" d="M4.36 48.12l-1.22-.7v2.76l1.22.69z"/><path class="st5" d="M3.14 50.18l.1-.07 1.12.61v.15z"/><path class="st2" d="M3.14 47.42v2.76l.1-.07v-2.63z"/></g><g><path class="st6" d="M11.52 56.35l-1.23-.71v2.76l1.23.7z"/><path class="st5" d="M10.29 58.4l.1-.06 1.13.61v.15z"/><path class="st2" d="M10.29 55.64v2.76l.1-.06V55.7z"/></g><g><path class="st6" d="M9.13 54.97l-1.23-.71v2.76l1.23.7z"/><path class="st5" d="M7.9 57.02l.11-.06 1.12.61v.15z"/><path class="st2" d="M7.9 54.26v2.76l.11-.06v-2.64z"/></g><g><path class="st6" d="M6.75 53.6l-1.23-.71v2.76l1.23.7z"/><path class="st5" d="M5.52 55.65l.11-.07 1.12.62v.15z"/><path class="st2" d="M5.52 52.89v2.76l.11-.07v-2.63z"/></g><g><path class="st6" d="M4.36 52.22l-1.22-.71v2.76l1.22.7z"/><path class="st5" d="M3.14 54.27l.1-.06 1.12.61v.15z"/><path class="st2" d="M3.14 51.51v2.76l.1-.06v-2.64z"/></g><g><path class="st6" d="M11.52 60.52l-1.22-.71v2.77l1.22.69z"/><path class="st5" d="M10.3 62.58l.1-.07 1.12.61v.15z"/><path class="st2" d="M10.3 59.81v2.77l.1-.07v-2.64z"/></g><g><path class="st6" d="M9.14 59.14l-1.23-.71v2.77l1.23.69z"/><path class="st5" d="M7.91 61.2l.1-.07 1.13.61v.15z"/><path class="st2" d="M7.91 58.43v2.77l.1-.07v-2.64z"/></g><g><path class="st6" d="M6.76 57.77l-1.23-.71v2.76l1.23.7z"/><path class="st5" d="M5.53 59.82l.1-.06 1.13.61v.15z"/><path class="st2" d="M5.53 57.06v2.76l.1-.06v-2.64z"/></g><g><path class="st6" d="M4.37 56.39l-1.23-.71v2.77l1.23.69z"/><path class="st5" d="M3.14 58.45l.11-.07 1.12.61v.15z"/><path class="st2" d="M3.14 55.68v2.77l.11-.07v-2.64z"/></g><g><path class="st6" d="M11.51 64.57l-1.22-.71v2.77l1.22.69z"/><path class="st5" d="M10.29 66.63l.1-.07 1.12.61v.15z"/><path class="st2" d="M10.29 63.86v2.77l.1-.07v-2.64z"/></g><g><path class="st6" d="M9.12 63.19l-1.22-.7v2.76l1.22.7z"/><path class="st5" d="M7.9 65.25l.1-.07 1.12.62v.15z"/><path class="st2" d="M7.9 62.49v2.76l.1-.07v-2.63z"/></g><g><path class="st6" d="M6.74 61.82l-1.22-.71v2.77l1.22.69z"/><path class="st5" d="M5.52 63.88l.1-.07 1.12.61v.15z"/><path class="st2" d="M5.52 61.11v2.77l.1-.07v-2.64z"/></g><g><path class="st6" d="M4.36 60.44l-1.23-.7v2.76l1.23.69z"/><path class="st5" d="M3.13 62.5l.11-.07 1.12.61v.15z"/><path class="st2" d="M3.13 59.74v2.76l.11-.07V59.8z"/></g></g></g><g><path class="st2" d="M27.29 75.42l24.53-14.16c2.05-1.18 1.8-3.24-.56-4.6-2.36-1.36-5.94-1.5-7.99-.31L18.75 70.51c-2.05 1.18-1.8 3.24.56 4.6 2.36 1.36 5.93 1.5 7.98.31z"/><linearGradient id="SVGID_5_" gradientUnits="userSpaceOnUse" x1="974.88" y1="51.158" x2="984.78" y2="51.158" gradientTransform="matrix(-1 0 0 1 1002.174 0)"><stop offset="0" stop-color="#cfe7ff"/><stop offset="1" stop-color="#eef5ff"/></linearGradient><path d="M27.29 31.08l-8.55-4.91-1.34 2.11v44.14c-.26 1.48 3.2 5.32 9.89 3.01V31.08z" fill="url(#SVGID_5_)"/><linearGradient id="SVGID_6_" gradientUnits="userSpaceOnUse" x1="948.966" y1="21.543" x2="984.815" y2="21.543" gradientTransform="matrix(-1 0 0 1 1002.174 0)"><stop offset="0" stop-color="#cfe7ff"/><stop offset=".031" stop-color="#d1e8ff"/><stop offset=".298" stop-color="#e1efff"/><stop offset=".599" stop-color="#ebf4ff"/><stop offset="1" stop-color="#eef5ff"/></linearGradient><path d="M27.29 31.08l24.53-14.16c2.05-1.18 1.8-3.24-.56-4.6-2.36-1.36-5.94-1.5-7.99-.31L18.75 26.17c-2.05 1.18-1.8 3.24.56 4.6 2.36 1.35 5.93 1.49 7.98.31z" fill="url(#SVGID_6_)"/><path class="st3" d="M51.82 16.92v44.34L27.29 75.42V31.08zM53.27 59.35V14.86l-1.45 2.06v44.34z"/><path class="st6" d="M41.79 26.43l1.08-.62v2.44l-1.08.61z"/><path class="st5" d="M42.87 28.25l-.09-.06-.99.54v.13z"/><path class="st2" d="M42.87 25.81v2.44l-.09-.06v-2.33z"/><path class="st6" d="M43.9 25.22l1.08-.63v2.44l-1.08.62z"/><path class="st5" d="M44.98 27.03l-.09-.06-.99.54v.14z"/><path class="st2" d="M44.98 24.59v2.44l-.09-.06v-2.32z"/><path class="st6" d="M46 24.01l1.08-.63v2.44l-1.08.62z"/><path class="st5" d="M47.08 25.82l-.09-.06-.99.54v.14z"/><path class="st2" d="M47.08 23.38v2.44l-.09-.06v-2.32z"/><path class="st6" d="M48.1 22.79l1.08-.62v2.43l-1.08.62z"/><path class="st5" d="M49.18 24.6l-.09-.05-.99.54v.13z"/><path class="st2" d="M49.18 22.17v2.43l-.09-.05v-2.33z"/><path class="st6" d="M41.8 30.14l1.08-.62v2.43l-1.08.62z"/><path class="st5" d="M42.88 31.95l-.09-.05-.99.54v.13z"/><path class="st2" d="M42.88 29.52v2.43l-.09-.05v-2.33z"/><path class="st6" d="M43.91 28.93l1.08-.63v2.44l-1.08.61z"/><path class="st5" d="M44.99 30.74l-.09-.06-.99.54v.13z"/><path class="st2" d="M44.99 28.3v2.44l-.09-.06v-2.32z"/><path class="st6" d="M46.01 27.72l1.08-.63v2.44l-1.08.61z"/><path class="st5" d="M47.09 29.53l-.09-.06-.99.54v.13z"/><path class="st2" d="M47.09 27.09v2.44l-.09-.06v-2.33z"/><path class="st6" d="M48.11 26.5l1.08-.62v2.43l-1.08.62z"/><path class="st5" d="M49.19 28.31l-.09-.06-.99.54v.14z"/><path class="st2" d="M49.19 25.88v2.43l-.09-.06v-2.32z"/><path class="st6" d="M41.8 33.7l1.08-.62v2.44l-1.08.61z"/><path class="st5" d="M42.88 35.52l-.09-.06-.99.54v.13z"/><path class="st2" d="M42.88 33.08v2.44l-.09-.06v-2.33z"/><path class="st6" d="M43.91 32.49l1.08-.63v2.44l-1.08.62z"/><path class="st5" d="M44.99 34.3l-.09-.06-.99.54v.14z"/><path class="st2" d="M44.99 31.86v2.44l-.09-.06v-2.32z"/><path class="st6" d="M46.01 31.28l1.08-.63v2.44l-1.08.62z"/><path class="st5" d="M47.09 33.09l-.09-.06-.99.54v.14z"/><path class="st2" d="M47.09 30.65v2.44l-.09-.06v-2.32z"/><path class="st6" d="M48.11 30.06l1.08-.62v2.43l-1.08.62z"/><path class="st5" d="M49.19 31.87l-.09-.05-.99.54v.13z"/><path class="st2" d="M49.19 29.44v2.43l-.09-.05v-2.33z"/><path class="st6" d="M41.8 37.4l1.08-.62v2.44l-1.08.61z"/><path class="st5" d="M42.88 39.22l-.09-.06-.99.54v.13z"/><path class="st2" d="M42.88 36.78v2.44l-.09-.06v-2.33z"/><path class="st6" d="M43.91 36.19l1.08-.63V38l-1.08.62z"/><path class="st5" d="M44.99 38l-.09-.06-.99.54v.14z"/><path class="st2" d="M44.99 35.56V38l-.09-.06v-2.32z"/><path class="st6" d="M46.01 34.98l1.08-.63v2.44l-1.08.61z"/><path class="st5" d="M47.09 36.79l-.09-.06-.99.54v.13z"/><path class="st2" d="M47.09 34.35v2.44l-.09-.06v-2.32z"/><path class="st6" d="M48.11 33.76l1.08-.62v2.43l-1.08.62z"/><path class="st5" d="M49.19 35.57l-.09-.05-.99.54v.13z"/><path class="st2" d="M49.19 33.14v2.43l-.09-.05v-2.33z"/><path class="st6" d="M41.8 41.01l1.08-.62v2.43l-1.08.62z"/><path class="st5" d="M42.88 42.82l-.09-.05-.99.54v.13z"/><path class="st2" d="M42.88 40.39v2.43l-.09-.05v-2.33z"/><path class="st6" d="M43.91 39.8l1.08-.63v2.44l-1.08.61z"/><path class="st5" d="M44.99 41.61l-.09-.06-.99.54v.13z"/><path class="st2" d="M44.99 39.17v2.44l-.09-.06v-2.33z"/><path class="st6" d="M46.01 38.58l1.08-.62v2.44l-1.08.61z"/><path class="st5" d="M47.09 40.4l-.09-.06-.99.54v.13z"/><path class="st2" d="M47.09 37.96v2.44l-.09-.06v-2.33z"/><path class="st6" d="M48.11 37.37l1.08-.63v2.44l-1.08.62z"/><path class="st5" d="M49.19 39.18l-.09-.06-.99.54v.14z"/><path class="st2" d="M49.19 36.74v2.44l-.09-.06V36.8z"/><path class="st6" d="M41.8 44.67l1.08-.63v2.44l-1.08.61z"/><path class="st5" d="M42.88 46.48l-.09-.06-.99.54v.13z"/><path class="st2" d="M42.88 44.04v2.44l-.09-.06v-2.33z"/><path class="st6" d="M43.91 43.45l1.08-.62v2.43l-1.08.62z"/><path class="st5" d="M44.99 45.26l-.09-.06-.99.54v.14z"/><path class="st2" d="M44.99 42.83v2.43l-.09-.06v-2.32z"/><path class="st6" d="M46.01 42.24l1.08-.63v2.44l-1.08.62z"/><path class="st5" d="M47.09 44.05l-.09-.06-.99.54v.14z"/><path class="st2" d="M47.09 41.61v2.44l-.09-.06v-2.32z"/><path class="st6" d="M48.11 41.02l1.08-.62v2.43l-1.08.62z"/><path class="st5" d="M49.19 42.83l-.09-.05-.99.54v.13z"/><path class="st2" d="M49.19 40.4v2.43l-.09-.05v-2.33z"/><path class="st6" d="M41.8 48.27l1.08-.62v2.44l-1.08.61z"/><path class="st5" d="M42.88 50.09l-.09-.06-.99.54v.13z"/><path class="st2" d="M42.88 47.65v2.44l-.09-.06V47.7z"/><path class="st6" d="M43.91 47.06l1.08-.63v2.44l-1.08.62z"/><path class="st5" d="M44.99 48.87l-.09-.06-.99.54v.14z"/><path class="st2" d="M44.99 46.43v2.44l-.09-.06v-2.32z"/><g><path class="st6" d="M46.01 45.85l1.08-.63v2.44l-1.08.61z"/><path class="st5" d="M47.09 47.66L47 47.6l-.99.54v.13z"/><path class="st2" d="M47.09 45.22v2.44L47 47.6v-2.32z"/></g><g><path class="st6" d="M48.11 44.63l1.08-.62v2.43l-1.08.62z"/><path class="st5" d="M49.19 46.44l-.09-.05-.99.54v.13z"/><path class="st2" d="M49.19 44.01v2.43l-.09-.05v-2.33z"/></g><g><path class="st6" d="M41.8 51.89l1.08-.63v2.44l-1.08.61z"/><path class="st5" d="M42.88 53.7l-.09-.06-.99.54v.13z"/><path class="st2" d="M42.88 51.26v2.44l-.09-.06v-2.33z"/></g><g><path class="st6" d="M43.91 50.67l1.08-.62v2.43l-1.08.62z"/><path class="st5" d="M44.99 52.48l-.09-.06-.99.55v.13z"/><path class="st2" d="M44.99 50.05v2.43l-.09-.06V50.1z"/></g><g><path class="st6" d="M46.01 49.46l1.08-.63v2.44l-1.08.62z"/><path class="st5" d="M47.09 51.27l-.09-.06-.99.54v.14z"/><path class="st2" d="M47.09 48.83v2.44l-.09-.06v-2.32z"/></g><g><path class="st6" d="M48.11 48.24l1.08-.62v2.44l-1.08.61z"/><path class="st5" d="M49.19 50.06L49.1 50l-.99.54v.13z"/><path class="st2" d="M49.19 47.62v2.44L49.1 50v-2.33z"/></g><g><path class="st6" d="M41.79 55.57l1.09-.62v2.43l-1.09.62z"/><path class="st5" d="M42.88 57.38l-.1-.06-.99.54V58z"/><path class="st2" d="M42.88 54.95v2.43l-.1-.06V55z"/></g><g><path class="st6" d="M43.9 54.35l1.08-.62v2.44l-1.08.61z"/><path class="st5" d="M44.98 56.17l-.09-.06-.99.54v.13z"/><path class="st2" d="M44.98 53.73v2.44l-.09-.06v-2.33z"/></g><g><path class="st6" d="M46 53.14l1.08-.62v2.43l-1.08.62z"/><path class="st5" d="M47.08 54.95l-.09-.05-.99.54v.13z"/><path class="st2" d="M47.08 52.52v2.43l-.09-.05v-2.33z"/></g><g><path class="st6" d="M48.11 51.93l1.08-.63v2.44l-1.08.61z"/><path class="st5" d="M49.19 53.74l-.09-.06-.99.54v.13z"/><path class="st2" d="M49.19 51.3v2.44l-.09-.06v-2.33z"/></g><g><path class="st6" d="M41.81 59.14l1.08-.62v2.44l-1.08.61z"/><path class="st5" d="M42.89 60.96l-.1-.06-.98.54v.13z"/><path class="st2" d="M42.89 58.52v2.44l-.1-.06v-2.33z"/></g><g><path class="st6" d="M43.91 57.93l1.08-.63v2.44l-1.08.62z"/><path class="st5" d="M44.99 59.74l-.09-.06-.99.54v.14z"/><path class="st2" d="M44.99 57.3v2.44l-.09-.06v-2.32z"/></g><g><path class="st6" d="M46.01 56.72l1.08-.63v2.44l-1.08.61z"/><path class="st5" d="M47.09 58.53l-.09-.06-.99.54v.13z"/><path class="st2" d="M47.09 56.09v2.44l-.09-.06v-2.32z"/></g><g><path class="st6" d="M48.12 55.5l1.08-.62v2.43l-1.08.62z"/><path class="st5" d="M49.2 57.31l-.09-.05-.99.54v.13z"/><path class="st2" d="M49.2 54.88v2.43l-.09-.05v-2.33z"/></g><g><path class="st6" d="M41.81 62.72l1.08-.62v2.44l-1.08.61z"/><path class="st5" d="M42.89 64.54l-.1-.06-.98.54v.13z"/><path class="st2" d="M42.89 62.1v2.44l-.1-.06v-2.33z"/></g><g><path class="st6" d="M43.91 61.51l1.08-.63v2.44l-1.08.61z"/><path class="st5" d="M44.99 63.32l-.09-.06-.99.54v.13z"/><path class="st2" d="M44.99 60.88v2.44l-.09-.06v-2.32z"/></g><g><path class="st6" d="M46.01 60.3l1.08-.63v2.44l-1.08.61z"/><path class="st5" d="M47.09 62.11l-.09-.06-.99.54v.13z"/><path class="st2" d="M47.09 59.67v2.44l-.09-.06v-2.32z"/></g><g><path class="st6" d="M48.12 59.08l1.08-.62v2.43l-1.08.62z"/><path class="st5" d="M49.2 60.89l-.09-.05-.99.54v.13z"/><path class="st2" d="M49.2 58.46v2.43l-.09-.05v-2.33z"/></g><g><path class="st6" d="M50.31 21.49l1.08-.62v2.44l-1.08.61z"/><path class="st5" d="M51.39 23.31l-.1-.06-.98.54v.13z"/><path class="st2" d="M51.39 20.87v2.44l-.1-.06v-2.33z"/></g><g><path class="st6" d="M50.31 25.2l1.08-.62v2.43l-1.08.62z"/><path class="st5" d="M51.39 27.01l-.09-.05-.99.54v.13z"/><path class="st2" d="M51.39 24.58v2.43l-.09-.05v-2.33z"/></g><g><path class="st6" d="M50.31 28.76l1.08-.62v2.44l-1.08.61z"/><path class="st5" d="M51.39 30.58l-.09-.06-.99.54v.13z"/><path class="st2" d="M51.39 28.14v2.44l-.09-.06v-2.33z"/></g><g><path class="st6" d="M50.31 32.46l1.08-.62v2.44l-1.08.61z"/><path class="st5" d="M51.39 34.28l-.09-.06-.99.54v.13z"/><path class="st2" d="M51.39 31.84v2.44l-.09-.06v-2.33z"/></g><g><path class="st6" d="M50.31 36.07l1.08-.62v2.43l-1.08.62z"/><path class="st5" d="M51.39 37.88l-.09-.05-.99.54v.13z"/><path class="st2" d="M51.39 35.45v2.43l-.09-.05V35.5z"/></g><g><path class="st6" d="M50.31 39.72l1.08-.62v2.44l-1.08.61z"/><path class="st5" d="M51.39 41.54l-.09-.06-.99.54v.13z"/><path class="st2" d="M51.39 39.1v2.44l-.09-.06v-2.33z"/></g><g><path class="st6" d="M50.31 43.33l1.08-.62v2.44l-1.08.61z"/><path class="st5" d="M51.39 45.15l-.09-.06-.99.54v.13z"/><path class="st2" d="M51.39 42.71v2.44l-.09-.06v-2.33z"/></g><g><path class="st6" d="M50.31 46.94l1.08-.62v2.44l-1.08.61z"/><path class="st5" d="M51.39 48.76l-.09-.06-.99.54v.13z"/><path class="st2" d="M51.39 46.32v2.44l-.09-.06v-2.33z"/></g><g><path class="st6" d="M50.31 50.63l1.08-.63v2.44l-1.08.62z"/><path class="st5" d="M51.39 52.44l-.09-.06-.99.54v.14z"/><path class="st2" d="M51.39 50v2.44l-.09-.06v-2.32z"/></g><g><path class="st6" d="M50.32 54.2l1.08-.62v2.44l-1.08.61z"/><path class="st5" d="M51.4 56.02l-.09-.06-.99.54v.13z"/><path class="st2" d="M51.4 53.58v2.44l-.09-.06v-2.33z"/></g><g><path class="st6" d="M50.32 57.78l1.08-.62v2.43l-1.08.62z"/><path class="st5" d="M51.4 59.59l-.09-.05-.99.54v.13z"/><path class="st2" d="M51.4 57.16v2.43l-.09-.05v-2.33z"/></g><g><path class="st6" d="M52.58 20.17l1.08-.62v2.44l-1.08.61z"/><path class="st5" d="M53.66 21.99l-.09-.06-.99.54v.13z"/><path class="st2" d="M53.66 19.55v2.44l-.09-.06V19.6z"/></g><g><path class="st6" d="M52.58 23.88l1.08-.62v2.43l-1.08.62z"/><path class="st5" d="M53.66 25.69l-.09-.05-.99.54v.13z"/><path class="st2" d="M53.66 23.26v2.43l-.09-.05v-2.33z"/></g><g><path class="st6" d="M52.58 27.44l1.08-.62v2.44l-1.08.61z"/><path class="st5" d="M53.66 29.26l-.09-.06-.99.54v.13z"/><path class="st2" d="M53.66 26.82v2.44l-.09-.06v-2.33z"/></g><g><path class="st6" d="M52.58 31.14l1.08-.62v2.44l-1.08.61z"/><path class="st5" d="M53.66 32.96l-.09-.06-.99.54v.13z"/><path class="st2" d="M53.66 30.52v2.44l-.09-.06v-2.33z"/></g><g><path class="st6" d="M52.58 34.75l1.08-.62v2.43l-1.08.62z"/><path class="st5" d="M53.66 36.56l-.09-.05-.99.54v.13z"/><path class="st2" d="M53.66 34.13v2.43l-.09-.05v-2.33z"/></g><g><path class="st6" d="M52.58 38.4l1.08-.62v2.44l-1.08.61z"/><path class="st5" d="M53.66 40.22l-.09-.06-.99.54v.13z"/><path class="st2" d="M53.66 37.78v2.44l-.09-.06v-2.33z"/></g><g><path class="st6" d="M52.58 42.01l1.08-.62v2.43l-1.08.62z"/><path class="st5" d="M53.66 43.82l-.09-.05-.99.54v.13z"/><path class="st2" d="M53.66 41.39v2.43l-.09-.05v-2.33z"/></g><g><path class="st6" d="M52.58 45.62l1.08-.62v2.44l-1.08.61z"/><path class="st5" d="M53.66 47.44l-.09-.06-.99.54v.13z"/><path class="st2" d="M53.66 45v2.44l-.09-.06v-2.33z"/></g><g><path class="st6" d="M52.58 49.31l1.08-.63v2.44l-1.08.62z"/><path class="st5" d="M53.66 51.12l-.09-.06-.99.54v.14z"/><path class="st2" d="M53.66 48.68v2.44l-.09-.06v-2.32z"/></g><g><path class="st6" d="M52.59 52.88l1.08-.62v2.43l-1.08.62z"/><path class="st5" d="M53.67 54.69l-.09-.05-.99.54v.13z"/><path class="st2" d="M53.67 52.26v2.43l-.09-.05v-2.33z"/></g><g><path class="st6" d="M52.59 56.46l1.08-.62v2.43l-1.08.62z"/><path class="st5" d="M53.67 58.27l-.09-.05-.99.54v.13z"/><path class="st2" d="M53.67 55.84v2.43l-.09-.05v-2.33z"/></g><g><path class="st6" d="M33.26 67.52l1.08-.62v2.43l-1.08.62z"/><path class="st5" d="M34.34 69.33l-.09-.06-.99.54v.14z"/><path class="st2" d="M34.34 66.9v2.43l-.09-.06v-2.32z"/></g><g><path class="st6" d="M35.36 66.3l1.08-.62v2.44l-1.08.61z"/><path class="st5" d="M36.44 68.12l-.09-.06-.99.54v.13z"/><path class="st2" d="M36.44 65.68v2.44l-.09-.06v-2.33z"/></g><g><path class="st6" d="M37.46 65.09l1.08-.62v2.43l-1.08.62z"/><path class="st5" d="M38.54 66.9l-.09-.05-.99.54v.13z"/><path class="st2" d="M38.54 64.47v2.43l-.09-.05v-2.33z"/></g><g><path class="st6" d="M39.57 63.88l1.08-.63v2.44l-1.08.61z"/><path class="st5" d="M40.65 65.69l-.09-.06-.99.54v.13z"/><path class="st2" d="M40.65 63.25v2.44l-.09-.06V63.3z"/></g><path fill="#fff" d="M54.32 19.14l-1.08.03.03 39.34.63-.03z"/><g><path class="st6" d="M33.24 31.37l1.08-.63v2.44l-1.08.62z"/><path class="st5" d="M34.32 33.18l-.09-.06-.99.54v.14z"/><path class="st2" d="M34.32 30.74v2.44l-.09-.06V30.8z"/></g><g><path class="st6" d="M35.35 30.15l1.08-.62v2.43l-1.08.62z"/><path class="st5" d="M36.43 31.96l-.09-.05-.99.54v.13z"/><path class="st2" d="M36.43 29.53v2.43l-.09-.05v-2.33z"/></g><g><path class="st6" d="M37.45 28.94l1.08-.62v2.43l-1.08.62z"/><path class="st5" d="M38.53 30.75l-.09-.05-.99.54v.13z"/><path class="st2" d="M38.53 28.32v2.43l-.09-.05v-2.33z"/></g><g><path class="st6" d="M39.56 27.72l1.08-.62v2.44l-1.08.61z"/><path class="st5" d="M40.64 29.54l-.09-.06-.99.54v.13z"/><path class="st2" d="M40.64 27.1v2.44l-.09-.06v-2.33z"/></g><g><path class="st6" d="M33.25 35.08l1.08-.63v2.44l-1.08.61z"/><path class="st5" d="M34.33 36.89l-.09-.06-.99.54v.13z"/><path class="st2" d="M34.33 34.45v2.44l-.09-.06V34.5z"/></g><g><path class="st6" d="M35.36 33.86l1.08-.62v2.43l-1.08.62z"/><path class="st5" d="M36.44 35.67l-.09-.06-.99.54v.14z"/><path class="st2" d="M36.44 33.24v2.43l-.09-.06v-2.32z"/></g><g><path class="st6" d="M37.46 32.65l1.08-.63v2.44l-1.08.62z"/><path class="st5" d="M38.54 34.46l-.09-.06-.99.54v.14z"/><path class="st2" d="M38.54 32.02v2.44l-.09-.06v-2.32z"/></g><g><path class="st6" d="M39.56 31.43l1.08-.62v2.43l-1.08.62z"/><path class="st5" d="M40.64 33.24l-.09-.05-.99.54v.13z"/><path class="st2" d="M40.64 30.81v2.43l-.09-.05v-2.33z"/></g><g><path class="st6" d="M33.25 38.64l1.08-.63v2.44l-1.08.62z"/><path class="st5" d="M34.33 40.45l-.09-.06-.99.54v.14z"/><path class="st2" d="M34.33 38.01v2.44l-.09-.06v-2.32z"/></g><g><path class="st6" d="M35.36 37.42l1.08-.62v2.43l-1.08.62z"/><path class="st5" d="M36.44 39.23l-.09-.05-.99.54v.13z"/><path class="st2" d="M36.44 36.8v2.43l-.09-.05v-2.33z"/></g><g><path class="st6" d="M37.46 36.21l1.08-.62v2.43l-1.08.62z"/><path class="st5" d="M38.54 38.02l-.09-.05-.99.54v.13z"/><path class="st2" d="M38.54 35.59v2.43l-.09-.05v-2.33z"/></g><g><path class="st6" d="M39.56 34.99l1.08-.62v2.44l-1.08.61z"/><path class="st5" d="M40.64 36.81l-.09-.06-.99.54v.13z"/><path class="st2" d="M40.64 34.37v2.44l-.09-.06v-2.33z"/></g><g><path class="st6" d="M33.25 42.34l1.08-.63v2.44l-1.08.62z"/><path class="st5" d="M34.33 44.15l-.09-.06-.99.54v.14z"/><path class="st2" d="M34.33 41.71v2.44l-.09-.06v-2.32z"/></g><g><path class="st6" d="M35.36 41.12l1.08-.62v2.43l-1.08.62z"/><path class="st5" d="M36.44 42.93l-.09-.05-.99.54v.13z"/><path class="st2" d="M36.44 40.5v2.43l-.09-.05v-2.33z"/></g><g><path class="st6" d="M37.46 39.91l1.08-.62v2.43l-1.08.62z"/><path class="st5" d="M38.54 41.72l-.09-.05-.99.54v.13z"/><path class="st2" d="M38.54 39.29v2.43l-.09-.05v-2.33z"/></g><g><path class="st6" d="M39.56 38.69l1.08-.62v2.44l-1.08.61z"/><path class="st5" d="M40.64 40.51l-.09-.06-.99.54v.13z"/><path class="st2" d="M40.64 38.07v2.44l-.09-.06v-2.33z"/></g><g><path class="st6" d="M33.25 45.95l1.08-.63v2.44l-1.08.61z"/><path class="st5" d="M34.33 47.76l-.09-.06-.99.54v.13z"/><path class="st2" d="M34.33 45.32v2.44l-.09-.06v-2.33z"/></g><g><path class="st6" d="M35.36 44.73l1.08-.63v2.44l-1.08.62z"/><path class="st5" d="M36.44 46.54l-.09-.06-.99.54v.14z"/><path class="st2" d="M36.44 44.1v2.44l-.09-.06v-2.32z"/></g><g><path class="st6" d="M37.46 43.52l1.08-.63v2.44l-1.08.62z"/><path class="st5" d="M38.54 45.33l-.09-.06-.99.54v.14z"/><path class="st2" d="M38.54 42.89v2.44l-.09-.06v-2.32z"/></g><g><path class="st6" d="M39.56 42.3l1.08-.62v2.43l-1.08.62z"/><path class="st5" d="M40.64 44.11l-.09-.05-.99.54v.13z"/><path class="st2" d="M40.64 41.68v2.43l-.09-.05v-2.33z"/></g><g><path class="st6" d="M33.25 49.6l1.08-.63v2.44l-1.08.62z"/><path class="st5" d="M34.33 51.41l-.09-.06-.99.54v.14z"/><path class="st2" d="M34.33 48.97v2.44l-.09-.06v-2.32z"/></g><g><path class="st6" d="M35.36 48.38l1.08-.62v2.44l-1.08.61z"/><path class="st5" d="M36.44 50.2l-.09-.06-.99.54v.13z"/><path class="st2" d="M36.44 47.76v2.44l-.09-.06v-2.33z"/></g><g><path class="st6" d="M37.46 47.17l1.08-.62v2.43l-1.08.62z"/><path class="st5" d="M38.54 48.98l-.09-.05-.99.54v.13z"/><path class="st2" d="M38.54 46.55v2.43l-.09-.05V46.6z"/></g><g><path class="st6" d="M39.56 45.96l1.08-.63v2.44l-1.08.61z"/><path class="st5" d="M40.64 47.77l-.09-.06-.99.54v.13z"/><path class="st2" d="M40.64 45.33v2.44l-.09-.06v-2.33z"/></g><g><path class="st6" d="M33.25 53.21l1.08-.63v2.44l-1.08.61z"/><path class="st5" d="M34.33 55.02l-.09-.06-.99.54v.13z"/><path class="st2" d="M34.33 52.58v2.44l-.09-.06v-2.32z"/></g><g><path class="st6" d="M35.36 51.99l1.08-.62v2.43l-1.08.62z"/><path class="st5" d="M36.44 53.8l-.09-.05-.99.54v.13z"/><path class="st2" d="M36.44 51.37v2.43l-.09-.05v-2.33z"/></g><g><path class="st6" d="M37.46 50.78l1.08-.62v2.43l-1.08.62z"/><path class="st5" d="M38.54 52.59l-.09-.05-.99.54v.13z"/><path class="st2" d="M38.54 50.16v2.43l-.09-.05v-2.33z"/></g><g><path class="st6" d="M39.56 49.56l1.08-.62v2.44l-1.08.61z"/><path class="st5" d="M40.64 51.38l-.09-.06-.99.54v.13z"/><path class="st2" d="M40.64 48.94v2.44l-.09-.06v-2.33z"/></g><g><path class="st6" d="M33.25 56.82l1.08-.62v2.43l-1.08.62z"/><path class="st5" d="M34.33 58.63l-.09-.06-.99.54v.14z"/><path class="st2" d="M34.33 56.2v2.43l-.09-.06v-2.32z"/></g><g><path class="st6" d="M35.36 55.6l1.08-.62v2.44l-1.08.61z"/><path class="st5" d="M36.44 57.42l-.09-.06-.99.54v.13z"/><path class="st2" d="M36.44 54.98v2.44l-.09-.06v-2.33z"/></g><g><path class="st6" d="M37.46 54.39l1.08-.62v2.43l-1.08.62z"/><path class="st5" d="M38.54 56.2l-.09-.05-.99.54v.13z"/><path class="st2" d="M38.54 53.77v2.43l-.09-.05v-2.33z"/></g><g><path class="st6" d="M39.56 53.18l1.08-.63v2.44l-1.08.61z"/><path class="st5" d="M40.64 54.99l-.09-.06-.99.54v.13z"/><path class="st2" d="M40.64 52.55v2.44l-.09-.06V52.6z"/></g><g><path class="st6" d="M33.25 60.5l1.08-.62v2.43l-1.08.62z"/><path class="st5" d="M34.33 62.31l-.09-.05-.99.54v.13z"/><path class="st2" d="M34.33 59.88v2.43l-.09-.05v-2.33z"/></g><g><path class="st6" d="M35.35 59.29l1.08-.63v2.44l-1.08.61z"/><path class="st5" d="M36.43 61.1l-.09-.06-.99.54v.13z"/><path class="st2" d="M36.43 58.66v2.44l-.09-.06v-2.33z"/></g><g><path class="st6" d="M37.45 58.08l1.08-.63v2.44l-1.08.61z"/><path class="st5" d="M38.53 59.89l-.09-.06-.99.54v.13z"/><path class="st2" d="M38.53 57.45v2.44l-.09-.06V57.5z"/></g><g><path class="st6" d="M39.56 56.86l1.08-.63v2.44l-1.08.62z"/><path class="st5" d="M40.64 58.67l-.09-.06-.99.54v.14z"/><path class="st2" d="M40.64 56.23v2.44l-.09-.06v-2.32z"/></g><g><path class="st6" d="M33.26 64.08l1.08-.63v2.44l-1.08.61z"/><path class="st5" d="M34.34 65.89l-.09-.06-.99.54v.13z"/><path class="st2" d="M34.34 63.45v2.44l-.09-.06v-2.32z"/></g><g><path class="st6" d="M31.14 32.58l1.08-.62v2.44l-1.08.61z"/><path class="st5" d="M32.22 34.4l-.09-.06-.99.54v.13z"/><path class="st2" d="M32.22 31.96v2.44l-.09-.06v-2.33z"/><path class="st6" d="M31.14 36.29l1.08-.62v2.43l-1.08.62z"/><path class="st5" d="M32.22 38.1l-.09-.05-.99.54v.13z"/><path class="st2" d="M32.22 35.67v2.43l-.09-.05v-2.33z"/><path class="st6" d="M31.14 39.85l1.08-.62v2.44l-1.08.61z"/><path class="st5" d="M32.22 41.67l-.09-.06-.99.54v.13z"/><path class="st2" d="M32.22 39.23v2.44l-.09-.06v-2.33z"/><path class="st6" d="M31.14 43.55l1.08-.62v2.44l-1.08.61z"/><path class="st5" d="M32.22 45.37l-.09-.06-.99.54v.13z"/><path class="st2" d="M32.22 42.93v2.44l-.09-.06v-2.33z"/><g><path class="st6" d="M31.14 47.16l1.08-.62v2.43l-1.08.62z"/><path class="st5" d="M32.22 48.97l-.09-.05-.99.54v.13z"/><path class="st2" d="M32.22 46.54v2.43l-.09-.05v-2.33z"/></g><g><path class="st6" d="M31.14 50.82l1.08-.63v2.44l-1.08.61z"/><path class="st5" d="M32.22 52.63l-.09-.06-.99.54v.13z"/><path class="st2" d="M32.22 50.19v2.44l-.09-.06v-2.33z"/></g><g><path class="st6" d="M31.14 54.42l1.08-.62v2.44l-1.08.61z"/><path class="st5" d="M32.22 56.24l-.09-.06-.99.54v.13z"/><path class="st2" d="M32.22 53.8v2.44l-.09-.06v-2.33z"/></g><g><path class="st6" d="M31.14 58.04l1.08-.63v2.44l-1.08.61z"/><path class="st5" d="M32.22 59.85l-.09-.06-.99.54v.13z"/><path class="st2" d="M32.22 57.41v2.44l-.09-.06v-2.33z"/></g><g><path class="st6" d="M31.14 61.72l1.08-.63v2.44l-1.08.62z"/><path class="st5" d="M32.22 63.53l-.09-.06-.99.54v.14z"/><path class="st2" d="M32.22 61.09v2.44l-.09-.06v-2.32z"/></g><g><path class="st6" d="M31.15 65.29l1.08-.62v2.44l-1.08.61z"/><path class="st5" d="M32.23 67.11l-.09-.06-.99.54v.13z"/><path class="st2" d="M32.23 64.67v2.44l-.09-.06v-2.33z"/></g><g><path class="st6" d="M31.15 68.56l1.08-.62v2.43l-1.08.62z"/><path class="st5" d="M32.23 70.37l-.09-.05-.99.54v.13z"/><path class="st2" d="M32.23 67.94v2.43l-.09-.05v-2.33z"/></g></g><g><path class="st6" d="M28.87 33.88l1.08-.63v2.44l-1.08.62z"/><path class="st5" d="M29.95 35.69l-.09-.06-.99.54v.14z"/><path class="st2" d="M29.95 33.25v2.44l-.09-.06v-2.32z"/><path class="st6" d="M28.88 37.59l1.08-.63v2.44l-1.08.61z"/><path class="st5" d="M29.96 39.4l-.09-.06-.99.54v.13z"/><path class="st2" d="M29.96 36.96v2.44l-.09-.06v-2.33z"/><path class="st6" d="M28.88 41.15l1.08-.63v2.44l-1.08.62z"/><path class="st5" d="M29.96 42.96l-.09-.06-.99.54v.14z"/><path class="st2" d="M29.96 40.52v2.44l-.09-.06v-2.32z"/><path class="st6" d="M28.88 44.85l1.08-.63v2.44l-1.08.61z"/><path class="st5" d="M29.96 46.66l-.09-.06-.99.54v.13z"/><path class="st2" d="M29.96 44.22v2.44l-.09-.06v-2.32z"/><g><path class="st6" d="M28.88 48.45l1.08-.62v2.44l-1.08.61z"/><path class="st5" d="M29.96 50.27l-.09-.06-.99.54v.13z"/><path class="st2" d="M29.96 47.83v2.44l-.09-.06v-2.33z"/></g><g><path class="st6" d="M28.88 52.11l1.08-.63v2.44l-1.08.62z"/><path class="st5" d="M29.96 53.92l-.09-.06-.99.54v.14z"/><path class="st2" d="M29.96 51.48v2.44l-.09-.06v-2.32z"/></g><g><path class="st6" d="M28.88 55.72l1.08-.63v2.44l-1.08.61z"/><path class="st5" d="M29.96 57.53l-.09-.06-.99.54v.13z"/><path class="st2" d="M29.96 55.09v2.44l-.09-.06v-2.32z"/></g><g><path class="st6" d="M28.88 59.33l1.08-.63v2.44l-1.08.62z"/><path class="st5" d="M29.96 61.14l-.09-.06-.99.54v.14z"/><path class="st2" d="M29.96 58.7v2.44l-.09-.06v-2.32z"/></g><g><path class="st6" d="M28.87 63.01l1.08-.62v2.43l-1.08.62z"/><path class="st5" d="M29.95 64.82l-.09-.05-.99.54v.13z"/><path class="st2" d="M29.95 62.39v2.43l-.09-.05v-2.33z"/></g><g><path class="st6" d="M28.88 66.59l1.08-.63v2.44l-1.08.61z"/><path class="st5" d="M29.96 68.4l-.09-.06-.99.54v.13z"/><path class="st2" d="M29.96 65.96v2.44l-.09-.06v-2.32z"/></g><g><path class="st6" d="M28.88 69.85l1.08-.62v2.44l-1.08.61z"/><path class="st5" d="M29.96 71.67l-.09-.06-.99.54v.13z"/><path class="st2" d="M29.96 69.23v2.44l-.09-.06v-2.33z"/></g></g><g><path class="st6" d="M26.55 35.2l1.08-.63v2.44l-1.08.62z"/><path class="st5" d="M27.63 37.01l-.09-.06-.99.54v.14z"/><path class="st2" d="M27.63 34.57v2.44l-.09-.06v-2.32z"/><path class="st6" d="M26.56 38.91l1.08-.63v2.44l-1.08.61z"/><path class="st5" d="M27.64 40.72l-.09-.06-.99.54v.13z"/><path class="st2" d="M27.64 38.28v2.44l-.09-.06v-2.33z"/><path class="st6" d="M26.56 42.47l1.08-.63v2.44l-1.08.62z"/><path class="st5" d="M27.64 44.28l-.09-.06-.99.54v.14z"/><path class="st2" d="M27.64 41.84v2.44l-.09-.06V41.9z"/><path class="st6" d="M26.56 46.17l1.08-.63v2.44l-1.08.62z"/><path class="st5" d="M27.64 47.98l-.09-.06-.99.54v.14z"/><path class="st2" d="M27.64 45.54v2.44l-.09-.06V45.6z"/><g><path class="st6" d="M26.56 49.78l1.08-.63v2.44l-1.08.61z"/><path class="st5" d="M27.64 51.59l-.09-.06-.99.54v.13z"/><path class="st2" d="M27.64 49.15v2.44l-.09-.06V49.2z"/></g><g><path class="st6" d="M26.56 53.43l1.08-.62v2.43l-1.08.62z"/><path class="st5" d="M27.64 55.24l-.09-.06-.99.54v.14z"/><path class="st2" d="M27.64 52.81v2.43l-.09-.06v-2.32z"/></g><g><path class="st6" d="M26.56 57.04l1.08-.63v2.44l-1.08.62z"/><path class="st5" d="M27.64 58.85l-.09-.06-.99.54v.14z"/><path class="st2" d="M27.64 56.41v2.44l-.09-.06v-2.32z"/></g><g><path class="st6" d="M26.56 60.65l1.08-.62v2.43l-1.08.62z"/><path class="st5" d="M27.64 62.46l-.09-.06-.99.54v.14z"/><path class="st2" d="M27.64 60.03v2.43l-.09-.06v-2.32z"/></g><g><path class="st6" d="M26.55 64.33l1.08-.62v2.44l-1.08.61z"/><path class="st5" d="M27.63 66.15l-.09-.06-.99.54v.13z"/><path class="st2" d="M27.63 63.71v2.44l-.09-.06v-2.33z"/></g><g><path class="st6" d="M26.56 67.91l1.09-.63v2.44l-1.09.62z"/><path class="st5" d="M27.65 69.72l-.1-.06-.99.54v.14z"/><path class="st2" d="M27.65 67.28v2.44l-.1-.06v-2.32z"/></g><g><path class="st6" d="M26.56 71.17l1.09-.62v2.44l-1.09.61z"/><path class="st5" d="M27.65 72.99l-.1-.06-.99.54v.13z"/><path class="st2" d="M27.65 70.55v2.44l-.1-.06V70.6z"/></g></g><g><path class="st6" d="M35.36 62.86l1.08-.62v2.43l-1.08.62z"/><path class="st5" d="M36.44 64.67l-.09-.05-.99.54v.13z"/><path class="st2" d="M36.44 62.24v2.43l-.09-.05v-2.33z"/></g><g><path class="st6" d="M37.46 61.65l1.08-.62v2.43l-1.08.62z"/><path class="st5" d="M38.54 63.46l-.09-.05-.99.54v.13z"/><path class="st2" d="M38.54 61.03v2.43l-.09-.05v-2.33z"/></g><g><path class="st6" d="M39.57 60.43l1.08-.62v2.44l-1.08.61z"/><path class="st5" d="M40.65 62.25l-.09-.06-.99.54v.13z"/><path class="st2" d="M40.65 59.81v2.44l-.09-.06v-2.33z"/></g><path class="st6" d="M23.67 35.6c.7.03 1.5-.1 1.5-.1v2.25s-.77.12-1.49.11l-.01-2.26zM20.84 35.13c.76.27 1.5.35 1.5.35v2.29s-.71-.12-1.5-.34v-2.3zM18.15 33.59c.4.5 1.52 1.07 1.52 1.07v2.29s-1.06-.53-1.5-1.09l-.02-2.27zM23.67 39.35c.7.03 1.5-.1 1.5-.1v2.25s-.77.12-1.49.11l-.01-2.26zM20.84 38.89c.76.27 1.5.35 1.5.35v2.29s-.71-.12-1.5-.34v-2.3zM18.15 37.35c.4.5 1.52 1.07 1.52 1.07v2.29s-1.06-.53-1.5-1.09l-.02-2.27zM23.67 43.1c.7.03 1.5-.1 1.5-.1v2.25s-.77.12-1.49.11l-.01-2.26zM20.84 42.64c.76.27 1.5.35 1.5.35v2.29s-.71-.12-1.5-.34v-2.3zM18.15 41.1c.4.5 1.52 1.07 1.52 1.07v2.29s-1.06-.53-1.5-1.09l-.02-2.27zM23.67 46.71c.7.03 1.5-.1 1.5-.1v2.25s-.77.12-1.49.11l-.01-2.26zM20.84 46.25c.76.27 1.5.35 1.5.35v2.29s-.71-.12-1.5-.34v-2.3zM18.15 44.71c.4.5 1.52 1.07 1.52 1.07v2.29s-1.06-.53-1.5-1.09l-.02-2.27zM23.67 50.33c.7.03 1.5-.1 1.5-.1v2.25s-.77.12-1.49.11l-.01-2.26zM20.84 49.86c.76.27 1.5.35 1.5.35v2.29s-.71-.12-1.5-.34v-2.3zM18.15 48.32c.4.5 1.52 1.07 1.52 1.07v2.29s-1.06-.53-1.5-1.09l-.02-2.27zM23.67 53.94c.7.03 1.5-.1 1.5-.1v2.25s-.77.12-1.49.11l-.01-2.26zM20.84 53.48c.76.27 1.5.35 1.5.35v2.29s-.71-.12-1.5-.34v-2.3zM18.15 51.94c.4.5 1.52 1.07 1.52 1.07v2.29s-1.06-.53-1.5-1.09l-.02-2.27zM23.67 57.57c.7.03 1.5-.1 1.5-.1v2.25s-.77.12-1.49.11l-.01-2.26zM20.84 57.11c.76.27 1.5.35 1.5.35v2.29s-.71-.12-1.5-.34v-2.3zM18.15 55.57c.4.5 1.52 1.07 1.52 1.07v2.29s-1.06-.53-1.5-1.09l-.02-2.27zM23.67 61.22c.7.03 1.5-.1 1.5-.1v2.25s-.77.12-1.49.11l-.01-2.26zM20.84 60.75c.76.27 1.5.35 1.5.35v2.29s-.71-.12-1.5-.34v-2.3zM18.15 59.21c.4.5 1.52 1.07 1.52 1.07v2.29s-1.06-.53-1.5-1.09l-.02-2.27zM23.67 64.87c.7.03 1.5-.1 1.5-.1v2.25s-.77.12-1.49.11l-.01-2.26zM20.84 64.4c.76.27 1.5.35 1.5.35v2.29s-.71-.12-1.5-.34v-2.3zM18.15 62.86c.4.5 1.52 1.07 1.52 1.07v2.29s-1.06-.53-1.5-1.09l-.02-2.27zM23.67 68.52c.7.03 1.5-.1 1.5-.1v2.25s-.77.12-1.49.11l-.01-2.26zM20.84 68.05c.76.27 1.5.35 1.5.35v2.29s-.71-.12-1.5-.34v-2.3zM18.15 66.51c.4.5 1.52 1.07 1.52 1.07v2.29s-1.06-.53-1.5-1.09l-.02-2.27z"/><linearGradient id="SVGID_7_" gradientUnits="userSpaceOnUse" x1="980.543" y1="72.491" x2="980.584" y2="79.546" gradientTransform="matrix(-1 0 0 1 1002.174 0)"><stop offset="0" stop-color="#bfd9ef"/><stop offset=".141" stop-color="#cce1f4"/><stop offset=".395" stop-color="#ddecfa"/><stop offset=".67" stop-color="#e8f2fe"/><stop offset="1" stop-color="#ebf4ff"/></linearGradient><path d="M25.16 71.45s-4.42.69-7.05-1.95v3.96s2.44 2.67 7.05 1.95v-3.96z" fill="url(#SVGID_7_)"/></g><g><path class="st1" d="M43.39 70.82l12.12 7 11.92-6.88-11.92-6.88z"/><path class="st2" d="M43.6 40.69l11.91 6.88v30.25l-12.12-7z"/><path class="st3" d="M67.43 40.69l-11.92 6.88v30.25l11.92-6.88z"/><linearGradient id="SVGID_8_" gradientUnits="userSpaceOnUse" x1="43.596" y1="40.69" x2="67.429" y2="40.69"><stop offset="0" stop-color="#eef5ff"/><stop offset="1" stop-color="#cfe7ff"/></linearGradient><path fill="url(#SVGID_8_)" d="M67.43 40.69l-11.92-6.88-11.91 6.88 11.91 6.88z"/><path class="st6" d="M57.39 49.24l1.22-.71v2.77l-1.22.69z"/><path class="st5" d="M58.61 51.3l-.1-.07-1.12.61v.15z"/><path class="st2" d="M58.61 48.53v2.77l-.1-.07v-2.64z"/><path class="st6" d="M59.77 47.86l1.23-.71v2.77l-1.23.69z"/><path class="st5" d="M61 49.92l-.11-.07-1.12.61v.15z"/><path class="st2" d="M61 47.15v2.77l-.11-.07v-2.64z"/><path class="st6" d="M62.15 46.49l1.23-.71v2.76l-1.23.7z"/><path class="st5" d="M63.38 48.54l-.11-.06-1.12.61v.15z"/><path class="st2" d="M63.38 45.78v2.76l-.11-.06v-2.64z"/><path class="st6" d="M64.54 45.11l1.22-.71v2.77l-1.22.69z"/><path class="st5" d="M65.76 47.17l-.1-.07-1.12.61v.15z"/><path class="st2" d="M65.76 44.4v2.77l-.1-.07v-2.64z"/><path class="st6" d="M57.39 53.38l1.22-.71v2.77l-1.22.69z"/><path class="st5" d="M58.61 55.44l-.1-.07-1.12.61v.15z"/><path class="st2" d="M58.61 52.67v2.77l-.1-.07v-2.64z"/><path class="st6" d="M59.77 52l1.23-.7v2.76l-1.23.69z"/><path class="st5" d="M61 54.06l-.11-.07-1.12.61v.15z"/><path class="st2" d="M61 51.3v2.76l-.11-.07v-2.63z"/><path class="st6" d="M62.15 50.63l1.23-.71v2.77l-1.23.69z"/><path class="st5" d="M63.38 52.69l-.11-.07-1.12.61v.15z"/><path class="st2" d="M63.38 49.92v2.77l-.11-.07v-2.64z"/><path class="st6" d="M64.54 49.25l1.22-.7v2.76l-1.22.69z"/><path class="st5" d="M65.76 51.31l-.1-.07-1.12.61V52z"/><path class="st2" d="M65.76 48.55v2.76l-.1-.07v-2.63z"/><path class="st6" d="M57.39 57.47l1.22-.71v2.77l-1.22.69z"/><path class="st5" d="M58.61 59.53l-.1-.07-1.12.61v.15z"/><path class="st2" d="M58.61 56.76v2.77l-.1-.07v-2.64z"/><path class="st6" d="M59.77 56.09l1.23-.7v2.76l-1.23.69z"/><path class="st5" d="M61 58.15l-.11-.07-1.12.61v.15z"/><path class="st2" d="M61 55.39v2.76l-.11-.07v-2.63z"/><path class="st6" d="M62.15 54.72l1.23-.71v2.76l-1.23.7z"/><path class="st5" d="M63.38 56.77l-.11-.06-1.12.61v.15z"/><path class="st2" d="M63.38 54.01v2.76l-.11-.06v-2.64z"/><path class="st6" d="M64.54 53.34l1.22-.71v2.77l-1.22.69z"/><path class="st5" d="M65.76 55.4l-.1-.07-1.12.61v.15z"/><path class="st2" d="M65.76 52.63v2.77l-.1-.07v-2.64z"/><path class="st6" d="M57.39 61.56l1.22-.7v2.76l-1.22.7z"/><path class="st5" d="M58.61 63.62l-.1-.07-1.12.62v.15z"/><path class="st2" d="M58.61 60.86v2.76l-.1-.07v-2.63z"/><path class="st6" d="M59.77 60.19l1.23-.71v2.76l-1.23.7z"/><path class="st5" d="M61 62.24l-.11-.06-1.12.61v.15z"/><path class="st2" d="M61 59.48v2.76l-.11-.06v-2.64z"/><path class="st6" d="M62.15 58.81l1.23-.7v2.76l-1.23.7z"/><path class="st5" d="M63.38 60.87l-.11-.07-1.12.62v.15z"/><path class="st2" d="M63.38 58.11v2.76l-.11-.07v-2.63z"/><path class="st6" d="M64.54 57.44l1.22-.71v2.76l-1.22.7z"/><path class="st5" d="M65.76 59.49l-.1-.06-1.12.61v.15z"/><path class="st2" d="M65.76 56.73v2.76l-.1-.06v-2.64z"/><path class="st6" d="M57.38 65.74l1.22-.71v2.76l-1.22.7z"/><path class="st5" d="M58.6 67.79l-.1-.06-1.12.61v.15z"/><path class="st2" d="M58.6 65.03v2.76l-.1-.06v-2.64z"/><path class="st6" d="M59.77 64.36l1.22-.71v2.77l-1.22.69z"/><path class="st5" d="M60.99 66.42l-.1-.07-1.12.61v.15z"/><path class="st2" d="M60.99 63.65v2.77l-.1-.07v-2.64z"/><path class="st6" d="M62.15 62.99l1.22-.71v2.76l-1.22.7z"/><path class="st5" d="M63.37 65.04l-.1-.06-1.12.61v.15z"/><path class="st2" d="M63.37 62.28v2.76l-.1-.06v-2.64z"/><path class="st6" d="M64.53 61.61l1.23-.71v2.76l-1.23.7z"/><path class="st5" d="M65.76 63.66l-.11-.06-1.12.61v.15z"/><path class="st2" d="M65.76 60.9v2.76l-.11-.06v-2.64z"/><path class="st6" d="M57.39 69.79l1.23-.71v2.77l-1.23.69z"/><path class="st5" d="M58.62 71.85l-.11-.07-1.12.61v.15z"/><path class="st2" d="M58.62 69.08v2.77l-.11-.07v-2.64z"/><path class="st6" d="M59.78 68.41l1.22-.7v2.76l-1.22.69z"/><path class="st5" d="M61 70.47l-.1-.07-1.12.61v.15z"/><path class="st2" d="M61 67.71v2.76l-.1-.07v-2.63z"/><path class="st6" d="M62.16 67.04l1.22-.71v2.76l-1.22.7z"/><path class="st5" d="M63.38 69.09l-.1-.06-1.12.61v.15z"/><path class="st2" d="M63.38 66.33v2.76l-.1-.06v-2.64z"/><path class="st6" d="M64.54 65.66l1.23-.71v2.77l-1.23.69z"/><path class="st5" d="M65.77 67.72l-.1-.07-1.13.61v.15z"/><path class="st2" d="M65.77 64.95v2.77l-.1-.07v-2.64z"/><path class="st6" d="M53.69 49.27l-1.23-.7v2.76l1.23.69z"/><path class="st5" d="M52.46 51.33l.1-.07 1.13.61v.15z"/><path class="st3" d="M52.46 48.57v2.76l.1-.07v-2.63z"/><path class="st6" d="M51.3 47.89l-1.23-.7v2.76l1.23.7z"/><path class="st5" d="M50.07 49.95l.11-.07 1.12.62v.15z"/><path class="st3" d="M50.07 47.19v2.76l.11-.07v-2.63z"/><path class="st6" d="M48.92 46.52l-1.23-.71v2.77l1.23.69z"/><path class="st5" d="M47.69 48.58l.11-.07 1.12.61v.15z"/><path class="st3" d="M47.69 45.81v2.77l.11-.07v-2.64z"/><path class="st6" d="M46.53 45.14l-1.22-.7v2.76l1.22.7z"/><path class="st5" d="M45.31 47.2l.1-.07 1.12.62v.15z"/><path class="st3" d="M45.31 44.44v2.76l.1-.07V44.5z"/><path class="st6" d="M53.69 53.41l-1.23-.7v2.76l1.23.7z"/><path class="st5" d="M52.46 55.47l.1-.07 1.13.62v.15z"/><path class="st3" d="M52.46 52.71v2.76l.1-.07v-2.63z"/><path class="st6" d="M51.3 52.03l-1.23-.7v2.76l1.23.7z"/><path class="st5" d="M50.07 54.09l.11-.07 1.12.62v.15z"/><path class="st3" d="M50.07 51.33v2.76l.11-.07v-2.63z"/><path class="st6" d="M48.92 50.66l-1.23-.7v2.76l1.23.69z"/><path class="st5" d="M47.69 52.72l.11-.07 1.12.61v.15z"/><path class="st3" d="M47.69 49.96v2.76l.11-.07v-2.63z"/><path class="st6" d="M46.53 49.28l-1.22-.7v2.76l1.22.7z"/><path class="st5" d="M45.31 51.34l.1-.07 1.12.62v.15z"/><path class="st3" d="M45.31 48.58v2.76l.1-.07v-2.63z"/><path class="st6" d="M53.69 57.5l-1.23-.7v2.76l1.23.69z"/><path class="st5" d="M52.46 59.56l.1-.07 1.13.61v.15z"/><path class="st3" d="M52.46 56.8v2.76l.1-.07v-2.63z"/><path class="st6" d="M51.3 56.12l-1.23-.7v2.76l1.23.7z"/><path class="st5" d="M50.07 58.18l.11-.07 1.12.62v.15z"/><path class="st3" d="M50.07 55.42v2.76l.11-.07v-2.63z"/><path class="st6" d="M48.92 54.75l-1.23-.7v2.76l1.23.69z"/><path class="st5" d="M47.69 56.81l.11-.07 1.12.61v.15z"/><path class="st3" d="M47.69 54.05v2.76l.11-.07v-2.63z"/><path class="st6" d="M46.53 53.37l-1.22-.7v2.76l1.22.7z"/><path class="st5" d="M45.31 55.43l.1-.07 1.12.62v.15z"/><path class="st3" d="M45.31 52.67v2.76l.1-.07v-2.63z"/><path class="st6" d="M53.69 61.6l-1.23-.71v2.76l1.23.7z"/><path class="st5" d="M52.46 63.65l.1-.06 1.13.61v.15z"/><path class="st3" d="M52.46 60.89v2.76l.1-.06v-2.64z"/><path class="st6" d="M51.3 60.22l-1.23-.71v2.76l1.23.7z"/><path class="st5" d="M50.07 62.27l.11-.06 1.12.61v.15z"/><path class="st3" d="M50.07 59.51v2.76l.11-.06v-2.64z"/><path class="st6" d="M48.92 58.85l-1.23-.71v2.76l1.23.7z"/><path class="st5" d="M47.69 60.9l.11-.06 1.12.61v.15z"/><path class="st3" d="M47.69 58.14v2.76l.11-.06V58.2zM44.03 40.93V24.41l.44-.25v16.52z"/><path class="st2" d="M43.6 40.7l.43.23V24.41l-.43-.24z"/><path class="st6" d="M46.53 57.47l-1.22-.71v2.76l1.22.7z"/><path class="st5" d="M45.31 59.52l.1-.06 1.12.61v.15z"/><path class="st3" d="M45.31 56.76v2.76l.1-.06v-2.64z"/><path class="st6" d="M53.69 65.77l-1.22-.71v2.77l1.22.69z"/><path class="st5" d="M52.47 67.83l.1-.07 1.12.61v.15z"/><path class="st3" d="M52.47 65.06v2.77l.1-.07v-2.64z"/><path class="st6" d="M51.31 64.39l-1.23-.7v2.76l1.23.69z"/><path class="st5" d="M50.08 66.45l.1-.07 1.13.61v.15z"/><path class="st3" d="M50.08 63.69v2.76l.1-.07v-2.63z"/><path class="st6" d="M48.93 63.02l-1.23-.71v2.77l1.23.69z"/><path class="st5" d="M47.7 65.08l.1-.07 1.13.61v.15z"/><path class="st3" d="M47.7 62.31v2.77l.1-.07v-2.64z"/><path class="st6" d="M46.54 61.64l-1.22-.7v2.76l1.22.69z"/><path class="st5" d="M45.32 63.7l.1-.07 1.12.61v.15z"/><path class="st3" d="M45.32 60.94v2.76l.1-.07V61z"/><path class="st6" d="M53.68 69.82l-1.22-.7v2.76l1.22.69z"/><path class="st5" d="M52.46 71.88l.1-.07 1.12.61v.15z"/><path class="st3" d="M52.46 69.12v2.76l.1-.07v-2.63z"/><path class="st6" d="M51.29 68.44l-1.22-.7v2.76l1.22.7z"/><path class="st5" d="M50.07 70.5l.1-.07 1.12.62v.15z"/><path class="st3" d="M50.07 67.74v2.76l.1-.07V67.8z"/><path class="st6" d="M48.91 67.07l-1.22-.7v2.76l1.22.69z"/><path class="st5" d="M47.69 69.13l.1-.07 1.12.61v.15z"/><path class="st3" d="M47.69 66.37v2.76l.1-.07v-2.63z"/><path class="st6" d="M46.53 65.69l-1.23-.7v2.76l1.23.7z"/><path class="st5" d="M45.3 67.75l.11-.07 1.12.62v.15z"/><path class="st3" d="M45.3 64.99v2.76l.11-.07v-2.63z"/><path class="st2" d="M55.51 47.57l-.43-.24.43-.26.43.25z"/><path class="st3" d="M55.51 47.57V31.04l.43-.24v16.52z"/><path class="st2" d="M55.08 47.33l.43.24V31.04l-.43-.23z"/><path class="st3" d="M55.51 34.25V17.73l.43-.25v16.53z"/><path class="st2" d="M55.08 34.02l.43.23V17.73l-.43-.24z"/><path class="st3" d="M61.15 37.67V21.14l.43-.25v16.53z"/><path class="st2" d="M60.72 37.43l.43.24V21.14l-.43-.24z"/><path class="st3" d="M67 40.94V24.42l.43-.25v16.52z"/><path class="st2" d="M66.56 40.7l.44.24V24.42l-.44-.24z"/><path class="st3" d="M61.35 44.09V27.57l.43-.25v16.52z"/><path class="st2" d="M60.92 43.86l.43.23V27.57l-.43-.24z"/><path class="st3" d="M49.81 44.22V27.7l.43-.25v16.53z"/><path class="st2" d="M49.37 43.99l.44.23V27.7l-.44-.24z"/></g><g><path class="st1" d="M29.3 78.82l12.12 7 11.92-6.88-11.92-6.88z"/><path class="st2" d="M29.51 48.69l11.91 6.88v30.25l-12.12-7z"/><path class="st3" d="M53.34 48.69l-11.92 6.88v30.25l11.92-6.88z"/><linearGradient id="SVGID_9_" gradientUnits="userSpaceOnUse" x1="29.508" y1="48.687" x2="53.34" y2="48.687"><stop offset="0" stop-color="#eef5ff"/><stop offset="1" stop-color="#cfe7ff"/></linearGradient><path fill="url(#SVGID_9_)" d="M53.34 48.69l-11.92-6.88-11.91 6.88 11.91 6.88z"/><path class="st6" d="M43.3 57.24l1.22-.71v2.76l-1.22.7z"/><path class="st5" d="M44.52 59.29l-.1-.06-1.12.61v.15z"/><path class="st2" d="M44.52 56.53v2.76l-.1-.06v-2.64z"/><path class="st6" d="M45.68 55.86l1.23-.71v2.76l-1.23.7z"/><path class="st5" d="M46.91 57.91l-.1-.06-1.13.61v.15z"/><path class="st2" d="M46.91 55.15v2.76l-.1-.06v-2.64z"/><path class="st6" d="M48.06 54.49l1.23-.71v2.76l-1.23.7z"/><path class="st5" d="M49.29 56.54l-.1-.06-1.13.61v.15z"/><path class="st2" d="M49.29 53.78v2.76l-.1-.06v-2.64z"/><path class="st6" d="M50.45 53.11l1.22-.71v2.76l-1.22.7z"/><path class="st5" d="M51.67 55.16l-.1-.06-1.12.61v.15z"/><path class="st2" d="M51.67 52.4v2.76l-.1-.06v-2.64z"/><path class="st6" d="M43.3 61.38l1.22-.71v2.76l-1.22.7z"/><path class="st5" d="M44.52 63.43l-.1-.06-1.12.61v.15z"/><path class="st2" d="M44.52 60.67v2.76l-.1-.06v-2.64z"/><path class="st6" d="M45.68 60l1.23-.71v2.76l-1.23.7z"/><path class="st5" d="M46.91 62.05l-.1-.06-1.13.61v.15z"/><path class="st2" d="M46.91 59.29v2.76l-.1-.06v-2.64z"/><path class="st6" d="M48.06 58.63l1.23-.71v2.76l-1.23.7z"/><path class="st5" d="M49.29 60.68l-.1-.06-1.13.61v.15z"/><path class="st2" d="M49.29 57.92v2.76l-.1-.06v-2.64z"/><path class="st6" d="M50.45 57.25l1.22-.71v2.76l-1.22.7z"/><path class="st5" d="M51.67 59.3l-.1-.06-1.12.61V60z"/><path class="st2" d="M51.67 56.54v2.76l-.1-.06V56.6z"/><path class="st6" d="M43.3 65.47l1.22-.71v2.76l-1.22.7z"/><path class="st5" d="M44.52 67.52l-.1-.06-1.12.61v.15z"/><path class="st2" d="M44.52 64.76v2.76l-.1-.06v-2.64z"/><path class="st6" d="M45.68 64.09l1.23-.71v2.76l-1.23.7z"/><path class="st5" d="M46.91 66.14l-.1-.06-1.13.61v.15z"/><path class="st2" d="M46.91 63.38v2.76l-.1-.06v-2.64z"/><path class="st6" d="M48.06 62.72l1.23-.71v2.76l-1.23.7z"/><path class="st5" d="M49.29 64.77l-.1-.06-1.13.61v.15z"/><path class="st2" d="M49.29 62.01v2.76l-.1-.06v-2.64z"/><path class="st6" d="M50.45 61.34l1.22-.71v2.76l-1.22.7z"/><path class="st5" d="M51.67 63.39l-.1-.06-1.12.61v.15z"/><path class="st2" d="M51.67 60.63v2.76l-.1-.06v-2.64z"/><path class="st6" d="M43.3 69.56l1.22-.7v2.76l-1.22.69z"/><path class="st5" d="M44.52 71.62l-.1-.07-1.12.61v.15z"/><path class="st2" d="M44.52 68.86v2.76l-.1-.07v-2.63z"/><path class="st6" d="M45.68 68.18l1.23-.7v2.76l-1.23.7z"/><path class="st5" d="M46.91 70.24l-.1-.07-1.13.62v.15z"/><path class="st2" d="M46.91 67.48v2.76l-.1-.07v-2.63z"/><path class="st6" d="M48.06 66.81l1.23-.71v2.77l-1.23.69z"/><path class="st5" d="M49.29 68.87l-.1-.07-1.13.61v.15z"/><path class="st2" d="M49.29 66.1v2.77l-.1-.07v-2.64z"/><path class="st6" d="M50.45 65.43l1.22-.7v2.76l-1.22.69z"/><path class="st5" d="M51.67 67.49l-.1-.07-1.12.62v.14z"/><path class="st2" d="M51.67 64.73v2.76l-.1-.07v-2.63z"/><path class="st6" d="M43.29 73.74l1.22-.71v2.76l-1.22.7z"/><path class="st5" d="M44.51 75.79l-.1-.06-1.12.61v.15z"/><path class="st2" d="M44.51 73.03v2.76l-.1-.06v-2.64z"/><path class="st6" d="M45.68 72.36l1.22-.71v2.76l-1.22.7z"/><path class="st5" d="M46.9 74.41l-.1-.06-1.12.61v.15z"/><path class="st2" d="M46.9 71.65v2.76l-.1-.06v-2.64z"/><path class="st6" d="M48.06 70.99l1.22-.71v2.76l-1.22.7z"/><path class="st5" d="M49.28 73.04l-.1-.06-1.12.61v.15z"/><path class="st2" d="M49.28 70.28v2.76l-.1-.06v-2.64z"/><path class="st6" d="M50.44 69.61l1.23-.71v2.76l-1.23.7z"/><path class="st5" d="M51.67 71.66l-.11-.06-1.12.61v.15z"/><path class="st2" d="M51.67 68.9v2.76l-.11-.06v-2.64z"/><path class="st6" d="M43.3 77.79l1.23-.71v2.76l-1.23.7z"/><path class="st5" d="M44.53 79.84l-.11-.06-1.12.61v.15z"/><path class="st2" d="M44.53 77.08v2.76l-.11-.06v-2.64z"/><path class="st6" d="M45.69 76.41l1.22-.71v2.76l-1.22.7z"/><path class="st5" d="M46.91 78.46l-.1-.06-1.12.61v.15z"/><path class="st2" d="M46.91 75.7v2.76l-.1-.06v-2.64z"/><path class="st6" d="M48.07 75.04l1.22-.71v2.76l-1.22.7z"/><path class="st5" d="M49.29 77.09l-.1-.06-1.12.61v.15z"/><path class="st2" d="M49.29 74.33v2.76l-.1-.06v-2.64z"/><path class="st6" d="M50.46 73.66l1.22-.71v2.76l-1.22.7z"/><path class="st5" d="M51.68 75.71l-.1-.06-1.12.61v.15z"/><path class="st2" d="M51.68 72.95v2.76l-.1-.06v-2.64z"/><path class="st6" d="M39.6 57.27l-1.23-.71v2.76l1.23.7z"/><path class="st5" d="M38.37 59.32l.11-.06 1.12.61v.15z"/><path class="st3" d="M38.37 56.56v2.76l.11-.06v-2.64z"/><path class="st6" d="M37.21 55.89l-1.22-.71v2.77l1.22.69z"/><path class="st5" d="M35.99 57.95l.1-.07 1.12.61v.15z"/><path class="st3" d="M35.99 55.18v2.77l.1-.07v-2.64z"/><path class="st6" d="M34.83 54.52l-1.22-.71v2.76l1.22.7z"/><path class="st5" d="M33.61 56.57l.1-.06 1.12.61v.15z"/><path class="st3" d="M33.61 53.81v2.76l.1-.06v-2.64z"/><path class="st6" d="M32.44 53.14l-1.22-.71v2.77l1.22.69z"/><path class="st5" d="M31.22 55.2l.1-.07 1.12.61v.15z"/><path class="st3" d="M31.22 52.43v2.77l.1-.07v-2.64z"/><path class="st6" d="M39.6 61.41l-1.23-.71v2.77l1.23.69z"/><path class="st5" d="M38.37 63.47l.11-.07 1.12.61v.15z"/><path class="st3" d="M38.37 60.7v2.77l.11-.07v-2.64z"/><path class="st6" d="M37.21 60.03l-1.22-.7v2.76l1.22.69z"/><path class="st5" d="M35.99 62.09l.1-.07 1.12.61v.15z"/><path class="st3" d="M35.99 59.33v2.76l.1-.07v-2.63z"/><path class="st6" d="M34.83 58.66l-1.22-.71v2.76l1.22.7z"/><path class="st5" d="M33.61 60.71l.1-.06 1.12.61v.15z"/><path class="st3" d="M33.61 57.95v2.76l.1-.06v-2.64z"/><path class="st6" d="M32.44 57.28l-1.22-.71v2.77l1.22.69z"/><path class="st5" d="M31.22 59.34l.1-.07 1.12.61v.15z"/><path class="st3" d="M31.22 56.57v2.77l.1-.07v-2.64z"/><path class="st6" d="M39.6 65.5l-1.23-.71v2.76l1.23.7z"/><path class="st5" d="M38.37 67.55l.11-.06 1.12.61v.15z"/><path class="st3" d="M38.37 64.79v2.76l.11-.06v-2.64z"/><path class="st6" d="M37.21 64.12l-1.22-.71v2.77l1.22.69z"/><path class="st5" d="M35.99 66.18l.1-.07 1.12.61v.15z"/><path class="st3" d="M35.99 63.41v2.77l.1-.07v-2.64z"/><path class="st6" d="M34.83 62.75l-1.22-.71v2.76l1.22.7z"/><path class="st5" d="M33.61 64.8l.1-.06 1.12.61v.15z"/><path class="st3" d="M33.61 62.04v2.76l.1-.06V62.1z"/><path class="st6" d="M32.44 61.37l-1.22-.71v2.77l1.22.69z"/><path class="st5" d="M31.22 63.43l.1-.07 1.12.61v.15z"/><path class="st3" d="M31.22 60.66v2.77l.1-.07v-2.64z"/><path class="st6" d="M39.6 69.59l-1.23-.7v2.76l1.23.7z"/><path class="st5" d="M38.37 71.65l.11-.07 1.12.62v.15z"/><path class="st3" d="M38.37 68.89v2.76l.11-.07v-2.63z"/><path class="st6" d="M37.21 68.22l-1.22-.71v2.76l1.22.7z"/><path class="st5" d="M35.99 70.27l.1-.06 1.12.61v.15z"/><path class="st3" d="M35.99 67.51v2.76l.1-.06v-2.64z"/><path class="st6" d="M34.83 66.84l-1.22-.7v2.76l1.22.7z"/><path class="st5" d="M33.61 68.9l.1-.07 1.12.62v.15z"/><path class="st3" d="M33.61 66.14v2.76l.1-.07V66.2zM29.95 48.93V32.41l.43-.25v16.52z"/><path class="st2" d="M29.51 48.69l.44.24V32.41l-.44-.24z"/><path class="st6" d="M32.44 65.46l-1.22-.7v2.76l1.22.7z"/><path class="st5" d="M31.22 67.52l.1-.07 1.12.62v.15z"/><path class="st3" d="M31.22 64.76v2.76l.1-.07v-2.63z"/><path class="st6" d="M39.6 73.77l-1.22-.71v2.76l1.22.7z"/><path class="st5" d="M38.38 75.82l.1-.06 1.12.61v.15z"/><path class="st3" d="M38.38 73.06v2.76l.1-.06v-2.64z"/><path class="st6" d="M37.22 72.39l-1.23-.71v2.76l1.23.7z"/><path class="st5" d="M35.99 74.44l.11-.06 1.12.61v.15z"/><path class="st3" d="M35.99 71.68v2.76l.11-.06v-2.64z"/><path class="st6" d="M34.84 71.02l-1.23-.71v2.76l1.23.7z"/><path class="st5" d="M33.61 73.07l.11-.06 1.12.61v.15z"/><path class="st3" d="M33.61 70.31v2.76l.11-.06v-2.64z"/><path class="st6" d="M32.45 69.64l-1.22-.71v2.76l1.22.7z"/><path class="st5" d="M31.23 71.69l.1-.06 1.12.61v.15z"/><path class="st3" d="M31.23 68.93v2.76l.1-.06v-2.64z"/><path class="st6" d="M39.59 77.82l-1.22-.71v2.76l1.22.7z"/><path class="st5" d="M38.37 79.87l.1-.06 1.12.61v.15z"/><path class="st3" d="M38.37 77.11v2.76l.1-.06v-2.64z"/><path class="st6" d="M37.21 76.44l-1.23-.71v2.77l1.23.69z"/><path class="st5" d="M35.98 78.5l.1-.07 1.13.61v.15z"/><path class="st3" d="M35.98 75.73v2.77l.1-.07v-2.64z"/><path class="st6" d="M34.83 75.07l-1.23-.71v2.76l1.23.7z"/><path class="st5" d="M33.6 77.12l.1-.06 1.13.61v.15z"/><path class="st3" d="M33.6 74.36v2.76l.1-.06v-2.64z"/><path class="st6" d="M32.44 73.69l-1.23-.71v2.77l1.23.69z"/><path class="st5" d="M31.21 75.75l.11-.07 1.12.61v.15z"/><path class="st3" d="M31.21 72.98v2.77l.11-.07v-2.64z"/><path class="st2" d="M41.42 55.57l-.43-.24.43-.26.44.25z"/><path class="st3" d="M41.42 55.57V39.04l.44-.25v16.53z"/><path class="st2" d="M40.99 55.33l.43.24V39.04l-.43-.24z"/><path class="st3" d="M41.42 42.25V25.73l.44-.25V42z"/><path class="st2" d="M40.99 42.01l.43.24V25.73l-.43-.24z"/><path class="st3" d="M47.06 45.66V29.14l.44-.25v16.52z"/><path class="st2" d="M46.63 45.42l.43.24V29.14l-.43-.24z"/><path class="st3" d="M52.91 48.94V32.41l.43-.25v16.53z"/><path class="st2" d="M52.47 48.7l.44.24V32.41l-.44-.23z"/><path class="st3" d="M47.26 52.09V35.57l.43-.25v16.52z"/><path class="st2" d="M46.83 51.85l.43.24V35.57l-.43-.24z"/><path class="st3" d="M35.72 52.22V35.7l.43-.25v16.52z"/><path class="st2" d="M35.28 51.98l.44.24V35.7l-.44-.24z"/></g></svg>