<svg xmlns="http://www.w3.org/2000/svg" viewBox="0 0 32 21"><path d="M21.82 11.64c-.42 0-.9.03-1.41.07 1.69 1.22 2.87 2.87 2.87 5.02v3.64H32v-3.64c0-3.39-6.79-5.09-10.18-5.09m-11.64 0C6.79 11.64 0 13.34 0 16.73v3.64h20.36v-3.64c0-3.39-6.79-5.09-10.18-5.09m0-2.91c2.41 0 4.35-1.95 4.35-4.36S12.6.01 10.18.01 5.82 1.96 5.82 4.37s1.95 4.36 4.36 4.36m11.64 0c2.41 0 4.35-1.95 4.35-4.36S24.24.01 21.82.01s-4.36 1.95-4.36 4.36a4.345 4.345 0 0 0 4.36 4.36" fill-rule="evenodd" clip-rule="evenodd" fill="#f9c72c"/></svg>