<svg version="1.1" id="Calque_1" xmlns="http://www.w3.org/2000/svg" x="0" y="0" viewBox="0 0 110.07 35.64" xml:space="preserve"><style>.st0{fill:#30374b}</style><path class="st0" d="M10.16 6.51l-4.39 2.3v1.93h4.39zM16.15 12.1v4.23h-4.38v-1.94zM17.76 12.1v4.23h4.38v-1.94zM11.77 6.51v4.23h4.38V8.81zM5.77 12.17h4.38v4.09H5.77zM5.77 17.77h4.38v4.09H5.77zM11.77 17.77h4.38v4.09h-4.38zM17.76 17.77h4.38v4.09h-4.38zM26.98 12.87v3.94h.27c.41 0 .74-.06 1-.19s.48-.34.66-.64c.18-.3.3-.71.35-1.22h.24v4.81h-.24c-.09-.91-.32-1.51-.71-1.8s-.82-.43-1.31-.43h-.27v2.93c0 .49.03.8.08.92s.15.23.31.32c.15.09.36.14.62.14h.31v.26h-4.84v-.26h.31c.27 0 .49-.05.65-.15.12-.07.21-.18.27-.34.05-.11.08-.41.08-.89v-6.32c0-.49-.03-.8-.08-.92s-.15-.23-.3-.32-.36-.14-.62-.14h-.31v-.26h7.82v2.75h-.28c-.06-.65-.23-1.12-.49-1.43s-.64-.53-1.14-.66c-.27-.07-.78-.11-1.52-.11l-.86.01zM36.74 12.63c-.82 0-1.45.45-1.87 1.34-.35.73-.52 1.79-.52 3.17 0 1.63.27 2.84.81 3.62.38.55.9.82 1.58.82.45 0 .83-.12 1.14-.35.39-.3.69-.78.91-1.44s.32-1.52.32-2.59c0-1.27-.11-2.21-.33-2.84s-.5-1.07-.84-1.33c-.36-.27-.75-.4-1.2-.4m-.08-.45c1.43-.06 2.59.39 3.49 1.34.89.95 1.34 2.13 1.34 3.55 0 1.22-.33 2.28-1 3.21-.88 1.22-2.13 1.84-3.74 1.84-1.62 0-2.86-.58-3.75-1.75-.7-.92-1.05-2.02-1.05-3.29 0-1.42.45-2.61 1.36-3.56.91-.95 2.03-1.4 3.35-1.34"/><path class="st0" d="M45.11 12.31l5.04 5.94v-4.12c0-.57-.09-.96-.26-1.17-.24-.27-.65-.41-1.21-.4v-.26h3.38v.26c-.43.05-.72.12-.87.2-.15.08-.26.22-.35.4-.08.19-.12.51-.12.96v7.98h-.26l-6.91-7.98v6.09c0 .55.13.92.4 1.12.27.19.58.29.92.29h.24v.26h-3.63v-.26c.56 0 .95-.11 1.18-.32.22-.21.33-.57.33-1.08v-6.76l-.22-.25c-.22-.25-.41-.42-.57-.5-.17-.08-.4-.12-.72-.13v-.26h3.63v-.01zM60.6 12.1v3.32h-.26c-.19-.87-.56-1.53-1.09-1.99-.53-.46-1.13-.69-1.81-.69-.56 0-1.08.17-1.55.52-.47.34-.6.77-.81 1.33-.28.71-.42 1.5-.42 2.37 0 .86.1 1.64.31 2.34.2.7.31 1.26.74 1.62s1 .54 1.69.54c.57 0 1.09-.13 1.56-.4.47-.26.97-.72 1.49-1.36v.83c-.5.56-1.03.97-1.58 1.22s-1.19.38-1.92.38c-.96 0-1.81-.2-2.56-.61s-1.32-1-1.73-1.77-.61-1.58-.61-2.45c0-.91.22-1.78.67-2.6.45-.82 1.06-1.46 1.82-1.91s1.57-.68 2.43-.68c.63 0 1.3.15 2.01.44.41.17.67.25.78.25.14 0 .26-.06.37-.17.1-.11.17-.29.2-.53h.27zM66.44 21.63v.26h-5.12v-.26h.32c.28 0 .51-.05.69-.15.13-.07.22-.18.29-.34.05-.11.08-.41.08-.89v-6.3c0-.49-.03-.8-.08-.92s-.16-.23-.32-.32-.38-.14-.65-.14h-.32v-.26h5.12v.26h-.32c-.28 0-.51.05-.69.15-.13.07-.22.18-.3.34-.05.11-.08.41-.08.89v6.3c0 .49.03.8.08.92.06.12.16.23.33.32.16.09.38.14.65.14h.32zM72.35 18.64l-1.45-3.3-1.49 3.3h2.94zm.24.53h-3.43l-.41.93c-.13.31-.2.57-.2.77 0 .27.11.47.33.59.13.08.45.13.95.17v.26H66.6v-.26c.35-.05.64-.19.86-.43.22-.23.5-.71.83-1.44l3.48-7.64h.14l3.5 7.86c.33.74.61 1.21.82 1.41.16.15.39.23.69.25v.26h-4.7v-.26h.19c.38 0 .64-.05.8-.16a.37.37 0 0 0 .16-.33c0-.08-.01-.17-.04-.26a5.62 5.62 0 0 0-.22-.53l-.52-1.19zM84.64 21.66v.26h-4.6v-.26h.29c.26 0 .46-.05.62-.15.11-.07.2-.18.26-.34.05-.11.07-.41.07-.89v-6.32c0-.49-.02-.8-.07-.92s-.14-.23-.29-.32c-.14-.09-.34-.14-.59-.14h-.29v-.26h4.6v.26h-.3c-.26 0-.46.05-.62.15-.11.07-.2.18-.27.34-.05.11-.07.41-.07.89v6.32c0 .49.02.8.07.92s.15.23.29.32.34.14.59.14h.31zM88.47 12.87v4.15c.14.01.25.01.32.01.52 0 .93-.17 1.21-.51s.42-.87.42-1.59c0-.71-.14-1.23-.42-1.57-.28-.33-.71-.5-1.27-.5l-.26.01zm0 4.7v2.66c0 .52.03.85.09.98s.16.24.31.32c.15.08.42.12.81.12v.26h-4.44v-.26c.4 0 .68-.04.82-.12.14-.08.24-.19.3-.32s.09-.46.09-.98V14c0-.52-.03-.85-.09-.98s-.16-.24-.31-.32c-.15-.08-.42-.12-.82-.12v-.26h3.81c1.25 0 2.15.25 2.7.74.54.49.82 1.11.82 1.84 0 .62-.18 1.16-.53 1.6s-.84.75-1.45.91c-.42.1-1.12.16-2.11.16"/><path class="st0" d="M98.59 18.65l2.37-6.33h3.56v.26h-.28c-.26 0-.46.05-.62.15-.11.07-.19.18-.26.33-.05.11-.07.41-.07.89v6.33c0 .49.02.8.07.92s.14.23.29.32.34.14.59.14h.28v.26h-4.57v-.26h.28c.26 0 .46-.05.62-.15.11-.07.19-.18.26-.34.05-.11.07-.41.07-.89v-7.12l-3.35 8.76h-.15l-3.41-8.7v6.76c0 .47.01.76.03.87.06.24.18.43.36.58.19.15.48.22.88.22v.26h-2.99v-.26h.09c.19 0 .37-.03.54-.1s.29-.17.38-.29c.09-.12.15-.3.2-.52.01-.05.01-.29.01-.72v-6.08c0-.49-.02-.79-.07-.91s-.14-.23-.29-.32-.34-.14-.59-.14h-.28v-.26h3.57l2.48 6.34zM5.77 23.27h98.75v.57H5.77z"/><g><path class="st0" d="M8.07 28.93v.11H5.56v-.11h.16c.14 0 .25-.02.34-.06.06-.03.11-.07.14-.14.03-.05.04-.17.04-.37v-2.6c0-.2-.01-.33-.04-.38a.353.353 0 0 0-.16-.12.73.73 0 0 0-.32-.06h-.16v-.11h2.51v.11h-.16c-.14 0-.25.02-.34.06-.06.03-.11.07-.15.14-.03.05-.04.17-.04.37v2.6c0 .2.01.33.04.38.03.05.08.09.16.13s.19.06.32.06h.17v-.01zM9.32 26.67l1.42 1.47v-1.02c0-.14-.02-.24-.07-.29-.07-.07-.18-.1-.34-.1v-.06h.95v.06c-.12.02-.2.03-.24.05s-.07.05-.1.1c-.02.05-.04.12-.04.24v1.97h-.07l-1.95-1.97v1.51c0 .14.04.23.11.28.08.05.16.07.26.07h.07v.06H8.3v-.06c.16 0 .27-.03.33-.08s.09-.14.09-.27v-1.68l-.06-.06a.51.51 0 0 0-.16-.12.525.525 0 0 0-.2-.03v-.06l1.02-.01zM13.43 26.62l.02.79h-.08a.768.768 0 0 0-.3-.48.892.892 0 0 0-.53-.18c-.14 0-.26.03-.34.1-.08.06-.13.14-.13.22 0 .05.01.1.04.14.04.05.11.11.2.16.07.04.22.11.46.2.35.13.57.26.69.38s.17.26.17.42c0 .2-.09.37-.28.51s-.43.21-.72.21c-.09 0-.18-.01-.26-.02-.08-.02-.18-.04-.3-.09-.06-.02-.12-.03-.16-.03s-.08.01-.12.03-.07.06-.1.11h-.08v-.89h.08a1 1 0 0 0 .36.58c.18.13.37.2.58.2.16 0 .29-.04.38-.11s.14-.15.14-.25c0-.06-.02-.11-.05-.16a.78.78 0 0 0-.16-.15c-.07-.05-.2-.11-.39-.18-.26-.11-.45-.2-.57-.27-.11-.07-.2-.16-.26-.25s-.09-.19-.09-.3c0-.19.08-.35.25-.48s.38-.2.64-.2a1.241 1.241 0 0 1 .51.11c.1.04.16.06.2.06s.07-.01.09-.03.04-.06.06-.13h.05v-.02zM16.56 26.67v.64h-.08c-.05-.15-.1-.25-.15-.32a.543.543 0 0 0-.23-.15.897.897 0 0 0-.28-.03h-.21v1.83c0 .12.01.2.02.23.02.03.05.06.1.08s.11.03.19.03h.1v.06h-1.51v-.06h.1c.08 0 .15-.01.2-.04.04-.02.07-.04.09-.08.02-.03.02-.1.02-.22v-1.83h-.21c-.19 0-.34.03-.42.1-.12.09-.2.23-.23.4h-.09v-.64h2.59zM18.31 28.97v.06H16.8v-.06h.1c.08 0 .15-.01.2-.04.04-.02.07-.04.09-.08.02-.03.02-.1.02-.22v-1.56c0-.12-.01-.2-.02-.23a.236.236 0 0 0-.09-.08.504.504 0 0 0-.19-.03h-.1v-.06h1.51v.06h-.1c-.08 0-.15.01-.2.04-.04.02-.07.04-.09.08-.02.03-.02.1-.02.22v1.56c0 .12.01.2.02.23.02.03.05.06.1.08.05.02.11.03.19.03h.09zM21.16 26.67v.64h-.08c-.05-.15-.1-.25-.15-.32a.543.543 0 0 0-.23-.15.897.897 0 0 0-.28-.03h-.21v1.83c0 .12.01.2.02.23.02.03.05.06.1.08.05.02.11.03.19.03h.1v.06h-1.51v-.06h.1c.08 0 .15-.01.2-.04.04-.02.07-.04.09-.08.02-.03.02-.1.02-.22v-1.83h-.21c-.19 0-.34.03-.42.1-.12.09-.2.23-.23.4h-.08v-.64h2.58zM21.42 26.67h1.49v.06h-.07c-.11 0-.19.01-.23.03-.04.02-.07.05-.09.08-.02.03-.03.12-.03.25v1.16c0 .21.02.35.06.42.04.07.1.13.19.17.09.05.2.07.34.07.16 0 .29-.03.4-.09.11-.06.19-.14.25-.24.05-.1.08-.28.08-.53v-.97c0-.11-.01-.18-.04-.23s-.06-.08-.1-.09a.638.638 0 0 0-.27-.04v-.06h1v.06h-.06c-.08 0-.15.01-.2.04-.05.03-.09.07-.12.12a.46.46 0 0 0-.03.2v.9c0 .28-.02.48-.07.6-.04.12-.15.24-.33.34-.17.1-.41.16-.71.16-.25 0-.44-.03-.58-.08-.19-.07-.32-.17-.39-.29-.08-.12-.11-.27-.11-.47v-1.16c0-.14-.01-.22-.03-.25s-.05-.06-.1-.08a.725.725 0 0 0-.25-.03v-.05zM27.21 26.67v.64h-.07c-.05-.15-.1-.25-.15-.32a.543.543 0 0 0-.23-.15.897.897 0 0 0-.28-.03h-.21v1.83c0 .12.01.2.02.23.02.03.05.06.1.08.05.02.11.03.19.03h.1v.06h-1.51v-.06h.1c.08 0 .15-.01.2-.04.04-.02.07-.04.09-.08.02-.03.02-.1.02-.22v-1.83h-.21c-.19 0-.34.03-.42.1-.12.09-.2.23-.23.4h-.08v-.64h2.57zM28.97 28.97v.06h-1.51v-.06h.1c.08 0 .15-.01.2-.04.04-.02.07-.04.09-.08.02-.03.02-.1.02-.22v-1.56c0-.12-.01-.2-.02-.23a.236.236 0 0 0-.09-.08.504.504 0 0 0-.19-.03h-.1v-.06h1.51v.06h-.1c-.08 0-.15.01-.2.04-.04.02-.07.04-.09.08-.02.03-.02.1-.02.22v1.56c0 .12.01.2.02.23.02.03.05.06.1.08.05.02.11.03.19.03h.09zM30.77 26.75a.67.67 0 0 0-.6.33c-.11.18-.17.44-.17.78 0 .4.09.7.26.9.12.13.29.2.51.2a.7.7 0 0 0 .37-.09c.12-.07.22-.19.29-.36.07-.16.1-.38.1-.64 0-.31-.04-.55-.11-.7-.07-.16-.16-.27-.27-.33a.763.763 0 0 0-.38-.09m-.02-.11c.46-.01.83.1 1.12.33.29.23.43.53.43.88 0 .3-.11.56-.32.79-.28.3-.68.45-1.2.45s-.92-.14-1.2-.43c-.22-.23-.34-.5-.34-.81 0-.35.15-.65.44-.88.28-.24.64-.35 1.07-.33M33.54 26.67l1.42 1.47v-1.02c0-.14-.02-.24-.07-.29-.07-.07-.18-.1-.34-.1v-.06h.95v.06a.89.89 0 0 0-.25.05.24.24 0 0 0-.1.1c-.02.05-.04.12-.04.24v1.97h-.07l-1.95-1.97v1.51c0 .14.04.23.11.28.08.05.16.07.26.07h.07v.06h-1.02v-.06c.16 0 .27-.03.33-.08s.09-.14.09-.27v-1.68l-.06-.06c-.06-.06-.11-.1-.16-.12s-.11-.03-.2-.03v-.06l1.03-.01zM37.34 28.24l-.43-.82-.44.82h.87zm.07.12h-1.02l-.12.23a.45.45 0 0 0-.06.19c0 .07.03.12.1.15.04.02.13.03.28.04v.06h-.95v-.06c.1-.01.19-.05.26-.11s.15-.18.25-.36l1.03-1.89h.04l1.04 1.94c.1.18.18.3.24.35.05.04.12.06.2.06v.06h-1.4v-.06h.06c.11 0 .19-.01.24-.04.03-.02.05-.05.05-.08 0-.02 0-.04-.01-.06 0-.01-.02-.05-.06-.13l-.17-.29zM41.5 28.21l-.11.83h-2.56v-.06h.1c.08 0 .15-.01.2-.04.04-.02.07-.04.09-.08.02-.03.02-.1.02-.22v-1.56c0-.12-.01-.2-.02-.23a.236.236 0 0 0-.09-.08.504.504 0 0 0-.19-.03h-.1v-.06h1.54v.06h-.14c-.08 0-.15.01-.2.04-.04.02-.07.04-.09.08-.02.03-.02.1-.02.22v1.51c0 .12.01.2.03.23s.05.06.1.07c.04.01.12.02.26.02h.24c.15 0 .28-.02.38-.07.1-.04.19-.11.26-.21s.15-.24.21-.42h.09zM44.46 25.32v1.71c.08 0 .14.01.18.01.29 0 .51-.07.67-.21s.23-.36.23-.65-.08-.51-.23-.64c-.16-.14-.39-.2-.7-.2h-.15v-.02zm0 1.93v1.09c0 .21.02.35.05.4.03.06.09.1.17.13.08.03.23.05.45.05v.11h-2.44v-.11c.22 0 .37-.02.45-.05s.13-.08.17-.13c.03-.05.05-.19.05-.4v-2.56c0-.21-.02-.35-.05-.4-.03-.06-.09-.1-.17-.13-.08-.03-.23-.05-.45-.05v-.11h2.1c.69 0 1.19.1 1.49.3.3.2.45.45.45.76 0 .26-.1.48-.29.66-.19.18-.46.31-.8.37-.24.05-.63.07-1.18.07M48.1 26.8v1.04h.12c.2 0 .34-.01.44-.04.1-.03.17-.08.23-.16s.08-.18.08-.3c0-.18-.05-.31-.15-.4-.1-.09-.27-.13-.5-.13l-.22-.01zm0 1.16v.66c0 .13.01.21.03.24.02.03.05.06.1.08s.14.03.27.03v.06h-1.48v-.06c.13 0 .22-.01.27-.03s.08-.05.1-.08c.02-.03.03-.11.03-.24v-1.54c0-.13-.01-.21-.03-.24-.02-.03-.05-.06-.1-.08s-.14-.03-.27-.03v-.06h1.34c.35 0 .6.02.77.06.16.04.29.11.4.22a.523.523 0 0 1-.08.8c-.1.07-.23.13-.41.16l.69.8c.09.1.16.17.19.19.06.04.13.06.2.06v.06h-.91l-.93-1.08h-.18v.02zM51.79 26.75a.67.67 0 0 0-.6.33c-.11.18-.17.44-.17.78 0 .4.09.7.26.9.12.13.29.2.51.2a.7.7 0 0 0 .37-.09c.12-.07.22-.19.29-.36.07-.16.1-.38.1-.64 0-.31-.04-.55-.11-.7-.07-.16-.16-.27-.27-.33a.763.763 0 0 0-.38-.09m-.02-.11c.46-.01.83.1 1.12.33.29.23.43.53.43.88 0 .3-.11.56-.32.79-.28.3-.68.45-1.2.45s-.92-.14-1.2-.43c-.22-.23-.34-.5-.34-.81 0-.35.15-.65.44-.88.29-.24.64-.35 1.07-.33M54.65 26.81v1.02h.11c.17 0 .31-.04.4-.13.09-.08.14-.22.14-.39 0-.18-.05-.3-.14-.39-.09-.08-.23-.12-.42-.12l-.09.01zm0 1.16v.66c0 .13.01.21.03.24.02.03.05.06.1.08s.14.03.27.03v.06h-1.47v-.06c.13 0 .22-.01.27-.03s.08-.05.1-.08c.02-.03.03-.11.03-.24v-1.54c0-.13-.01-.21-.03-.24-.02-.03-.05-.06-.1-.08s-.14-.03-.27-.03v-.06h1.26c.41 0 .71.06.89.18s.27.27.27.45c0 .15-.06.29-.17.39-.12.11-.28.18-.48.22-.14.03-.37.05-.7.05M57.32 26.81v.96h.06c.18 0 .32-.05.4-.14s.13-.23.16-.42h.08v1.24h-.08c-.02-.14-.05-.25-.11-.33s-.12-.14-.19-.17-.18-.04-.31-.04v.67c0 .13.01.21.02.24s.04.05.08.07.1.03.18.03h.17c.27 0 .49-.05.65-.15.16-.1.28-.26.35-.47h.08l-.13.75h-2.49v-.06h.1c.08 0 .15-.01.2-.04.04-.02.07-.04.09-.08.02-.03.02-.1.02-.22v-1.56c0-.11 0-.17-.01-.2a.142.142 0 0 0-.08-.09.447.447 0 0 0-.22-.05h-.1v-.06h2.41v.7h-.08a.851.851 0 0 0-.17-.37.643.643 0 0 0-.32-.16 2.2 2.2 0 0 0-.45-.03h-.31v-.02zM60.2 26.8v1.04h.12c.2 0 .34-.01.44-.04.1-.03.17-.08.23-.16s.08-.18.08-.3c0-.18-.05-.31-.15-.4-.1-.09-.27-.13-.5-.13l-.22-.01zm0 1.16v.66c0 .13.01.21.03.24.02.03.05.06.1.08s.14.03.27.03v.06h-1.48v-.06c.13 0 .22-.01.27-.03s.08-.05.1-.08c.02-.03.03-.11.03-.24v-1.54c0-.13-.01-.21-.03-.24-.02-.03-.05-.06-.1-.08s-.14-.03-.27-.03v-.06h1.34c.35 0 .6.02.77.06.16.04.29.11.4.22a.523.523 0 0 1-.08.8c-.1.07-.23.13-.41.16l.69.8c.09.1.16.17.19.19.06.04.13.06.2.06v.06h-.91l-.93-1.08h-.18v.02zM64.79 26.67v.64h-.08c-.05-.15-.1-.25-.15-.32a.543.543 0 0 0-.23-.15.897.897 0 0 0-.28-.03h-.21v1.83c0 .12.01.2.02.23.02.03.05.06.1.08.05.02.11.03.19.03h.1v.06h-1.51v-.06h.1c.08 0 .15-.01.2-.04.04-.02.07-.04.09-.08.02-.03.02-.1.02-.22v-1.83h-.21c-.19 0-.34.03-.42.1-.12.09-.2.23-.23.4h-.08v-.64h2.58zM68.04 26.67v.06c-.1.01-.17.03-.22.07-.07.05-.18.18-.34.4l-.63.86v.57c0 .12.01.2.02.23.02.03.05.06.09.08.05.02.11.03.18.03h.16v.06h-1.62v-.06h.15c.09 0 .15-.01.2-.04.04-.02.07-.04.09-.08.02-.03.02-.1.02-.22v-.48l-.68-1.01c-.13-.2-.23-.32-.28-.35a.475.475 0 0 0-.22-.06v-.06h1.38v.06h-.06c-.08 0-.14.01-.18.03-.03.02-.05.04-.05.06 0 .04.06.15.17.32l.52.78.52-.71c.13-.17.19-.29.19-.35 0-.03-.02-.06-.06-.08a.557.557 0 0 0-.27-.05v-.06h.92zM72.48 27.69l1.3-2.6h1.96v.11h-.16c-.14 0-.26.02-.34.06-.06.03-.11.07-.14.14-.03.05-.04.17-.04.36v2.6c0 .2.01.33.04.38s.08.09.16.13.19.06.32.06h.16v.11h-2.51v-.11h.16c.14 0 .26-.02.34-.06.06-.03.11-.07.14-.14.03-.05.04-.17.04-.37v-2.93l-1.84 3.6h-.09l-1.87-3.58v2.78c0 .19.01.31.02.36.03.1.1.18.2.24s.26.09.48.09v.11h-1.65v-.11h.05c.11 0 .21-.01.3-.04s.16-.07.21-.12a.52.52 0 0 0 .11-.21c0-.02.01-.12.01-.3v-2.5c0-.2-.01-.32-.04-.37s-.08-.09-.16-.13-.19-.06-.32-.06h-.15v-.11h1.96l1.35 2.61zM77.61 28.24l-.43-.82-.44.82h.87zm.07.12h-1.02l-.12.23a.45.45 0 0 0-.06.19c0 .07.03.12.1.15.04.02.13.03.28.04v.06h-.96v-.06c.1-.01.19-.05.26-.11s.15-.18.25-.36l1.03-1.89h.04l1.04 1.94c.1.18.18.3.24.35.05.04.12.06.2.06v.06h-1.4v-.06h.06c.11 0 .19-.01.24-.04.03-.02.05-.05.05-.08 0-.02 0-.04-.01-.06 0-.01-.02-.05-.06-.13l-.16-.29zM80.1 26.67l1.42 1.47v-1.02c0-.14-.02-.24-.07-.29-.07-.07-.18-.1-.34-.1v-.06h.95v.06a.89.89 0 0 0-.25.05.24.24 0 0 0-.1.1c-.02.05-.04.12-.04.24v1.97h-.07l-1.95-1.97v1.51c0 .14.04.23.11.28.09.04.18.06.28.06h.07v.06h-1.02v-.06c.16 0 .27-.03.33-.08s.09-.14.09-.27v-1.67l-.06-.06c-.06-.06-.11-.1-.16-.12s-.11-.03-.2-.03v-.06l1.01-.01zM83.91 28.24l-.43-.82-.44.82h.87zm.07.12h-1.02l-.12.23a.45.45 0 0 0-.06.19c0 .07.03.12.1.15.04.02.13.03.28.04v.06h-.96v-.06c.1-.01.19-.05.26-.11s.15-.18.25-.36l1.03-1.89h.04l1.04 1.94c.1.18.18.3.24.35.05.04.12.06.2.06v.06h-1.4v-.06h.06c.11 0 .19-.01.24-.04.03-.02.05-.05.05-.08 0-.02 0-.04-.01-.06 0-.01-.02-.05-.06-.13l-.16-.29zM88.32 26.62v.84h-.08c-.1-.23-.24-.4-.43-.52s-.4-.18-.62-.18-.39.05-.54.15c-.14.1-.24.24-.3.42s-.09.36-.09.55c0 .23.03.43.1.6s.17.3.32.38.32.12.52.12a1.742 1.742 0 0 0 .43-.07v-.49c0-.09-.01-.15-.02-.18-.02-.03-.05-.05-.1-.07a.484.484 0 0 0-.18-.03h-.07v-.06h1.4v.06c-.11.01-.18.02-.22.04s-.07.05-.1.09c-.01.02-.02.08-.02.16v.49c-.18.07-.38.12-.58.15-.2.03-.41.05-.62.05-.27 0-.5-.03-.68-.09s-.34-.14-.48-.24c-.14-.1-.25-.21-.32-.34a.998.998 0 0 1-.15-.54c0-.36.15-.66.46-.9.3-.25.69-.37 1.15-.37.14 0 .27.01.39.03.06.01.16.04.3.08s.22.07.25.07c.04 0 .08-.01.11-.04a.26.26 0 0 0 .09-.14h.08v-.02zM89.89 26.81v.96h.06c.18 0 .32-.05.4-.14s.13-.23.16-.42h.08v1.24h-.08c-.02-.14-.05-.25-.11-.33-.05-.09-.12-.14-.19-.17s-.18-.04-.31-.04v.67c0 .13.01.21.02.24s.04.05.08.07.1.03.18.03h.17c.27 0 .49-.05.65-.15.16-.1.28-.26.35-.47h.08l-.13.75h-2.49v-.06h.1c.08 0 .15-.01.2-.04.04-.02.07-.04.09-.08.02-.03.02-.1.02-.22v-1.56c0-.11 0-.17-.01-.2a.142.142 0 0 0-.08-.09.447.447 0 0 0-.22-.05h-.1v-.06h2.41v.7h-.08a.851.851 0 0 0-.17-.37.643.643 0 0 0-.32-.16 2.2 2.2 0 0 0-.45-.03h-.31v-.02zM93.68 28.23l.78-1.56h1.17v.06h-.09c-.09 0-.15.01-.2.04-.04.02-.06.04-.09.08-.02.03-.02.1-.02.22v1.56c0 .12.01.2.02.23.02.03.05.06.1.08.05.02.11.03.19.03h.09v.06h-1.51v-.06h.09c.09 0 .15-.01.2-.04.04-.02.06-.04.09-.08.02-.03.02-.1.02-.22v-1.76l-1.11 2.16h-.05l-1.12-2.15v1.67c0 .12 0 .19.01.21.02.06.06.11.12.14.06.04.16.06.29.06v.06h-.99v-.06h.03c.06 0 .12-.01.18-.03s.1-.04.13-.07.05-.07.07-.13v-1.68c0-.12-.01-.19-.02-.22s-.05-.06-.1-.08a.504.504 0 0 0-.19-.03h-.09v-.06h1.18l.82 1.57zM96.91 26.81v.96h.06c.18 0 .32-.05.4-.14s.13-.23.16-.42h.08v1.24h-.08c-.02-.14-.05-.25-.11-.33-.05-.09-.12-.14-.19-.17s-.18-.04-.31-.04v.67c0 .13.01.21.02.24s.04.05.08.07.1.03.18.03h.17c.27 0 .49-.05.65-.15.16-.1.28-.26.35-.47h.08l-.13.75h-2.49v-.06h.1c.08 0 .15-.01.2-.04.04-.02.07-.04.09-.08.02-.03.02-.1.02-.22v-1.56c0-.11 0-.17-.01-.2a.142.142 0 0 0-.08-.09.447.447 0 0 0-.22-.05h-.1v-.06h2.41v.7h-.1a.851.851 0 0 0-.17-.37.643.643 0 0 0-.32-.16 2.2 2.2 0 0 0-.45-.03h-.29v-.02zM99.71 26.67l1.42 1.47v-1.02c0-.14-.02-.24-.07-.29-.07-.07-.18-.1-.34-.1v-.06h.95v.06a.89.89 0 0 0-.25.05.24.24 0 0 0-.1.1c-.02.05-.04.12-.04.24v1.97h-.07l-1.95-1.97v1.51c0 .14.04.23.11.28.08.05.16.07.26.07h.07v.06h-1.02v-.06c.16 0 .27-.03.33-.08s.09-.14.09-.27v-1.68l-.06-.06c-.06-.06-.11-.1-.16-.12s-.11-.03-.2-.03v-.06l1.03-.01zM104.52 26.67v.64h-.08c-.05-.15-.1-.25-.15-.32a.543.543 0 0 0-.23-.15.897.897 0 0 0-.28-.03h-.21v1.83c0 .12.01.2.02.23.02.03.05.06.1.08.05.02.11.03.19.03h.1v.06h-1.51v-.06h.1c.08 0 .15-.01.2-.04.04-.02.07-.04.09-.08.02-.03.02-.1.02-.22v-1.83h-.21c-.19 0-.34.03-.42.1-.12.09-.2.23-.23.4h-.08v-.64h2.58z"/></g></svg>